<svg version="1.1" id="Layer_1" xmlns="http://www.w3.org/2000/svg" x="0" y="0" viewBox="0 0 540.1 660.3" xml:space="preserve"><style>.st0{fill:#5deec7}.st0,.st1,.st2,.st3,.st5{fill-rule:evenodd;clip-rule:evenodd}.st1{fill:#111927}.st2{fill:#118a69}.st3{fill:#57f3c3}.st5{fill:#55ecc1}.st12,.st13,.st14{fill-rule:evenodd;clip-rule:evenodd}.st6{fill:#bfffee}.st6,.st7,.st8{fill-rule:evenodd;clip-rule:evenodd}.st7{fill:#ced8f0}.st8{fill:#fcfcfe}.st12{fill:#0086ff}.st13{fill:#8594b5}.st14{fill:#4d6193}.st17{fill:#55ecc1}</style><path class="st0" d="M352.3 140.2c9.8 4.1 19.8 9.3 28.2 14.7 5.4 3.5 10.8 7 15.9 10.9 1.3 1 2.9 2.2 4.1 3.3 3.6 2.9 7.1 6.4 10.3 9.7 5.1 5.3 10 10.9 14.5 16.8 2.5-4.9 5-9.8 7.6-14.6 1.4-2.6 4-8 5.9-10.2 4.5-4.9 11.6-2.7 16.5 0 1.6.9 3.4 2 5 3.3 2-1.4 4.4-2.1 7.1-1.6 7.3 1.3 16.6 10.5 18.6 17.5.3.9.5 1.8.7 2.9 2.4.1 4.8.7 6.9 2.2 7.3 4.9 10.2 16.8 9.9 25-.1 2.9-.6 6.3-1.5 9.5 3.1 2.7 5.3 6.6 6.1 10.8 2 10-10.3 30.7-15.4 39.1-3.9 6.4-8.1 12.8-12.7 18.7-.2.3-.5.6-.7.9.4.9.9 1.8 1.3 2.7 1.9 4.5 2.9 9.2 3.2 14.1.6 8.6.8 16.7-2.7 24.7-.5 1.6-.8 3.9-1.1 5.5-.6 3.5-1.2 6.9-1.8 10.4-.6 3.5-1.1 7-1.7 10.5-.4 2.3-.7 4.8-1.3 7.1-1.2 5-5 9.8-8.9 13.5l7.4 41.3h3.9c8 0 14.4 5.2 17.9 12.1 11.6 23.2 24.3 45.9 36 69.2 2.3 4.6 4.2 10.1 1.2 14.9-3.1 4.8-9 5.5-14.2 5.5H495v22.3l-.3 1c-.4 1.5-1.1 2.9-2.1 4.1-2.1 2.6-4.8 3.8-7.9 4.8-3.3 1.1-6.6 2-9.8 3.1l-77.2 27c-.4.1-.9.3-1.3.4-.1.4-.2.8-.4 1.2l-3.9 12.3-.1.3c-2.2 5.3-3.2 5.5-8 7.9l-.2.1L279.6 657c-3.7 1.5-7.8 3.2-11.9 3.2h-.2c-4.1 0-8.1-1.6-11.9-3.2l-104.2-41.9-.2-.1c-4.8-2.3-5.9-2.6-8-7.9l-.1-.3-3.9-12.3c-.1-.4-.2-.8-.4-1.2-.4-.1-.9-.3-1.3-.4l-77.2-27c-3.3-1.1-6.6-2.1-9.8-3.1-3-1-5.8-2.2-7.9-4.8-1-1.2-1.7-2.6-2.1-4.1l-.3-1v-22.3H16.6c-5.2 0-11.1-.6-14.2-5.5-3-4.8-1.1-10.3 1.2-14.9C15.3 487 28 464.3 39.6 441c3.4-6.9 9.9-12.1 17.9-12.1h3.9l10.3-57.5-12.3-30.9c-4.4-11.2-8.8-22.3-13.2-33.6-1.5-3.8-3-7.7-4.4-11.5-.7-1.8-1.7-4-2.1-5.8-.5-1.4-3.6-3.8-4.8-4.7-4-2.9-5.3-9.1-6-13.7-.9-5.8-1.2-11.9-1.1-17.7.1-5.7.5-13.2 2.2-19.6-2.4-1.7-4.6-3.7-6.1-6.1-4.4-6.9-4.4-13.9-4.5-21.8-.1-3.9 1-6.2 2.3-9.5.1-3.5-.5-8.1.3-11.3.6-2.4 2.3-5.1 4.2-7.3-.1-1.6-.1-2.9.5-4.9 1.1-3.3 5.7-9.2 7.9-12.1 2.1-2.7 7.4-9.9 10.3-11.4 1.2-.6 2.7-1.1 4-1.5.2-.1.4-.1.6-.2-5.3-3.6-9.1-8.7-11.6-14.7-3.9-9.2-2.6-19.4 1.3-28.3 2.2-4.9 7.3-14.1 12.9-15.5 3.8-1 9.1 1.8 12.5 3.3 5.1 2.3 10.1 4.8 15.1 7.2 4.8 2.3 9.5 4.8 14.2 7.2 2.7 1.4 5.4 2.7 8 4.2 4.7 2.6 7.4 11.4 9.1 16.3.7 2.1 1.4 4.2 2 6.3 2.9-.7 5.9-1.1 8.6-.8 4.5.4 10.6 1.6 14.4 4.2 3.6 2.5 3.9 8.1 4.4 12 .7 5 1.2 10 1.7 15 .3 2.4.5 4.8.7 7.1l2.6-2.3c1.3-1.2 2.9-2.4 4.3-3.5 5.1-3.8 10.6-7.4 15.9-10.9 8.4-5.5 18.5-10.6 28.2-14.7-.7-1.8-1.4-3.6-1.9-5.3-13.9-6.3-20.6-23.3-20.6-37.8 0-14.4 6.5-31.1 20.1-37.6 5.9-21.9 20-39.3 40.2-49.7 32.3-16.5 74.7-12 101.3 13 3.4-1 7.7.2 10.9 1.4 2.3.8 4.9 2 6.8 3.5 3.1 2.4 3.9 7.3 4.5 11 .7 4.4 1.3 8.8 1.7 13.2.4 3.6.7 7.2 1.1 10.8 10.3 8 15.1 22 15.1 34.6 0 13.9-5.9 29.8-18.6 36.8-.7 2.1-1.4 4.2-2.3 6.4h.2z"/><path class="st1" d="M136.8 187.3s-3.8-43-5.2-44c-1.5-1-5.1-2.5-11-3-5.8-.5-12.8 3-12.8 3s-6.2-23.7-9.8-25.6c-3.5-2-42.1-21.9-44.7-21.2-2.6.7-16 18.5-9.4 34.3 6.6 15.7 19.5 14.7 20.9 16.4 1.4 1.7 1.8 4.3.4 4-1.5-.4-16.4 4.5-17.7 5.1-1.3.7-13.8 16.6-14.6 19.4-.9 2.7.8 5-.8 6.3-1.7 1.3-3.4 4-3.8 5.5s0 10.2-.2 11.2c-.3 1-2.3 4.1-2.2 7.7.1 3.6-.5 12 3.4 18.1 2.1 3.2 7.3 6.1 11.6 8.6 0 0 3.7 20.2 32.4 23.2 28.7 2.7 61.9-19.3 63.5-69zM333.9 45.1s-.2-14.1.4-15.3c.6-1.2 8.8 1.4 11.4 3.5 2.6 2.1 5.3 38.9 5.3 38.9l-17.1-27.1z"/><path class="st1" d="M341.4 64c-13.3 0-24.1 14.8-24.1 33.1s10.8 33.1 24.1 33.1 24.1-14.8 24.1-33.1S354.7 64 341.4 64zm-139.2 0c13.3 0 24.1 14.8 24.1 33.1s-10.8 33.1-24.1 33.1-24.1-14.8-24.1-33.1C178 78.8 188.9 64 202.2 64z"/><path class="st1" d="M62.1 559.4l77.2 27c5.7 2 4.5 1.1 6.1 6.2l3.8 12c1.3 3.2.9 2.4 4.5 4.1l104 41.8c5.4 2.2 7.3 2.7 9.2 2.6 1.9 0 3.8-.4 9.2-2.6l104-41.8c3.7-1.7 3.3-1 4.5-4.1l3.8-12c1.6-5.1.4-4.2 6.1-6.2l77.2-27c10.7-3.8 14.3-3.6 15.4-7.3v-28.4H518c8.8 0 10.7-2.1 6.7-10.1-11.2-22.2-25.2-47.7-36-69.2-2.2-4.4-6.3-8.2-11.5-8.2h-9.8l-37.8-211.3-.5-.1c0-1.2 0-2.4-.1-3.4l-1-5.3c-4.3-13.5-20.3-9.7-41-20.8l-60.6-13c-3.7-9.5 7.3-33-3.6-36.6-68.4-20.7 7.6-40.7-55.6-59.7-63.2 19.1 12.8 39-55.5 59.6-10.9 3.6.2 27.1-3.6 36.6l-60.6 13c-20.7 11.1-36.7 7.3-41 20.8l-1 5.3c-.1 1.1-.1 2.2-.1 3.4l-.5.1-38.1 211.4H57c-5.2 0-9.3 3.8-11.5 8.2-10.7 21.5-24.9 47-36 69.2-4 8-2.1 10.1 6.7 10.1h30.6v28.4c1.1 3.8 4.7 3.6 15.3 7.3z"/><path class="st1" d="M149.9 174.5l-4.8 4.3s-15.5 17.2-27.9 37c-6.9 11.1-43.4 6.6-75.5 12.3-10 1.8-8.6 47.5-3.3 51.3 3.4 2.4 6.7 5.6 7.5 8.6.7 3 39.4 99.9 39.4 99.9l10.6 2.5c6.7 4.1 19.4 8.8 31.3 7.4 14.6-1.7 14.6-2 14.6-2s-2.3 25.8-1.7 30.4c.7 4.6 251.9 0 251.9 0l-2.3-34.1s8.9 6.3 10.9 7.1c2 .8 25 3.5 42-4.6 17.1-8.1 24-17.4 25.2-22.2 1.1-4.8 5-31.6 6.3-34.6 1.3-3 3.2-6.9 2.2-21.5s-7.6-17.2-5.9-21.7c.5-1.5 1.3-2.9 2.2-4.1-11-10.4-23.7-23.1-23.3-25.5.4-2.5 12.6-40.2 22-69.3-3.4-5.7-7.8-9.1-10.1-9.8-3.3-.8-24 8.1-25.6 8.8-1.4.6-8.3 10.1-10.6 13.2-13-20-29.7-33.6-29.7-33.6s-3.3-3.3-19.2-13.6C360.2 150.6 342 144 342 144s18.5-30.1 5.6-81.5c-18.6-74-131.5-74-150.1 0-12.9 51.3 5.6 81.5 5.6 81.5s-18.2 6.6-34.1 16.9c-15.8 10.2-19.1 13.6-19.1 13.6z"/><path class="st2" d="M161.3 218.6c0-3.7-2.5-25.5-2.5-25.5s8-8.6 19.5-15.9c11.6-7.3 24-10.6 24-10.6s-19 34.6-17.9 36.1c1.1 1.5 22 30 20.8 31-1.1 1-8.6 21.7-8.3 22.7.4 1 45.2 65.2 45.7 66.9.5 1.7 5.1 49.7 4.8 65.5-.4 15.9-2.2 19.4-2.2 19.4H161s12.1-70.9 14.1-114.5c2-43.7 0-50.1-1.5-53-1.5-2.8-11.1-18.4-9.9-14.3l-2.4-7.8z"/><path class="st2" d="M54.9 239.9s-7.9 7.9 4.1 16.7c12.1 8.8 45.7 7.5 59.5-1.4 13.8-8.9 10.3-21.1 6-22.7-4.4-1.6.4-1.9 6.4 2.7s12.6 100.2 15.4 93.3c2.7-6.9 7.3-17.9 6.6-27.5-.8-9.6-13.5-72.5-11.2-83.1 2.3-10.6 8.5-19.2 8.5-19.2s10.4 23.5 10.4 19.9l2.7 7.8c1.4 4.1 5 19.9 2.3 67.5-2.7 47.7-13.9 79.4-20.8 81.8-6.9 2.3-19.3 4.5-28.9 2-9.6-2.5-17.4-6.5-18.5-8S65 289.9 65 289.9s11.2 1.5 28.9-.6c17.8-2.1 26.4-11.7 25.7-11.7-.8 0-15.9 4.2-36.6 3.1-20.7-1.1-28.9-8.8-29.9-10.6-1-1.8-5.6-23.8-4.3-26.4 1.4-2.7 6.1-3.8 6.1-3.8zm162.3-78.3s-21 37.4-20 39.2c1 1.8 22.5 30.4 22 32.3-.5 1.8-8.3 20.5-8.3 21.9s30 42 30 42-10.6-125.1-23.7-135.4z"/><path class="st3" d="M90.7 296.8c-1.7-3.2-11.3-6.4-11.3-6.4-9.1.2-14.5-.5-14.5-.5s31.1 78.3 32.2 79.8c.6.8 2.9 2.2 6.4 3.8.1 0 .3.1.5.2.4.1.7.3 1.1.4 4.6 1.6 8.7-1.4 8.7-1.4s-21.4-72.8-23.1-75.9zM53 270.1c.9 1.8 8.8 9.1 28.4 10.5 0 0 9.8-2.2 10.2-5.9.4-3.8-17.8-12.8-17.8-12.8-6.1-.9-11.4-2.6-14.9-5.2-12.1-8.8-4.1-16.7-4.1-16.7s-4.7 1.1-6.1 3.8c-1.2 2.6 3.4 24.5 4.3 26.3z"/><path fill="none" d="M154 200l6.5 18.6 2.6 7.1"/><path class="st5" d="M158.8 193.1s2.5 21.9 2.5 25.5l2.3 7.1c.8-.3 8.6 12.4 9.9 14.9 1.5 2.8 3.5 9.3 1.5 53s-14.1 114.5-14.1 114.5h34.4s6.6-2.9 7.3-12.5c.7-9.6 6.9-84.4 5.3-89.7-1.7-5.3-20.8-47-18.9-51.6 2-4.6 8.6-18.2 8-22.2-.7-4-4.3-18.1-4.3-18.1-4.1-5.8-7.7-10.7-8.2-11.3-1.1-1.5 17.9-36.1 17.9-36.1s-12.4 3.3-24 10.6c-11.7 7.3-19.7 15.9-19.6 15.9z"/><path class="st3" d="M197.1 200.8c1 1.8 22.5 30.4 22 32.3-.5 1.8-8.3 20.5-8.3 21.9 0 .9 13.2 19.2 22.1 31.4-.5-23.1-16.8-107-16.8-107l-16.9 15.8c-1.4 3-2.3 5.2-2.1 5.6z"/><path class="st2" d="M320.5 162.8s-8.8 5.9-8.9 9.1c-.2 3.2-5.1 129.9-5.1 129.9s29.8-43 30.2-43.9c.4-1-10.3-30.1-10.3-31.9 0-1.8 22.5-21.3 22-22.7-.6-1.4-27.9-40.5-27.9-40.5z"/><path class="st3" d="M331.5 203.7c-.2-1.2-11.2-28.7-14.9-38-2.4 1.9-4.9 4.4-5 6.2 0 .6-.2 5.7-.5 13.5l5.2 37.8c-.1 0 15.5-18 15.2-19.5z"/><path class="st0" d="M334.9 165s28.5 38.4 28.3 39.7c-.2 1.3-24.7 23.8-24.5 24.9.2 1 10.1 27.8 10.9 29 .8 1.1-42.9 62.6-42.9 62.6s-5.5 77-4.8 81.9c.7 5 1.7 5.1 1.7 5.1h72.5s-13.4-132.3-12.2-144.8c1.1-12.6 14.3-30.8 12.9-28-1.3 2.8-4.3 24.3-4.5 29.8-.2 5.5 2.6 24 2.6 24s5-3.5 7.3-9.6 19.9-48.3 21-49.8 3.7 0 3.8-3.5-8.9-20-8.9-20-11.6 15-10.8 12.6c.8-2.5 4.5-18.9 4.5-19.9s-14.6-16.9-26.5-22.2c-11.8-5.2-30.4-11.7-30.4-11.8z"/><path class="st2" d="M339.1 408.1h37s-10.9-107.5-12.2-137.9c-.3 2.9-7.5 76.3-9.4 84.6-2 8.5-9.5 21-11.3 23.3-1.8 2.2 12.5-2.5 10.5.3-1.9 2.7-12.7 25.6-14.6 29.7zm37.7-172.9c-.1.3-.2.4-.3.7-1 3.5-3.1 17.6-4 25.3-.2 1.6-.3 3-.3 3.9-.2 5.4 2.6 23.6 2.6 24 .3-.2 5-3.7 7.3-9.6 2.3-6.1 19.9-48.3 21-49.8s3.7 0 3.8-3.5c.2-3.4-8.7-19.6-8.9-20-.3.4-10.1 13.1-10.8 12.8 0 0-.1-.1 0-.2l-10.4 16.4z"/><path class="st0" d="M387.1 297.3s-6.6 9.5-8.1 16.4c-1.5 6.9 5.5 48.3 6.3 49.3.8 1 16.5 17.7 19 18.2s30.1 4.1 41.9-6.9c11.7-11.1 12.9-27.5 12.9-27.5s-9.8 8.1-32.3 7.6c-22.5-.5-29-14.9-27.6-14.1 1.3.8 21.2 8.9 40.2 5.1 19-3.8 24.1-15.7 24.5-19 .4-3.3 1.1-10.1-1-13.7-2.2-3.7-10.9-6.1-9.9-5.3 1 .8 7.3 7.3 1.3 16.5-5.9 9.3-34.9 14.1-54.3 4.1s-13.2-26.4-12.1-28.5.6-3.8-.8-2.2z"/><path class="st6" d="M186.1 285.5s5 20.5 5.1 34c.2 13.4-.7 54-1.3 55.8-.7 1.8-17.2 27.8-16.5 22.7.7-5.1 6.8-68.5 7.6-93 .8-24.5-.5-25.3.7-26.7 1.1-1.4 2.9 3.4 4.4 7.2z"/><path class="st7" d="M56.2 111.2s-4.4 12.5 4 19.2c8.4 6.7 17.4 4.8 19.4 4.1s3.3-2.9 3.3-2.5c0 .4-.4 3.9-2.6 5.3-2.1 1.5-4.2.7-4.2 1s4.6 10.7 4.8 12.7c.2 2-1.1 6.2-1.1 6.2s-19.3 3.4-20.6 3.9c-1.3.5-13.4 11.9-13.6 15-.2 3.2 31.8 25.8 32.9 26 1.1.2 6.9-6.6.7-11.4s-16.6-12.7-16-14.3c.6-1.6 17.8-2.7 16.9-1.7-.9 1.1-6.6 2.6-5.3 3.5 1.2.9 15.8 11 17.3 16.3 1.5 5.3-3.5 14.7-8 16.4-4.5 1.7-5.8 1.1-5.8 1.1s.6 1.7-1.8 4.7c-2.4 3.1-4.6 2.5-4.4 3.5.3 1 0 3.4-.9 5.2-.9 1.8-4.7 3.2-4.3 4 .4.8 12.2 7.3 16.5 7.5 4.4.3 9.9-.4 9-1-.9-.6-4-3.2-5.2-7.2-1.1-4-1-5.7-.4-5.4.6.4 3.9 4.6 9.5 6.8s12.7.5 17.6-7.3c5-7.8 3-11.6 3.5-15 .5-3.5 4.5-8.9 4.7-12.2.2-3.3-6.2-43-6.2-43s-11.5-1.8-13.6 9c-2.2 10.8 5.8 18.7 5.3 21-.5 2.3-4.8 8.4-5 14.1-.2 5.6 5.6 11.6 4 10.9-1.7-.7-8.3-5.8-9.3-13.4s2.3-9.3 2.2-12.4c-.2-3.2-6.3-9.1-6.1-17.2.2-8.1 4-7.4 4-12.1 0-4.6-9.5-26.1-10.6-27.1-1.1-1.1-30.4-19-30.6-14.4v.2z"/><path class="st7" d="M44.2 188.1s-4.3 1.7-4.1 4.1c.2 2.5 1.4 5.4 4.1 7.5 2.7 2.2 16.7 10.9 20.4 12.2 3.7 1.4 4.8-.3 5.8-3.3S44.2 188 44.2 188.1zm-9 15.7s.4 7.8 1.9 9.9c1.6 2.1 12.9 10.7 16.9 11.2s6.3-.2 8.1-2.3c1.8-2.2 1.6-4 .9-4.3L36.3 203l-1.1.8zm33.9 44s13.2 2.4 24.9.9 20.9-7.6 20.9-7.6-5.1 8.6-17.4 12.2c-12.3 3.5-25.7-1.5-28.4-5.5z"/><path class="st8" d="M56.2 111.2s-.3.8-.6 2.1c0 0 7.5 11.9 16.8 14.7s14.4-2.5 14.4-2.5c-1-1-30.4-19-30.6-14.3zm31.6 23.9c.7 3 7 23.4 7 23.4 1.1-2.1 2.6-2.9 2.6-5.8 0-3.7-6.1-18.2-9.1-24.4 0 0-1.2 3.8-.5 6.8zm20 19s-1.6 5.1-1.1 10.2c.6 5.1 5.5 16.5 5.5 17.8 0 1.2-3.4 6.4-4.4 16.1-1 9.6 3 10.2 3.3 13.6.4 3.3 3.8 10.8-2.2 16.7 1.8-1.3 3.4-3.1 4.9-5.4 5-7.8 3-11.6 3.5-15 .5-3.5 4.5-8.9 4.7-12.2.2-3.3-6.2-43-6.2-43s-4.2-.7-8 1.2zm-29.2 43.5c-2.3-2.5-24.9-19.5-25.2-21.3-.4-1.8 8.9-11.6 8.9-11.6l10-6.1c-5.6 1-12.3 2.2-13.1 2.6-1.3.5-13.4 11.9-13.6 15-.2 3.2 31.8 25.8 32.9 26 .1.1 2.4-2 .1-4.6zm-32.7-3c-3-4.5-.3-5.7-.3-5.7-.9-.6-1.4-.9-1.4-.9s-4.3 1.7-4.1 4.1c.2 2.5 1.4 5.4 4.1 7.5 2.7 2.2 16.7 10.9 20.4 12.2 0 .2-15.7-12.7-18.7-17.2zm-2.7 19.1c-4.5-3.2-6.8-10.8-6.8-10.8l-1.1.9s.4 7.8 1.9 9.9c1.6 2.1 12.9 10.7 16.9 11.2 2.9.4 4.9.1 6.5-.9-4.5-2.5-14-7.9-17.4-10.3zM272.6 21.6s-31.8-1.5-50.7 24-13.9 71.5-1.7 95c12.2 23.5 39.4 30 43.4 31s9 1.2 9 1.2 2-.1 4.5-.4c.3 0 8.1-.7 9.1-.2.9.4-23.6 20.8-23 21.1.6.4 9.5 10.5 9.5 10.5s19.5-17.7 19.7-18.8c.1-.8 0-11.3-.1-16.8 10.1-4 24.7-12.1 32.8-27.6 12.2-23.5 17.2-69.5-1.7-95-19-25.5-50.8-24-50.8-24z"/><path class="st7" d="M272.6 21.6h-3.7c-.5 0-1 0-1.5.1h-.4c-1.2.1-2.5.3-4 .4h-.3c-.3 0-.6.1-.9.1 0 0 13.2 15.6 14.8 30.4 1.7 14.9-.5 58.3-1.1 60.3-.7 2-2.8 4-2.8 5.5 0 1.2 2.4 6.5 3.2 10.5l-56.6-5 1.8 2.1s8 4.6 26 7.3 27.3 2.4 27.3 2.4 1.5-.1 1.8 1.8v2.2c0 10.5-.3 27.1-2.3 28.7-1.5 1.1-5.7 2.3-9.3 3.2h6.7s2-.1 4.5-.4c.3 0 8.1-.7 9.1-.2.9.4-23.6 20.8-23 21.1.6.4 9.5 10.5 9.5 10.5s19.5-17.7 19.7-18.8c.1-.8 0-11.3-.1-16.8l.4-.1h.2l.3-.1h.2l.4-.2.4-.2h.1l.4-.1h.1l.4-.2.5-.2.4-.2h.1l.4-.2h.2l.4-.2h.1l.4-.2h.1c.2-.1.4-.2.5-.3l.5-.3h.1l.4-.2.1-.1.5-.3.5-.3.1-.1.4-.2.1-.1.5-.3.5-.3.2-.1.3-.2.2-.1.5-.3c.2-.1.4-.2.5-.3h.1l.4-.3.1-.1c.2-.1.3-.2.5-.3l.4-.3.2-.1.4-.2.2-.1c.2-.1.3-.2.5-.3.2-.1.4-.2.5-.4l.1-.1.4-.3.1-.1c.2-.1.4-.2.5-.4.2-.1.3-.2.5-.4l.1-.1.4-.3.1-.1c.2-.1.3-.3.5-.4.2-.1.3-.2.5-.4l.2-.1.4-.3.2-.1c.2-.1.3-.3.5-.4h.1l.4-.4.2-.1.4-.3.1-.1c.2-.1.3-.3.5-.4.1-.1.3-.2.4-.4l.2-.2.3-.3.2-.2.4-.4.4-.4.2-.2.3-.3.1-.1c.1-.2.3-.3.4-.5l.4-.4.2-.2.3-.3.2-.2c.1-.2.3-.3.4-.5 0 0 12.9-27.2 11.3-69.9-.8-20.7-7.8-35.4-14.8-45-13.6-11.3-29.6-13.8-37.3-14.3-1 0-1.8-.1-2.5-.1h-1.3l.9.8z"/><path class="st8" d="M250.3 197.6s18.7 23.9 18.5 24.4c-.3.5-3.7-1.3-6.6.1-2.8 1.4-5.9 10.9-6.8 10.6-.8-.3-14.1-15.2-14.3-16.5s-1.8-10.1-1.4-11.1c.5-1 10.6-7.5 10.6-7.5zm43.4 0S275 221.5 275.2 222c.3.5 3.7-1.3 6.6.1s5.9 10.9 6.8 10.6c.8-.3 14.1-15.2 14.3-16.5s1.8-10.1 1.4-11.1c-.5-1-10.6-7.5-10.6-7.5zm-50.4 37.6s11.8 12.1 12.7 11.1c.8-1 6.6-8.2 7.4-9.1.9-.9 1.8-.3 1.8-.3s-8 89.2-9.2 88.5c-1.2-.6-12.7-90.2-12.7-90.2zm58.6 0s-11.5 12.1-12.4 11.1c-.8-1-6.8-8.2-7.7-9.1-.9-.9-1.8-.3-1.8-.3s10.4 89.2 11.5 88.5c1.3-.6 10.4-90.2 10.4-90.2z"/><path d="M257.7 376s1.1 22.6.7 25c-.4 2.4-.9 4.2-.3 4.4.7.2 11.7-.3 11.7-.3s-.1-13.8 0-14.3c.2-.4-12.1-14.9-12.1-14.8zm32.5 0s-1.1 22.6-.7 25c.4 2.4.9 4.2.3 4.4s-11.7-.3-11.7-.3.1-13.8 0-14.3c-.1-.4 12.2-14.9 12.1-14.8zm-29.3-152.8L246.1 206l6.3-5.7c-1.3-1.7-2.1-2.7-2.1-2.7s-10.1 6.5-10.5 7.4c-.4 1 1.2 9.8 1.4 11.1.2 1.3 13.4 16.3 14.3 16.5.7.3 3-6.5 5.4-9.4zm40.7-16.9l-18 17.8c2.2 3.2 4.3 8.8 4.9 8.7.8-.3 14.1-15.2 14.3-16.5s1.8-10.1 1.4-11.1c-.4-1-10.5-7.4-10.5-7.4s-.7.9-1.9 2.4l9.8 6.1zm.3 28.9s-5.6 5.9-9.3 9.1l-6.9 38.7c2.7 21.7 5.4 42.8 6 42.4 1.1-.6 10.2-90.2 10.2-90.2zm-46 90.3c.9.5 6.2-56.5 8.4-79.3 0 0-5.7 25.3-7.3 24.8-1.3-.4-3.7-18.5-4.9-27.3-3.7-3.3-8.8-8.4-8.8-8.4s11.5 89.5 12.6 90.2z" fill="#68748e" fill-rule="evenodd" clip-rule="evenodd"/><path fill-rule="evenodd" clip-rule="evenodd" fill="#30343d" d="M275.8 378.2l11.2-11.8-10.2-84.5 3.6 81.9z"/><path fill="#8594b5" d="M267.1 627.2L161.6 589l-10.4-21.5-67.4-24.6 1.4-2.8 70.2 24.5 8.1 15.9 103.6 38.1 103.6-38.1 8.1-15.9 70.2-24.5 1.4 2.8-67.3 24.6-10.5 21.5z"/><path class="st6" d="M308.6 401.6c-.4-1.5 1.1-24.2 2.5-45.1 1.3-18.2 2.5-34.9 2.5-34.9l15-31.5c-10.9 15.6-21.9 31-21.9 31s-1.2 17.4-2.5 36.1c-1.4 20.8-2.7 43.2-2.3 45.8.7 5 1.7 5.1 1.7 5.1h7.8c-1-2.1-2.3-4.9-2.8-6.5z"/><path class="st12" d="M48.9 79.2c19.1-7.9 41.6-.6 52.2 17.8s5.7 41.5-10.7 54.1l-3.7-6.3c12.9-10.6 16.7-29.2 8-44.2-8.6-14.9-26.7-21-42.3-15.1l-3.5-6.3zm1.6 13.9c7.8-4.5 16.9-4.9 24.8-1.9l-3.6 6.2C66 95.5 59.6 95.9 54 99.2c-10.4 6-13.9 19.3-8 29.6 1.2 2.1 2.7 3.9 4.4 5.4l-3.6 6.2c-2.7-2.2-5.1-4.9-6.9-8-7.9-13.8-3.2-31.4 10.6-39.3zm34.2 4.1c1.9 1.8 3.6 4 5 6.4 7.9 13.7 3.2 31.3-10.5 39.2-7 4-15.1 4.8-22.3 2.7l3.7-6.3c5 1 10.4.3 15.2-2.5 10.4-6 13.9-19.3 8-29.6-.7-1.3-1.6-2.5-2.6-3.6l3.5-6.3zm-4 59.4c-19.1 7.9-41.6.6-52.2-17.8s-5.7-41.5 10.7-54.1l3.7 6.3c-12.9 10.6-16.7 29.2-8 44.2 8.6 14.9 26.7 21 42.3 15.1l3.5 6.3z"/><path class="st8" d="M178.4 177.2c-11.6 7.3-19.5 15.9-19.5 15.9S177.5 183 190 179c2.9-1 5.2-1.7 6.9-2.2 3.1-5.8 5.5-10.2 5.5-10.2s-12.4 3.3-24 10.6z"/><path class="st13" d="M353.7 111.4c.6-1.2 1-2.5 1.2-3.8 1.3-8.4 1.1-20.4-.3-24.2-.1-.3-.3-.7-.4-1-1 1.6-1.8 5.2-1.8 15.8 0 10.6 1.3 13.1 1.3 13.2z"/><path class="st12" d="M190 111.4c-.6-1.2-1-2.5-1.2-3.8-1.3-8.4-1.1-20.4.3-24.2.1-.3.3-.7.4-1 1 1.6 1.8 5.2 1.8 15.8.1 10.6-1.3 13.1-1.3 13.2z"/><path class="st13" d="M342.3 100.6c-.9-2.8-2.1-6.2-2.1-6.2s-19 6.1-34.7 9c-21.4 4-45.9 4-67.3 0-15.7-2.9-34.7-9-34.7-9s-1.8 5.1-2.7 8c0 0 0 .1-.1.1s-.1-.2-.1-.2c.7-8.3-.5-17.6-.2-25.9-2.5 0-5.8 1.2-8.3 3.2 0 0 1.6-.3 2.1 3.7.4 4 0 30.3 0 30.3s0 2.2-1.9 1.5c3.6 4.9 8.8 8.5 9.2 8.8.7.4 1.2-.6 1.2-.6s-.7-14-.9-14.3c-.2-.4 2.7 4.2 4.9 7.4 2.2 3.3 2.2 4.8 24.3 8.9 25.8 4.8 56.1 4.8 81.9 0 22-4.1 22-5.7 24.3-8.9 2.2-3.3 5.1-7.8 4.9-7.4s-.9 14.3-.9 14.3.5 1 1.2.6c.4-.3 5.6-3.8 9.2-8.8-1.9.8-1.9-1.5-1.9-1.5s-.4-26.3 0-30.3 2-3.7 2.1-3.7c-1.6-1.2-3.5-2.2-5.3-2.8-1.1-9.2-3.7-30.8-4.3-33.3-.8-3.2-2.4-2.7-2.4-2.7l2.8 59.8h-.3z"/><path class="st14" d="M200.8 102.4s0 .1-.1.1-.1-.2-.1-.2c.7-8.3-.5-17.6-.2-25.9-1.5 0-3.4.5-5.2 1.3 0 0 2.2 1.4 2.6 5.7.4 4.3.2 34.7.2 34.7s0 2.7-2.2.9c2.8 2.8 5.5 4.6 5.8 4.8.7.4 1.2-.6 1.2-.6s-.7-13.5-.9-14.3l-1.1-6.5zm141.5-1.8c-.9-2.8-2.1-6.2-2.1-6.2s-19 6.1-34.7 9c-2.6.5-5.2.9-7.9 1.3 0 2.9-.6 7.5-4 13.6-2.6 4.8-5.8 8-8.7 10.1 9.6-.5 19-1.6 27.9-3.3 22-4.1 22-5.7 24.3-8.9 2.2-3.1 4.9-7.4 4.9-7.4l.3-8.2z"/><path class="st1" d="M210.2 100.2l-1.8-.5s-1.5 9.9-.7 11.2c.7 1.3 3.1 4.4 4.4 5.6 1.2 1.2 10 4.8 29.8 7.3 20.3 2.6 39.5 2.6 59.9 0 19.8-2.6 28.6-6.1 29.8-7.3 1.2-1.2 3.6-4.4 4.4-5.6s-.7-11.2-.7-11.2l-1.8.5c-39.3 13.1-83.8 13.1-123.3 0z"/><path class="st0" d="M211.9 100.7l-.7 9.5s14.3 6.2 33.8 8.1c19.6 2 26.8 1.8 26.8 1.8s7.2.2 26.8-1.8 33.8-8.1 33.8-8.1l-.7-9.5c-31.2 10-59.9 9.3-59.9 9.3s-28.7.7-59.9-9.3z"/><path class="st1" d="M226.3 94.9c-6.1-1.5-13.5-4.6-18.7-6.5 0 2.2 1.8 5.7 1.9 7.9 4.2 1.2 10.2 2.9 16.7 4.5 4 1 8.1 1.9 12 2.6.6.1 1.1.2 1.7.3 17.4 3.1 36.7 3.5 54.7 1.4 3.7-.4 7.4-1 11-1.7 3.9-.7 7.9-1.6 11.8-2.6 7.3-1.8 14.1-3.7 18.3-5 .1-2.2 2.1-6.1 2.1-8.3-5.6 2.2-13.8 5.8-20.5 7.4-7.8 1.8-16.3 3.2-25.2 4-6.5.6-13.2.9-20.2.9-10.1 0-19.8-.7-28.9-1.9-5.9-.7-11.5-1.7-16.7-3zm66.6 33c-16.9 1.5-34.7 1.1-51.2-1-3.7-.5-7.3-1.1-10.8-1.7-5.8-1.1-10-2-13.2-2.8-1.9-.5-3.4-.9-4.6-1.3l.9 3.3c.5.1.9.3 1.4.4 7.6 2.2 15.9 3.9 24.8 5.1 9.9 1.4 20.6 2.1 31.7 2.1 7.9 0 15.5-.4 22.9-1.1 12.2-1.2 23.5-3.3 33.4-6.2 1.1-.3 2.1-.6 3.2-.9.3-1.1.6-2.2.9-3.4-1.5.6-3.5 1.3-6.4 2-3.2.8-7.3 1.7-13 2.7-6.6 1.2-13.2 2.2-20 2.8z"/><path class="st8" d="M224.1 111.1l5.2-5.7c-1.2-.3-2.4-.5-3.7-.8-4.5-1.1-9.1-2.3-13.8-3.8l-.7 9.5s3.9 1.7 10.3 3.6l2.7-2.8zm25.9-2.3l-8.4 8.9-.3.3h.3c1.1.1 2.2.3 3.3.4 5.8.6 10.4 1 14.2 1.2l9-9.6c-2.2 0-5.4-.1-9.2-.4-2.6-.2-5.6-.5-8.9-.8zm25.1 1.2l-9.1 10c4.1.2 5.8.1 5.8.1h.2l.7-.7 9.2-9.7c-2.5.1-4.6.2-6.2.3h-.6z"/><path class="st2" d="M307.6 106.8l-10.7 11.8c.6 0 1.2-.1 1.8-.2 8.6-.9 16.2-2.6 22-4.2 2.8-.8 5.1-1.5 7-2.2 3-1.1 4.8-1.8 4.8-1.8l-.7-9.5c-1 .4-2.1.7-3.1 1-3.7 1.1-7.3 2.1-10.9 2.9-3.5.8-6.9 1.5-10.2 2.2z"/><path class="st14" d="M345 98.8c0 11.7-1.1 23.9-1.1 23.9 1.8-1.4 4.7-3.8 7.1-6.9.2-.3.4-.5.6-.7-.2.1-.4.1-.5.1-1.5.3-1.5-1.6-1.5-1.6s-.3-20.6-.1-28.1c-2.4 3.4-4.6 8.1-4.5 13.3z"/><path class="st12" d="M352.4 98.3c0 10.6 1.3 13.1 1.3 13.1.6-1.2 1-2.5 1.2-3.8 1.3-8.4 1.1-20.4-.3-24.2-.1-.3-.3-.7-.4-1-1 1.7-1.8 5.3-1.8 15.9z"/><path class="st14" d="M343.5 76.1l3.2.8c-.1 0-.3-.1-.4-.1-.4-3.2-.9-7.7-1.5-12.5-.1-.9-.2-1.7-.3-2.6-.6-4.6-1.1-9.1-1.6-12.6-.4-2.9-.7-5-.9-5.6-.8-3.2-2.4-2.7-2.4-2.7s1.4 1.9 1.5 4.8c0 1.2.5 6.4.9 12.3.2 2.1.3 4.2.5 6.2.6 6.4 1 12 1 12z"/><path class="st1" d="M393.7 299.4s-6.4-8-7.3-12c-.9-4 .2-40.3 1.3-45s9.5-19.3 11.2-20.9c1.6-1.6 7.8-.1 11.6 2.6s5.5 5.1 5.5 5.1 25.6-51 27.8-53.4c2.2-2.3 11.2 2.6 13.4 5.5 2.2 2.9 2.6 5.2 2.6 5.2s3.1-7.5 6.3-6.9c3.2.6 11.3 6.6 13 12.4 1.7 5.8 1 9.7 1 9.7s5.6-3.3 9.4-.7c3.7 2.6 7.1 10.6 6.8 18.8-.4 8.3-3.2 13.3-3.2 13.3s6.4.7 8 8.7c1.6 8-14.6 36.2-26.8 52.1-12.2 15.9-19.2 20.6-22.8 21.5-3.6.8-4.7.9-4.7.9s-2 13.2-17.3 16.2c-15.4 3-32.4-8.6-35.9-16.6-3.7-7.9.1-16.5.1-16.5z"/><path class="st7" d="M403.6 232.8s-5.8 11.3-6.5 14.8c-.7 3.6.8 12.8.9 23.6.1 10.9-.3 15.3.7 17.1.9 1.8 17.5 14.3 22.9 15.8 5.3 1.5 17.3-2.9 17.3-2.9l-4.4 4.3s15.2.9 20.5-3.3c5.2-4.2 26.7-32.7 32.8-44.7 6.1-12 5.1-13.5 2.9-14.2-2.2-.7-19 16.3-19 16.3s.4 5.1-.5 4.5c-.8-.6-10.2-11.2-19.6-20.1-9.4-9-15.7-11.5-15.2-11.7.6-.2 4.8.3 5.7.5.9.2.9.3.9.3s9.8-23.7 11.1-31.5c1.3-7.8-4-11.7-5.2-12.1-1.2-.4-28.6 60.3-28.5 62.1 0 1.8 1.2 10.9 1.3 11.3.1.3 8.4 9.1 10.9 15.6 2.6 6.5 2 10.9 1.5 10.5-.4-.4-2.9-9.4-9.9-15.2-6.9-5.8-10.2-6.5-10.3-7.1-.1-.7-2.3-13.7-2.4-15.4-.1-1.7 3.2-5.5.7-11.4-2.3-5.9-6.8-7.6-8.6-7.1z"/><path class="st7" d="M445 234.4s19.2-41.5 20.2-42.5c1-.9 6.4-1 7.8 7.6 1.4 8.6-12.9 38.7-12.9 38.7s-4.7 2.1-6.7 1.4c-2.1-.7-8.4-5.2-8.4-5.2zm14.8 11.2s6 6.9 6.4 7.2c.4.2 4.3 1 7.1-1.4s13.5-21.5 14.2-29.9c.7-8.4-3.2-11.2-4.2-11.3-1-.1-13.3 18.1-23.5 35.4z"/><path class="st8" d="M402.8 251.1c.5-3 6.2-16.1 6.2-16.1-2.1-1.9-4.2-2.5-5.3-2.2 0 0-5.8 11.3-6.5 14.8-.7 3.6.8 12.8.9 23.6s-.3 15.3.7 17.1c.4.7 3.2 3.1 6.8 5.8-1.2-1.8-2.2-3.7-2.4-5.1-.4-3.5-.8-34.9-.4-37.9zm46.1-61.6c-1.1-.3-22.3 46.5-27.4 59.1 1.1-.6 2.4-1.4 3.2-2.3 1.6-1.9 8.5-16.6 8.5-16.6l3.1 1.6s12.6-31.2 13.4-34.1c.8-2.9.4-7 .4-7-.6-.4-1-.6-1.2-.7zm16.3 2.4c-1 .9-20.2 42.5-20.2 42.5s2.6 1.9 5.1 3.5c0 0 17.6-36.6 18.4-39.8.8-3.2.1-6.2.1-6.2-1.5-.6-2.9-.4-3.4 0zm18.1 18.3c-1-.1-13.3 18.1-23.5 35.4 0 0 1.9 2.2 3.6 4.1 4.8-8 19.7-31.4 21.1-33.8.8-1.3 1-2.8 1.1-3.9-.9-1.2-1.9-1.7-2.3-1.8zm7.5 33.2c-2.2-.7-19 16.3-19 16.3s.2 3.1-.1 4.2c2.6-2.1 16.5-13.7 19.4-17.8.5-.7.8-1.3 1.1-1.8-.4-.4-.9-.7-1.4-.9z"/><path class="st7" d="M402 304.6s-1.6 6.6 5.9 12.6 20.5 6.7 25.7 5.4c5.2-1.3 7.3-5.9 7.3-5.9s-8.8 4-21.9 0c-13.2-4-13.7-7.5-17-12.1z"/><path class="st2" d="M393.7 348.1c.3 1.4 4.2 27.9 4.2 27.9 2.9 2.8 5.5 5 6.3 5.2 2.5.5 30.1 4.1 41.9-6.9 11.7-11.1 12.9-27.5 12.9-27.5s-9.8 8.1-32.3 7.6c-22.5-.5-29-14.9-27.6-14.1 1.3.8 21.2 8.9 40.2 5.1 19-3.8 24.1-15.7 24.5-19 .4-3.3 1.1-10.1-1-13.7-2.2-3.7-10.9-6.1-9.9-5.3 1 .8 7.3 7.3 1.3 16.5-5.9 9.3-34.9 14.1-54.3 4.1-1.8-1-3.5-2-4.9-3 2.1 2.1 4.6 5.1 5.6 8.2 1.6 5.2-2.7 5.4-7.8 4.1-2.8-.7-3.5-.1-2.7 1.5.8 1.6 2.2 2.3 2.7 4.3.6 2.1.9 5 .9 5zm-2.1-26.1z"/><path d="M387.1 297.3s-6.6 9.5-8.1 16.4c-1.5 6.9 5.5 48.3 6.3 49.3.3.4 2.6 2.9 5.5 5.8 0 0-8.1-51.2-7.9-56.6.2-5.5 5.5-15.3 5.5-15.3-.2-.4-.6-.5-1.3.4z" fill-rule="evenodd" clip-rule="evenodd" fill="#fff"/><path class="st12" d="M513.5 184.7c23.9 29.9 22 73.7-5.7 101.4-27.7 27.7-71.5 29.6-101.4 5.7l5.7-5.7c26.8 20.8 65.4 18.9 90-5.7s26.5-63.3 5.7-90l5.7-5.7zm-17.6 5.4c17.4 17.4 21.8 42.9 13.1 64.3l-7-4c6.9-18.3 3-39.9-11.7-54.7-20.1-20.1-52.7-20.1-72.8 0-1.2 1.2-2.4 2.5-3.5 3.8l-7-4c1.5-1.9 3.1-3.7 4.8-5.4 23.2-23.3 60.9-23.3 84.1 0zm4.5 79.1c-1.4 1.7-2.9 3.4-4.4 5-23.2 23.2-60.9 23.2-84.1 0-17.2-17.2-21.7-42.5-13.3-63.8l7 4c-6.6 18.3-2.7 39.5 12 54.1 20.1 20.1 52.7 20.1 72.8 0 1.1-1.1 2.1-2.2 3.1-3.4l6.9 4.1zm-106.2 10.4c-23.9-29.9-22-73.7 5.7-101.4 27.7-27.7 71.5-29.6 101.4-5.7l-5.7 5.7c-26.8-20.8-65.4-18.9-90 5.7s-26.5 63.3-5.7 90l-5.7 5.7z"/><path d="M401.1 370c-.3-.4-.7-.7-1.1-.8-.8-.2-1.6.2-2 .8h3.1zm4.8-4.6c.3-.4.7-.7 1.1-.8.7-.3 1.1-.5 1.2-1.3h-6.9c.4.8.6 1.6.8 2.2l3.8-.1zm2.4-4.7v-2.2h-9.2c.2.4.4.8.6 1.3.1.3.3.6.4.8l8.2.1zm.2-4.6c0-.8.1-1.6.2-2.2h-10.1l-.2 1.1c0 .3-.1.6 0 1l10.1.1zm.4-4.7c0-.8-.2-1.5-.5-2.2h-9.6c.6.4.6.9.4 2.2h9.7zm-1.4-4.7c-.1-.7-.2-1.5-.2-2.2h-13.1c0 .9.1 1.6.5 2.2h12.8zm.4-4.6c.1-.2.2-.4.4-.5.4-.4.7-1 .7-1.7h-16.6c.1 0 .3.1.4.1 1.6.3 1.9.4 1.7 2.1h13.4zm.8-4.7c-.2-.7-.5-1.5-.9-2.1h-23c.6 1 1.2 1.2 2.4 1.2 1.3 0 2.1.3 2.7.9h18.8zm-2-4.6v-.2c0-.4-.3-1.2-.6-2h-22.7c0 .7 0 1.5.2 2.2h23.1zm-1.7-4.7c-.2-.7-.5-1.4-.7-2.2h-27.9l.3.6c.2.6.5 1.1.7 1.5h3.4l.2-.2c1.3-1.4 1.6-1.5 2.2-.7.1.2.2.5.3 1H405zm-1.4-4.7c-.2-.7-.4-1.5-.6-2.2h-30c.4 1.1 1 1.9 1.5 2.2h29.1zm-1.1-4.6c-.1-.6-.1-1.3-.2-2.2H372c.1.7.3 1.4.4 2.2h30.1zm-.3-4.7v-2.2h-31.6c.2.5.5 1.2.7 2.2h30.9zm.2-4.7c0-.7.1-1.5.1-2.2h-41c.6.4 1.3.5 2.1.5.9 0 1.8.6 2.5 1.5v.1h36.3v.1zm.4-4.6c0-.4.1-.8.1-1.1 0-.4.1-.7.1-1h-44.4c.2.8.4 1.5.7 2.2l43.5-.1zm.9-4.7c.4-.7 1.1-1.3 2.3-2.2h-48.2c.2.7.4 1.4.5 2.2h45.4zm5.1-4.6c.6-.7 1.3-1.4 1.8-2.2H356h.1c.4 0 .5.2.3.4s0 .9.4 1.8h52zm3.6-4.7c.5-.8.9-1.5 1.1-2.2h-62.2c.4 1.2.7 1.8 1.1 2.2h60zm2.1-4.7c.4-.5 1-1.1 1.7-1.7.2-.2.4-.4.6-.5h-65.1l-.1.1c-.8.8-1.1 1.2-1 2.1h63.9zm3.9-4.6v-2.2h-63.6c-.1.1-.1.2-.2.3-.6.7-1.1 1.4-1.4 1.9h65.2zm-.5-4.7c-.1-.4-.3-.7-.5-.9-.2-.3-.5-.7-.7-1.3h-47c-.8.5-1.7 1.1-2.4 1.7-.2.2-.4.3-.5.4l51.1.1zm-1.9-4.7c-.2-.9-.4-1.6-.8-2.2h-40.8c-.1.3-.3.5-.4.8-.2.5-.5 1-.7 1.4H416zm-3.1-4.6c-.3-.6-.4-1.3-.3-2.2H379c-1.1.6-2 1.3-2.8 2.2h36.7zm.5-4.7c.1-.2.2-.5.3-.7.4-.7.5-1.2.8-1.5h-27.7c-.1.2-.3.4-.4.7-.3.6-.7 1.1-1.3 1.5h28.3zm2.3-2.1c.3.1.6.2 1 .4 1.8.7 2.1.8 3.3-.4h-4.3zm7.3-2.5c0-.4.8-1.3 1.9-2.2h-4.3c0 .1.1.3.1.4.4.6-.2 1.3-1.1 1.8h3.4zm5.3-4.7c.4-.4.7-.7.9-1.1.2-.4.5-.7 1-1.1h-9.5c-.3.7-.5 1.4-.4 2.2h8zm7.5-4.7c.4-.1.9-.1 1.3-.1 1 0 3.8-.9 6.4-2.1h-14.4c-.3 1.1-1.7 2-3.7 2-.6 0-1.1.1-1.6.2h12zm12.7-4.6c.7-.4 1.1-.8 1.1-1 0-.3.4-.6.7-.6.2 0 .5-.2.9-.6h-10.6c-.4.2-.7.4-.7.6 0 .6-3.5 1.6-5.1 1.5-.7 0-2.3-.8-3.7-1.8-.2-.1-.4-.2-.5-.4h-3.2c-.1.7.1 1.6.6 2.2l20.5.1zm4.8-4.7c.5-.7.9-1.5 1.2-2.2h-10.8c-.1.8-.4 1.5-.6 2.2h10.2zm2.5-4.7c.4-.6.9-1.3 1.4-1.9.1-.1.1-.2.2-.3h-13.5c.1.7.1 1.4.1 2.2h11.8zm3.3-4.6c.4-.7.8-1.4 1.1-1.9 0-.1.1-.1.1-.2h-18.6c.5.5 1 1.1 1.4 1.8.1.1.1.3.2.4l15.8-.1zm2.9-4.7c1.1-1.1 2.2-1.7 3-1.4.5.2.7.5.4 1.4h2.3c.3-.7.6-1.5.9-2.2h-51.3v2.2h4.1l.1-.1c1-1.7 4.8-2 6.5-.4.2.2.5.4.7.5H462zm2.6 2.5c-.3.7-.7 1.5-1.1 2.2h2.2c.4-.7.8-1.5 1.1-2.2h-2.2zm-2.7 4.7l-.3.3c-.4.3-.7 1.2-.8 1.9h1.6c.5-.6 1.1-1.3 1.7-2.2h-2.2zm8.5-11.8c.6-.7.9-1.2.7-1.2-.2 0 0-.4.6-1h-56.6c.7.7 1.2 1.5 1.6 2.2h53.7zm3.9-4.7c.3-.3.7-.6 1-.9.4-.4.9-.8 1.3-1.3h-66c.4.7 1 1.4 1.8 2.2h61.9zm4.3-4.7c.3-.4.4-.8.5-1 .1-.3.1-.7.2-1.1h-69.5c0 .8.1 1.5.1 2.2l68.7-.1zm1-4.6c.1-.7.1-1.4.2-2.2h-73.7c1 .9 1.9 1.6 2.6 1.8.2 0 .3.2.4.4h70.5zm.3-4.7c0-.8 0-1.5.1-2.2h-43.8c-.2.9-.6 1.7-1.1 2.2h44.8zm0-4.7c0-.7.1-1.5.2-2.2h-45c.1.2.2.4.3.7.2.4.4 1 .6 1.5h43.9zm.6-4.6c0-.7-.2-1.4-.5-2.2h-39.9c-.4.4-1.8.8-3 .8-1.8 0-2.3.2-2.4 1.3l45.8.1zm-1.2-4.7c0-.7.3-1.4.8-2.2h-82.7c.7.7 1.2 1.4 1.3 2.2h36.5c.4-.1.8-.1 1.1-.2.7-.2 1.5-.1 2.2.2h40.8zm3.3-4.6c.1-.1.3-.2.4-.4.8-.7 1.4-1.3 2-1.8h-35.6v.4c0 .4-.2 1.1-.6 1.7l33.8.1zm4.3-4.7c.4-.6.7-1.3 1.1-2.2h-36.1c-.1.4-.4.7-1 .8-.6.2-1 .6-1.2 1.4h37.2zm2-4.7l.2-.6c.2-.5.4-1.1.6-1.5h-62.1c-.5.8-1.3 1-3 1.3-1.7.2-2.9.5-3.9.9h26.9c.4-.3 1-.3 1.8 0l39.5-.1zm2.5-4.6c.2-.3.4-.6.4-.7 0-.2.3-.7.7-1.4h-58.1c-.2 1.3-.7 1.5-1.5.8-1-.8-2.7-.2-3.9 1.4l62.4-.1zm2.7-4.7c.8-1.1 1.5-1.4 2.6-1.4.7 0 1.7-.3 2.5-.7H470c.2.7-.1 1.3-1 1.3-.4 0-1.4-.5-2.6-1.3h-26.2c-.1.3-.2.5-.4.7-.5.7-.8.7-2.1.1-2-1.1-3.1-.6-3.3 1.4l59.7-.1zm12.1-4.7c1.4-.5 3-1.1 4.8-2 .1 0 .2-.1.4-.2h-43.9c-.1.9-.1 1.6 0 2.2h38.7zm8.8-2.1c.1.4.1.8.1 1.2 0 .3 0 .6.1.9h2.2c-.2-.5-.4-1.2-.7-1.9 0-.1-.1-.2-.1-.3l-1.6.1zm1.4-2.5c.2-.4.6-.4 1.2 0h20.7c0-.6.3-1.3.6-1.5.2-.1.2-.4 0-.7H438.4c.2.7.3 1.4.4 2.2h25.7c.3-.2.5-.4.7-.7 1.2-1.6 2.1-1.2 2.2.7h49zm3.4 2.5c.4.7.8 1.5 1 2.2h13.7c.3-1 .8-1.7 1.5-2.2h-16.2zm1.1 4.7c-.1 1 .1 1.5.9 1.8.2 0 .4.2.7.4h11.3c.1-.4.2-.7.2-1.1v-1.1h-13.1zm5.1 4.6l.1.1c1 .8 2.1 1.6 2.8 2h2.9v-.3c.1-.6.3-1.3.6-1.9l-6.4.1zm8.3-16.5c-.4-.1-.7-.2-1.1-.4-1.6-.6-2.2-.9-2.4-1.8h-94.2c.4.6.8 1.4 1.1 2.2h96.6zm-3.7-4.6c.1-.7.7-1.1 1.8-1.8.3-.1.6-.3.9-.4h-57.5c.1.2.3.5.5.9.4.5.5.9.6 1.3h53.7zm9-4.7c.3-.4.4-1 .4-1.5v-.3c0-.2 0-.3-.1-.4h-4.5c-.2.1-.4.2-.6.4-1.4.9-1.5.9-2.2 0l-.3-.3h-56.6c1.3.8 2.2 1.5 2.9 2.2l61-.1zm-9.2-4.7c0-1 .4-1.2 1.5-1.2.8 0 1.5-.3 1.5-.6 0-.1 0-.2.1-.4h-73.2c-.8.3-1.4.3-2.1 0h-39.5s0 .1.1.1c.2.2.4 1.1.4 1.8v.2h111.2v.1zm5.5-4.6c.5-.4 1-.6 1.2-.5.3.2.6 0 .6-.4 0-.3.1-.7.2-1.2h-71.2c-.1.2-.1.4-.2.7-.1.6-.4 1.1-1 1.5l70.4-.1zm1.4-4.7c-.4-.3-1-.6-1.8-1.1-.6-.3-1.2-.7-1.8-1.1h-33c-.4.2-.8.4-1.1.4-.5.1-1.5.8-2.2 1.7l-.1.1h40zm-6.1-4.7c-.7-.7-1.7-1.6-2.7-2.2h-9.1s-.1 0-.1.1c-.7.5-2.6 1.1-4 1.3-1.1.1-2.6.5-3.7.8h19.6zm-38.6 4.7c-.1-.1-.2-.3-.4-.4-.6-.7-1.4-1.3-2.2-1.8h-9.2c-.4 1.1-1.1 1.3-2.1.7-.9-.5-3.3.1-5.9 1.5h19.8zm-8.4-4.7c.1-.8-.1-1.4-.7-1.5-.8-.3-1.5.2-2 1.5h2.7zm-28.5 9.4c-1.5-1.8-1.9-2-3.8-1.6-1.2.2-2.5.7-2.9 1-.4.3-1.2.4-1.8.2-.5-.2-1.3 0-2.2.4h10.7zm-18.7 0c-.8-.4-1.5-1.1-2.1-2.2h-6.6c-.1.2-.2.4-.3.7-.2.6-.4 1.1-.7 1.5h9.7zm-2.6-4.7c0-.9.1-1.5.5-2.2h-2.6c-.1.2-.2.5-.3.7-.2.6-.4 1.1-.7 1.5h3.1zm3.1-4.7c.6-.7 1-1.5 1.1-2.2H434c0 .2-.1.4-.1.6 0 .6-.1 1.1-.3 1.5h3.9v.1zm.4-4.6c-.4-.4-1.1-.3-1.7 0h1.7zm-14.3 14s-.1-.1-.1-.2c-.6-.7-1.1-1.4-1.4-2H419c.1.8 0 1.5-.3 1.7-.1.1-.3.3-.3.5h5.2zm-2.5-4.7c-.2-.1-.5 0-.9 0h.9zm4.1 11.8c1.3.6 2.8 1 3.4.8 1.5-.4 3.2.5 2.5 1.3h35.3c-.4-.2-.6-.6-.6-1s.1-.8.3-1.1h-40.9zm3.1 4.7c.9.8 3 1.9 4.3 1.9.4 0 .9.1 1.3.3h40.4c-.6-.4-1.2-.8-1.4-1.1-.3-.4-.6-.4-1 .2-.6.9-1.4.5-2.3-1.3h-41.3zm10.9 14c.2 1.1.5 2 .7 2.1h23.4c-1.1-1-1.8-1.7-2.1-2.2l-22 .1zm-20.1 18.6c.2.7.4 1.4.5 1.8v.3h26.8c.1-.9.2-1.7.2-2.2l-27.5.1zm-1.7 4.7l-2 1.5-1.3-1.5h-31.4c.3.8.8 1.6 1.4 2.2h62c0-.6 0-1.4.1-2.2h-28.8zm-4.6-2.5c-.1-.5-.2-1.1-.2-1.8v-.3h-30.3c-.1.4-.1 1.1-.1 1.9v.3l30.6-.1zm-.2-4.7c-.2-.7-.4-1.4-.5-2.2h-24.8c0 .1-.1.2-.1.2 0 .4-.8 1.2-2 2h27.4zm-.6-4.6c0-.7 0-1.5.2-2.2H390c-.1.2-.2.4-.3.5-.4.6-.7 1.1-1 1.6l23.3.1zm.7-4.7c.2-.7.2-1.4.2-2.2h-13.6c-.4.3-.9.7-1.6 1.1-1 .6-1.8 1-2.4 1.1h17.4zm.1-4.7c0-.3-.1-.6-.1-.9l-.2-1.2h-11.3c-.1.5-.3 1-.4 1.6 0 .2 0 .4-.1.5h12.1zm-.8-4.6c-.2-1.1-.4-1.8-.5-2.2h-2c-.9.3-2.3.7-3.7.9-1.7.4-2.9.8-3.3 1.2l9.5.1zm-17.4 9.3c-.5-.2-.7-.7-.7-1.7v-.4h-1.5c-.2.5-.5 1.3-1 2.2l3.2-.1zm.3 25.8c-.1.2-.1.5-.1.9 0 .6 0 1-.3 1.3h32.4c1.5-.7 2.4-1.4 2.9-2.2h-34.9zm-5.2 4.7c-.4.5-.3 1.1.4 2.2h3.6c-.8-1.1-.8-1.3 0-1.6.8-.3 2.4.3 4.4 1.7h26.3c-.2-.2-.5-.4-.9-.5-1.1-.4-1.5-.9-.9-1.6l-32.9-.2zm11.5 4.7c.7.7 1.5 1.4 2.3 2.2h29.7c-.2 0-.3-.1-.3-.1-.1 0-.4-.9-.9-2.1h-3.9c-.1.2-.2.3-.4.3-.4 0-.7-.1-1.1-.3h-25.4zm15.9 27.9c0 .8.1 1.5.3 2.2h3.5c0-.3-.2-.6-.4-1.1-.2-.4-.3-.7-.4-1.1h-3zm-8.1 30.2c-.8-.6-1.6-1.5-2.1-2.2h-1.7c.2.5.4.9.7 1.3.3.4.4.7.4.9h2.7zm-5.8 0c-.5-.3-.9-.6-1.1-.9-.5-.7-1.3-.8-3.6-.4-1.6.3-4 .4-5.4.4-1.4-.1-2.7.3-3.9 1h14v-.1zm.2 109.7c.4.3.8.3 1.1 0h-1.1zm27.7-170.4c-.4-.9-.7-1.5-.8-1.5-.6 0-1.2.6-1.6 1.5h2.4zM69 346.1c1.5-.5 2.3-.6 2.9 0 .6.5 1.2.3 2.6-1.5H63.8c.8.8 1.6 1.5 2.2 1.8.5.3 1.9.2 3-.3zm7.4-4c.7-1 1.8-1.8 2.6-2.1.1 0 .3-.1.4-.1H60.2c.3.6.8 1.4 1.4 2.2h14.8zm4-4.7c0-1.1.2-1.8.6-2.2H58.3c.1.1.1.2.2.3.4.6.7 1.2 1 1.8h20.9v.1zm2.4-2.1c.4.2.8.5 1.3.9 1.8 1.5 2.3 1.5 3-.2.1-.3.2-.5.4-.7h-4.7zm18.8 0c2.2.9 3.3 1 5.5.8 1.8-.2 4.3 0 5.7.4 1.4.4 2.7.5 2.9.3.1-.1.3-.7.4-1.4l-14.5-.1zm15-2.5c.1-.9.4-1.8.7-2.2H56.4c0 .2 0 .3.1.5.1.5.3 1.1.6 1.7h59.5zm1.6-4.7c0-.2 0-.3.1-.5.1-.5.3-1.1.5-1.7H56.3c-.1.7-.1 1.4-.1 2.2h62zm2.1-4.7c.2-.6.2-1.1-.1-2v-.2H58.5c-.2.4-.4.7-.4.8 0 .4-.3.8-.7 1-.1 0-.3.2-.4.4h63.3zm.2-4.6c.3-.4.4-1.2.1-1.7 0-.1-.1-.3-.2-.4H63.1c-.5.4-.8.6-.9.5-.2-.2-1 .7-1.9 1.7h60.2v-.1zm-2.1-4.7c-1.1-.5-2.6-1-3.9-1.2-2.4-.4-3.9-.6-4.9-1h-42c-.3.7-.8 1.3-1.6 2.2h52.4zm-11.6-4.7c-.5-.8-1.3-1.5-1.8-1.5-.3 0-.7-.3-1.1-.6H82.4l-.6.3c-4.6 2.2-6 2.3-6.6.7-.1-.4-.2-.7-.2-1h-5.8c-.8.7-1.1 1.3-1.2 2.2-.1-.1 38.8-.1 38.8-.1zm-5.5-4.6c-.7-.6-1.1-.5-1.6-.1l-.1.1h1.7zm-6.1 0c-.6-.4-1.1-.9-1.8-1.5-.2-.2-.5-.4-.7-.6h-8.4v2.2h10.9zm-6.8-4.7s0-.1 0 0c0-.7-.7-.7-2.6 0h2.6zm-13.2 4.7c-.2-.9-.6-1.8-1.1-2.2h-.6c-.3.2-.5.5-.6.9-.1.4-.4.8-.8 1.2h3.1v.1zm192 26.8c.2-.2.4-.6.6-1h-10.7c1.8.9 3.6 1.3 5.2 1 .9-.2 1.8 0 2 .4.6.9 1.9.8 2.9-.4zm1.7-3.5c.3-.7.5-1.4.7-2.2h-18c.6.8 1.3 1.5 2 2.2h15.3zm1.6-4.7c.2-.7.4-1.5.6-2.2h-22.2l.2.4c.3.6.7 1.2 1 1.8h20.4zm1.4-4.6c.1-.2.2-.3.4-.4.4-.4.9-1 1.3-1.8h-26.7c.1.4.4 1.2.7 2.2h24.3zm2.7-4.7c.2-.7.4-1.5.5-2.2H243c0 1.1.2 1.5 1.4 2.2h30.2zm1-4.7c.2-.7.5-1.2.7-1.5.2-.2.3-.4.4-.6h-33.6c.1.5.1 1.3 0 2.2h32.5v-.1zm2-4.6c.1-.7.1-1.4.1-2.2h-41.3l.1.1c1.3 1.1 2.8 2 3.4 2.1h37.7zm0-4.7c-.1-.7-.2-1.5-.4-2.2h-42l-.8 2.2h43.2zm-1-4.6c-.2-.9-.4-1.6-.5-2.2h-39.3c-.2.7-.5 1.5-.7 2.2h40.5zm-.3-4.7c0-.2.1-.4.2-.5l.6-1.6h-39c0 .4-.1.7-.3 1.2-.1.3-.2.6-.3 1l38.8-.1zm1.8-4.7l.8-2.1h-41.4c.4.7.6 1.5.7 2.2l39.9-.1zm1.9-4.6c.5-1 .9-1.8 1.3-2.2h-47.5c.7.8 1.4 1.5 1.9 2.1H280v.1zm2.2-4.7c0-.6-.1-1.2-.2-2.2h-52.6c.7.7 1.3 1.5 2 2.2h50.8zm-.4-4.7l-.1-1.2 1.8-.4c.5-.1 1.1-.3 1.7-.6h-59.7c.5.7 1.1 1.4 1.8 2.2h54.5zm7-4.6c.1-.1.2-.3.2-.4.4-1.2 3.4-1.1 5.1 0 .2.2.5.3.8.4h4c.9-.2 1.9-.5 3-.9 1.5-.5 2.3-.5 3.5 0 2.8 1.3 4.7 1 7.2-1.3h-90.5c.3.4.7 1 1 1.5.1.2.2.4.4.6l65.3.1zm26.2-4.7c.7-.9 1.2-1.7 1.4-2.2h-83c-.3.3-.7.3-1.7.2-1.1-.1-2 .1-2 .4 0 1.3-2.2 1.9-4 1-1-.5-2.5-1.1-3.5-1.3-1.7-.4-1.8-.4-1.4 1.6v.3H315zm3.4-4.6c.1-.1.3-.2.4-.3.9-.6 1.6-1.2 2.2-1.8h-87.1c0 .5-.1 1.3-.1 2.2l84.6-.1zm3.7-4.7c.1-.7.1-1.4.1-2.2h-84v.4c0 .9-.2 1.4-.8 1.8h84.7zm-.2-4.7c-.1-.7-.1-1.4-.2-2.2h-80.6c-.4.5-.7 1-1.1 1.5-.2.2-.4.4-.6.7h82.5zm-.3-4.6v-.5c0-.6 0-1.1-.1-1.6h-78.4c-.4.7-.7 1.5-.9 2.2l79.4-.1zm-.6-4.7c-.2-.7-.5-1.5-1-2.2h-75.8v.7c0 .4 0 1-.2 1.5h77zm-2.8-4.7c-.3-.3-.6-.7-.9-1-.4-.4-.7-.7-1-1.1h-69.8c-.2.4-.4.7-.7 1.1-.3.4-.5.7-.7 1h73.1zm-3.5-4.6v-.1c-.2-.7-.7-1.4-1-1.4s-.7-.3-1.2-.7H225c-.1.5-.4 1.2-.8 2.2h20c.4-.4.8-.6 1.3-.6.7 0 1.2.2 1.5.6h67.7zm-4.4-4.7c-.5-.7-1-1.4-1.4-2.2h-32.1c-1.1.1-2 .3-2.3.4-.6.3-2.3.9-3.9 1.4-.4.1-.7.2-1 .3l40.7.1zm-2.5-4.6c-.4-1.1-.7-1.8-1.2-2.2h-4.4l-.5.1c-1.4.2-2.3.2-3.3-.1h-17.6c0 .6.2 1.2.5 1.8l.2.3 26.3.1zm-40.5 4.6c-.2-.1-.4-.3-.5-.5-1.1-1.2-2.2-1.4-3.7-.6-.8.4-1.5.8-2.3 1.1h6.5zm-22.2 0c-.5-.7-.9-1.4-1.2-2.2H111.7c.1.5.1 1.2 0 2.2h133.4zm-2-4.6c-.1-.8-.1-1.6 0-2.2H108.6c0 .5.4 1.2 1.4 2.2h133.1zm6.9-4.7h3.9c.9-.1 1-.5 1.1-1.7 0-.2 0-.3.1-.5h-33.3c.1 1.1 0 1.7-.4 2.2H250zm6.1-4.7c.3-.7-.2-1.4-1.6-2.2h-31.7c-.7.8-1 1.4-1.1 2.2h34.4zm-7.9-4.6c-1.7-.5-2.6-.4-4.5 0h4.5zm-14.1 0c-.1-.5.1-1.2.7-2.2h-9.5c-.2.4-.3.8-.3 1.1 0 .3-.1.6-.4 1.1h9.5zm2.8-4.7l.1-.1c.7-.7 1.3-1.4 1.8-2h-11.6c.1.8 0 1.5-.3 2.2l10-.1zm3.2-4.7c.2-.9 1.3-1.5 2.7-1.5.5 0 .8.5.8 1.5h3c.2-.6.6-1.1 1-1.3.8-.3 2.1.3 3 1.3h49.5c.2-.9.5-1.6 1-2.2H222c2.5.6 3.4 1.1 4.1 2.2h14zm11.8 2.6c.3.8.9 1.6 1.4 1.9.1 0 .2.1.3.2h18.8c.8-.6 1.5-1.2 1.8-1.7.1-.2.3-.4.4-.5l-22.7.1zm2.6 4.6c0 .8.3 1.5.8 2.2h11.9c.4-1 .7-1.7 1.1-2.2h-13.8zm6 4.7c.4.4.6 1.1.7 2.2h4c.5-.6.9-1.3 1.2-2.2h-5.9zm16.9-9.3v.4c0 .6-.2 1.2-.5 1.8h3.7c1.1-1.1 2-1.9 2.1-1.9s1.2.5 2.5 1.2c.5.3 1 .5 1.6.7h13.6c-.1-.4-.2-1-.3-1.7v-.4l-22.7-.1zm-2.6 4.6c-.7.6-1.6 1.1-2.5 1.6l-1.2.6h4.8c.6-.6 1.3-1.4 2.1-2.2h-3.2zm-4.3 4.7c.5.4.8.9.8 1.1v1.1h1.9c.1-.2.2-.4.2-.7.1-.4.4-1 .7-1.5h-3.6zm22.2-4.7c.3.5.4 1 .4 1.5 0 .2.1.4.2.6h16.8c0-.2 0-.4.1-.5.1-.4.1-1.1 0-1.6h-17.5zm4.1 4.7c.4.5.8 1.2 1.2 2l.1.2h11.7c.1-.5.1-1 .1-1.6v-.6h-13.1zm2.9 4.6c.5.5 1 .7 1.4.4.3-.2 1.2.2 2.2.7 1.6.9 1.8.9 3.6 0 .7-.4 1.2-.7 1.7-1.1h-8.9zm9.1-11.8h-.4.4zm-4.9-9.3c-.3-.7-1-1.6-1.7-2.2H78.5c0 .4.1.8.2 1.2 0 .3.1.6.2.9l225 .1zm-7.5-4.7c-.8-.6-1.7-1.3-2.7-2.2H78.5c-.2.7-.3 1.4-.3 2.2h218.2zm-5.4-4.6c-.4-.4-.9-.8-1.4-1.3l-.9-.9H81.9c-.3.1-.6.2-1.1.3-.6.1-1.1.7-1.6 1.9H291zm-4.8-4.7c-.9-.9-1.5-1.6-1.9-2.2h-3.1l-.1 1.1-4 .4c-3.1.3-4.3.1-5.5-.6-.9-.6-2.1-.8-3.3-.6-1 .2-1.6.2-2-.2H82.6c.2.5.3.9.4 1.2 0 .4.1.7.1.9h203.1zm-2.7-4.7v-.4c0-.8-.1-1.4-.2-1.8h-1c-.3.4-.5 1.2-.7 2.2h1.9zm-18.3 0c-.1-.3-.1-.5-.2-.8-.2-.6-.3-1.1-.4-1.4H79.8c.5.7 1 1.5 1.4 2.2h184zm-6.3-4.6c0-.2 0-.4-.1-.7 0-.6-.1-1.1-.3-1.5H75.7c.7.5 1.4 1.3 2.2 2.2h181zm-2.9-4.7c-.3-.1-.6-.2-1-.3-1.9-.6-3-1.2-3.3-1.8H52.3c.7.7 1.3 1.4 1.8 2.2l201.9-.1zm-2-4.7c1.6-.8 3.4-.8 5.5-.1l.3.1h2.3c.3-.4.4-1.1.5-2.2H24c.2.1.4.1.7.2.8.2 1.8 1.1 2.2 2h20.5c.6-.3 1-.3 1.6 0h205zm8.8-4.6c0-.8 0-1.5-.1-2.2H17.5l-.1 1.6 1.6.6h243.8zm-.9-4.7c-.2-.5-.5-1.1-.8-1.7-.1-.2-.2-.4-.3-.5h-18.1c-.5.4-1.1.6-1.5.6-.3 0-.6-.2-.8-.6H17.7c0 .5 0 1.2-.1 2.2h244.3zm-2.1-4.6c-.3-.8-.5-1.5-.6-2.2H245c-.1.4-.1.8-.1 1.3 0 .3-.1.6-.2.8l15.1.1zm3.4-2.2c.5.8.8 1.6.7 2.2h16c-.4-.7-.9-1.4-1.2-2.2h-15.5zm2.1 4.7c.7.7 1.5 1.5 2.1 2.2h17.9c-.4-.2-.8-.5-1.4-.7-.6-.4-1.3-.8-1.9-1.4l-16.7-.1zm4.6 4.6c.3.7.5 1.5.6 2.2h17.8c0-.9-.1-1.6-.4-2.2h-18zm.2 4.7c-.2.4-.4.8-.7 1.1-.2.3-.4.7-.5 1h18.7c0-.1.1-.2.2-.3.2-.2.4-1 .5-1.9l-18.2.1zm-1.7 4.7c0 .7.2 1.4.6 1.6.1 0 .3.3.5.5h9.1c.4-.5.8-.8 1.1-.8.4 0 1 .4 1.2.7v.1h4.7c.6-.7 1.1-1.5 1.3-2.2l-18.5.1zm2.6 4.6c.2.3.4.6.5.9.2.4.5.8.7 1.2h4.4c.1-.3.2-.6.2-.9 0-.4.1-.8.3-1.2H271zm6.6-25.8c-.3-.4-.6-.7-.9-.9-.4-.3-.7-.7-1-1.2h-27.1c-.3.3-.6.6-1.1 1-.6.4-1 .8-1.4 1.2h31.5v-.1zm-2.8-4.7c-.4-.7-.9-1.4-1.5-2.2h-37.6c-.4.5-.7 1.1-.9 1.7 0 .2-.1.3-.1.5h10.6c.8-.4 1.8-.7 2.9-.7.2 0 .5.3.7.7h25.9zm-3.5-4.6c-.5-.7-1.1-1.5-1.5-2.2H242c-.4.2-.7.4-1 .6-.4.4-1.3 1-2.2 1.6h32.5zm-2.9-4.7c-.6-1-1.2-1.7-1.9-2.2h-14.7l1.1 1.2h-2.2c-1.3 0-2.2.3-2.9 1h20.6zm-9.7-4.7c-1.6-.7-3-.9-5-1-2.3 0-3.5.2-3.5 1h8.5zm-23.6 16.5c.1 0 .1.1.2.2.7.5 1.6.7 2.1.5.5-.2 1.1 0 1.4.4.5.8 2.6.1 4-1.1h-7.7zm3.9 6.9c-.2-.1-.4-.3-.7-.4-.7-.3-1.8-1-2.6-1.8H14.6c.1.2.3.4.4.6.3.6.7 1.1 1.1 1.6H239zm-7.6-4.7c-1-.2-2.1-.4-3.6-.4-.6 0-.6-.9-.1-1.7h-36.9c.2.6.1 1.3-.3 2.2l40.9-.1zm-1.8-4.7c.3-.7.1-1.5-.3-2.2h-2.5v.2c0 .8-.2 1.5-.4 1.9h3.2v.1zm-7.4 0c-.1-.2-.3-.4-.4-.6-.3-.5-.8-1.1-1.5-1.6h-35.5c.1.3.2.5.3.8.2.6.4 1 .6 1.4h36.5zm-6.2-4.6c-1.7-.7-3.2-1-3.2-.2v.2h3.2zm-6.9 0c-.1 0-.2-.1-.3-.2-1-1-1.8-1.2-2.9-1-1 .3-1.7 0-2.8-1h-19c0 .7 0 1.5.1 2.2h24.9zm-15-4.7c-.2-.5-.4-1.3-.5-2.2h-8.7c-.2.7-.4 1.4-.5 2.2h9.7zm-.6-4.7c0-.7-.1-1.5-.2-2.2h-7.1c0 .7-.2 1.5-.3 2.2h7.6zm-.9-4.6c0-.2.1-.3.3-.4.4-.2-.1-.9-1.2-1.5-.1 0-.2-.1-.3-.2h-6.2c0 .1.2.3.3.4.3.3.5 1 .6 1.8l6.5-.1zm-9.4 23.3c-.6-.6-1.2-1.4-1.8-2.2H7.5c-.2.6-.4 1.1-.6 1.4-.7.8-3 .5-3-.4s-2.2-.6-3.3.4c-.2.2-.4.5-.6.7h183.2v.1zm-3.1-4.7c-.3-.7-.4-1.3-.4-1.9v-.3h-2.9c0 .8-.1 1.5-.2 2.2h3.5zm-1-4.6c-.4-1.1-1-2-1.6-2-.3 0-.6.7-.7 2h2.3zm-7.8 4.6c-.1-.1-.1-.3-.1-.4 0-.4.3-1.1.6-1.8H12.4c-.4.2-.7.2-.7.1 0-.2-.8 0-1.7.3-1.1.4-1.6.8-1.8 1.8h163.1zm1.6-4.6c.2-.6.3-1.3.4-1.8v-.3H37.6c-.3.1-.5.2-.6.2-.4 0-1.7.7-2.8 1.5-.3.2-.5.4-.7.5l139.4-.1zm.9-4.7c.4-.7.9-.9 1.9-.8 1.3.1 2.8-.5 3.9-1.3h-7.8c-.3 1-1 1-2.1.5-.3-.1-.6-.3-.8-.5H49.3c-.8 1.1-2.7 1.9-5.1 2.2H44h129.8v-.1zm7.1-4.7c.1-.7.3-1.4.4-2.2h-9.1c0 .4-.1.9-.1 1.4v.7h8.8zm.6-4.6v-2.2h-3.3c-.1.1-.3.2-.4.3-1.8.8-3 1.4-3.9 1.9h7.6zm-.5-4.7c-.4-.8-.6-.9-1.1 0h1.1zm-12.9 9.3c0-.7 0-1.5-.1-2.2H96v.1l-2.1-.1h-4c-1.4.1-2.9.4-4 .7-3.1.9-5.7.8-5.1-.2v-.5H62.1c-.3 1.1-.5 1.7-1.3 2.2h107.3zm0-4.6c.3-.6.8-1.3 1.5-2.2H96.4l-.3 1.8v.3h72zm3.5-4.7c.4-.7.4-1.1.1-1.6-.1-.2-.2-.4-.4-.6h-53.1c-1.2.9-2.1 1.1-3.4.9-1.1-.2-3.7.1-5.7.6-3.7.9-3.8.8-5.8-.6-.6-.4-1.1-.7-1.5-.9h-1.9v.1c0 .4-.4.6-.8.6-.6 0-1.2.6-1.8 1.5h74.3zm-5.2-4.6c-.2-.3-.3-.7-.4-1.1 0-.1-.2-.5-.6-1.1h-33.7c.1.1.1.2.1.3 0 .4.4 1.1.9 1.6.1.1.2.2.2.3h33.5zm-2.6-4.7c-.7-.7-1.2-1-1.6-.9-.5.2-.7.2-.5 0 .1-.1-.1-.6-.6-1.3h-35.2c.5.6 1.3 1.3 2.7 2.2h35.2zM128 109c-.7-.5-1.2-1-1.4-1.2-.7-.9-1-.9-3 0-1.1.5-2.2 1-2.5 1.3l6.9-.1zm-48.1 9.3c-.3-.7-.5-1.5-.6-2v-.2h-5c-2 1.2-4.9 1.7-5.5.7-.5-.8-3.8.1-5.2 1.3l-.1.1 16.4.1zm-24.5 4.6c-2.7-1.4-4.4-1.4-5.1 0h5.1zm-26.7 9.4v-.2c0-.5-.3-1.2-.8-1.9h-7.1c-1.1.4-2 .7-2.4.7-.6 0-1.6.6-2.2 1.3l-.1.1h12.6zM.1 144.1c.3.5.7 1.1 1.3 1.7l.4.4H6l1.7-.9c.9-.5 1.7-.9 2.5-1.3l-10.1.1zm33.8 18.7c.4.3.8.7 1.3 1.3.3.4.6.7.8.9h8.3c-.7-.7-1.2-1.5-1.6-2.2h-8.8zm9.5 4.6v.9c-.1.4-.1.9-.2 1.3h4.1c-.4-.5-.6-1-.6-1.2 0-.2-.1-.5-.4-.9l-2.9-.1zm-.5 4.7v2.2h8.6c-.4-.6-1.1-1.3-1.9-2.2h-6.7zm.3 4.6c.2.8.6 1.5 1 2.2h8c-.1-.9-.3-1.7-.5-2.2h-8.5zm4.1 4.7c.7.6 1.5 1.5 1.8 2.2h3c.1-.7.1-1.4.2-2.2h-5zm9.4-14c.4.1.8.1 1.1 0h-1.1zm22.9 28c.3.8.5 1.4.7 1.5.1.1.3.4.5.6h120.4c0-.3.2-.5.3-.7.4-.4 1.5-.8 2.4-.8 1.1 0 1.8.4 2.6 1.5h7.3c.2-1.1.7-1.5 1.9-2.1h.1H79.6zm2.7 4.7c.4.7 1 1.4 1.7 2.2h117.7c-.2-.7-.4-1.5-.5-2.2H82.3zm4.1 4.6c1.1 1 2 1.6 2.4 1.6.3 0 1.1.2 2 .5h125.1c.6-.7 1.1-1.6 1.2-2.2H206c-1.1 1.3-2.1 1.3-3 0l-116.6.1zm8.3 4.7c.4.5.7 1.2 1.2 2.2h12.7c.2-.2.5-.4.8-.4.2 0 .5.1.9.4h103.5c.1-.7.3-1.5.6-2.2H94.7zm2.4 4.6c.4.9.6 1.6.7 2.2h4.4c.1-.4.2-1.1.2-2.2h-5.3zm.2 4.7c-.4 1.1-.4 1.5.1 2.2h2.2c.1-.7.1-1.5-.1-1.8 0-.1-.1-.2-.1-.4h-2.1zm15.9-4.7c.7.7 1.1 1.5 1.1 1.8 0 .1 0 .2-.1.3h99.5c-.2-.6-.3-1.3-.2-2.2l-100.3.1zm-1.8 14c-.1.9-.4 1.6-.6 2.2h106.8c.4-1 .8-1.7 1.3-2.2H111.4zm-2.1 4.7c.1.4.4 1 .7 1.8 0 .1.1.3.2.4h99.4c1.1-.4 2.2-.7 2.9-.7 1.6 0 2.7-.4 3.7-1.5H109.3zm2.4 4.7c.5.7 1.1 1.5 1.8 2.2h80c.7-.5 1.4-.9 1.9-1.1.7-.3 2.9-.7 4.7-.9.5 0 .9-.1 1.4-.2h-89.8zm4.4 4.6c1 .8 1.9 1.3 2.6 1.5.6.1 1.5.4 2.4.7h67.6c.2-.5.9-1.3 1.8-2.2h-74.4zm16.5 4.7c.3.5.4 1.3.4 2.2h19.4c0-.1.1-.2.2-.3.6-.7 1.1-1.4 1.4-1.9h-21.4zm.1 4.6c-.2.8-.5 1.6-.9 2.2h14.5c.6-1.7 1.5-2.4 2.6-1.8s2 .4 2.3-.4h-18.5zm-2.9 4.7c-.4.7-.7 1.5-.9 2.2h10.8c.2-.3.7-.4 1.6-.4.4 0 .7.2 1 .4h3.1v-.5c0-.6.1-1.1.2-1.7h-15.8zm-1.1 4.7c.1.7.5 1.5.9 2.2h6.3l.7-.7c.5-.5 1-1 1.4-1.5h-9.3zm15.4 0c0 .4 0 .7-.2.9-.1.2-.4.6-.6 1.2h1.5c.1-.7.2-1.4.3-2.2l-1 .1zm-1.7 4.6c-.3.7-.6 1.5-1 2.2h2.3c.3-.6.5-1.3.7-2.2h-2zm-2.9 4.7c-.5.7-1.1 1.5-1.5 2.2h2.1c.7-.8 1.4-1.6 1.8-2.1l.1-.1h-2.5zm-2.7 4.6v.4c.1.1.5 0 1-.4h-1zm27.6-27.9c.7.7 1.7 1.5 2.6 2.2h17.8c.2-.3.4-.7.5-1.1.1-.4.3-.7.5-1.1h-21.4zm5.8 4.6c.6.7 1.1 1.4 1.4 2.2h11.3c.4-.7.6-1.5.7-2.2h-13.4zm2.2 4.7c.2.4.4.9.7 1.3.2.3.4.6.5.9h7c.3-.7.6-1.5.9-2.2h-9.1zm2.2 4.7c.5.7 1.2 1.5 1.9 2.2h2.7c.2-.6.4-1.4.7-2.2h-5.3zm48.3-28c-.4.9-.6 1.8-.6 2.2H241c.4-.8.8-1.5 1.2-2.2h-19.3zm-4.2 4.7c0 .9-.3 1.6-.7 2.2h20.6c.4-.7.7-1.4 1.1-2.2h-21zm-4.9 2.1c-.8-1.3-3-1.5-3-.3 0 .1 0 .2-.1.3h3.1zm-6 2.5c-.7.6-1.2 1.1-1.2 1.4 0 .2.1.4.3.8h29.3c.1-.1.1-.3.2-.4l.9-1.8h-29.5zm1.3 4.7c.8.7 1.7 1.5 2.6 2.2h21.1c.2-.3.4-.5.6-.7.4-.4.8-.9 1.2-1.5h-25.5zm7.3 4.6c.2.1.4.2.5.3.5.3 2.4.8 4.2 1.2.9.2 1.8.4 2.6.7h6.7c.1-.3.2-.7.3-1.1 0-.3.2-.7.4-1l-14.7-.1zm1.8-49.1c0-.4-1-.7-2.6-.4l-2.5.4.1-2.1h-5.7c.2.7.1 1.4-.2 2.2l10.9-.1zm11.7 111.9c.2-.4.4-.8.6-1.1.3-.4.4-.7.5-1h-7c.3.9.6 1.6.9 2.2l5-.1zm.6-4.7c-.2-.7-.3-1.5-.3-2.2h-7.5c.4.8.6 1.5.6 1.8 0 .1 0 .3.1.4h7.1zm-.3-4.6c-.2-1.1-.8-1.3-2.7-1.7-.6-.1-1.1-.3-1.5-.4h-5.4c.3.7.6 1.5.9 2.1v.1h8.7v-.1zm-5.5-4.7c-.2-.8-.6-1.6-1.1-2.2h-3.8v1.3c0 .2.1.5.1.8l4.8.1zm-157.9-5c.7-.7 1.6-1.2 2.1-1.2s2.2-.1 3.7-.2c1.1 0 2.1-.2 3-.4h-9.7c-.4.9-1 1.6-1.2 1.7-.2.1-.4.2-.4.4h2.2c0-.1.1-.2.3-.3zm14.7-4.3c.7-.5 1.5-1.1 2.2-1.7.2-.2.4-.3.5-.4H71.3c-.3.4-.6.8-.9 1.3-.2.4-.6.7-1.1.9h12.2zm6.5-4.7c.6-.2 1.1-.2 1.5-.1.3 0 .6-.6.8-1.5 0-.2.1-.4.2-.6h-3.7c-.5.4-1 .4-1.9 0h-3.7c-.3.1-.5.3-.8.5-.9.6-2.4 1.2-3.7 1.6l11.3.1zm3.6-4.6c-.4-.3-1.1-.3-1.8 0h1.8zm11.7 13.6c0-.3-.4-.6-.9-.6-1.1 0-1.1.4 0 .8.5.2.9.2.9-.2zm27.7-4.3s-.1 0-.2-.1c-1.5-.6-4.4-.5-6.6.1h6.8zm-9.3 2.5c.5.6.7.7 3.1 0h-3.1zm-9.7-7.2c.5-.6.6-1.6.2-2.2h-4.9c-.3.7-.3 1.5-.1 2.2h4.8zm-1.5-4.6c-.2-.8-.7-1.7-1.3-2.2h-2.6c-.4.3-.6.5-.4.7.2.3.7.4 1.2.2.8-.3 1.4.4 1.3 1.2l1.8.1zm-1.1 7.1c.1.6.9.6 1.4 0h-1.4zm27.2-2.8c.4-.5 1.2-.9 1.8-1 .7 0 1.5-.4 2-.9h-4.8c-.4 1-.5 1.8-.3 2.2h1c0-.1.1-.2.3-.3zm5.2-4.3c.3-.6.9-1.3 1.6-2.2h-5.2l-.1.1c-.5.4-1 1.2-1.5 2.1h5.2zm4.2-4.7c.9-.9 1.6-1.7 1.8-2.2h-1.3c-1.1.4-2.8 1.3-4.4 2.2h3.9zm-19.8 4.7c.1-.5 0-1.2-.2-2.2h-11.6c.2.8.6 1.5.9 2.2h10.9zm-1.6-4.7c-.4-.2-.8-.4-1.3-.7-1-.4-1.9-1-2.5-1.5H114c-.1.7-.1 1.4 0 2.2h10.6zm-6.5-4.7c-.1 0-.1-.1-.2-.1-1.8-1-1.8-1.1-2.9.1h3.1zm-19 7.3v-.1H98v.1c0 .4.3.6.6.6s.6-.2.5-.6zm5.1-11.9h-.6.6zm70.4-.3c0-.4-.2-1.1-.5-1.6-.1-.1-.2-.3-.3-.3h-.5c-.4.3-.5 1-.3 1.8 0 .1.1.3.2.4h1.3c.1-.1.1-.2.1-.3zM109.4 257c.1-.3.2-.6.2-.9h-2.5c-.1.4-.2.6-.2.8 0 .2 2.4.4 2.5.1zm.3-3.5c-.1-.5-.2-.9-.4-1-.4-.3-.6-.2-.3.3.2.4.2.7-.1.7h-.1.9zm254.3-4.6c0-.2 0-.4-.1-.5-.3-.8-.4-.7-1.3 0l-.4.4 1.8.1zm-236.7 0c-.2-.1-.5-.2-.8-.2s-.5.1-.7.2h1.5zm278.4-4.7c-.6-.8-2.9-1.7-3.9-1.3-1.1.4-1.1.5.1 1.3h3.8zm-295.8-.6c0-.5-.3-.9-.6-.9s-.6.4-.6.9c0 .3.1.5.2.7h.8c.1-.3.2-.5.2-.7zm308.1-4l.3-.3c.7-.7 1.6-.9 3-.7 1.1.2 2 .1 2-.2 0-.3-.2-.6-.4-.6-.3 0-1-.2-1.7-.4h-6.4c-.5.5-2.3 1.3-4 1.9-.2.1-.4.1-.6.2l7.8.1zm-9 2.5c.4.1.8.3 1.3.4 2.4.6 2.7.5 2.7-.4h-4zM84.9 223.6s0-.1.1-.2h-5c.5.3 1.2.5 2.2.7 1.8.3 2.5.1 2.7-.5zm2.7-2.7c-.5-.7-1.6-1.1-3.4-1.2-.2 0-.7-.4-1.5-1h-4.2c.4.7.6 1.6.7 2.2h8.4zm-7.6-4.7c-1.5-1.5-2.8-2.3-3-2-.2.4 0 1 .4 1.5.1.2.2.3.3.4l2.3.1zm194.7-2.1c-.4.4-.4.8 0 .8s.7-.4.9-.8h-.9zm9.2-3.8c0-.5-.1-.9-.2-.9s-.4.4-.6.9c-.2.5-.1.9.2.9s.6-.3.6-.9zm-207.1-3.4c.3-.3.3-.7.1-1.3-.1-.3-.2-.6-.3-.8h-3.2c-1.5.6-2.2 1.6-.7 1.6.5 0 .9.2.9.5h3.2zm-2.5-9.3c.1-.6.1-1.3.2-2.2h-2.6c.5.9.7 1.6.7 2.2h1.7zm.3-4.7v-2.2H72c-.2.4-.3.7-.5 1-.3.5-.5.8-.5 1.2h3.6zm0-4.6v-2.2H73c-.1.5-.1 1-.2 1.6 0 .2 0 .4-.1.6h1.9zm-.3-4.7c-.2-1.5-.5-1.5-.8 0h.8zm307.6 8c.2-.5.6-.8.9-.6.2.1.6 0 .9-.2h-6.3c.1 1.8 3.9 2.5 4.5.8zm1.9-3.3c-.1-.1-.2-.3-.3-.5-.4-.7-1-1.4-1.4-1.7h-1c-.6.4-1.5 1.3-2.2 2.2h4.9zm-81.3-4.7c-.1-.7-.2-1.4-.2-1.8v-.4h-6.1c-.2.7-.3 1.5 0 2.2h6.3zm-1.2-4.7c-.1-.7.1-1.6.5-2.2h-3.1c-.3.5-.5 1-.6 1.4 0 .3-.1.5-.3.7l3.5.1zm2.2-4.6c.2-.9.7-1.8 1.2-2.2h-3.5c0 .7-.3 1.4-.9 2.2h3.2zm1.9-4.7c-.1-.6-.3-1.2-.6-1.7-.1-.2-.3-.4-.5-.4h-2.6c-.3.1-.4.3-.6.6-.1.3-.2.9-.1 1.6l4.4-.1zm-3.5 16.5c.5.2.8.4.9.6.2.3.3 0 .2-.6h-1.1zm8.1-7.2c-.4-.8-.9-1.6-1.4-2.2h-1.3c0 .5 0 1.1.1 1.8v.3l2.6.1zm-1.5 2.5c.3.2.5.4.9.6l1.8.9-.3-1.5h-2.4zm182-4.6c0 .4.3.7.6.7s.5-.3.6-.6l-1.2-.1zm-121-21.2c.3-.6.5-1.3.8-2.2h-11c.1.7.4 1.4.8 2.2h9.4zm1.6-4.6c.2-.7.4-1.4.7-2.2H357c.4.6.8 1.1 1.2 1.5.3.2.6.5.7.7h12.2zm1.4-4.7l.6-2.1h-18.7c.5.6.9 1.3 1.2 2.2l16.9-.1zm1.5-4.7c.3-.7.5-1.2.6-1.3.2-.2.3-.5.4-.8h-25.6c.4.6.9 1.3 1.4 2.1l.1.1H374v-.1zm1.1-4.6c-.1-.7-.3-1.5-.5-2.2h-29.3c.6.4 1.3 1.1 2.2 2.2h27.6zm-1.5-4.7c-.1-.1-.2-.3-.3-.4-.4-.7-.8-1.3-1.1-1.8h-34.7c1.2.5 2.5 1.3 3.5 2.2h32.6zm-1.8-4.6c.2-.5.7-1.1 1.5-1.7.2-.1.4-.3.5-.4H333c-1 0-1.4.4-1.4 1.1 0 .4.1.7.2 1.1l40-.1zm3.6-4.7c.2-.7.1-1.2-.3-1.5-.4-.2-1.2.1-1.8.7s-1.3.9-1.5.7c-.3-.3-.3-1.1-.1-2.1h-34c.3.2.6.3.8.2.9-.4 2.4 1 1.8 1.6-.1.1-.5.3-1 .3h36.1v.1zm-2.6-4.7c.1 0 .2-.1.3-.1.5 0 1.1-.5 1.4-1 .5-.8.7-.9 1.5-.3 1.1.9 1.7.6 2-.8h-46.9c-.7.7-1.3 1.4-1.6 2.2h4.6c.5-.4.8-.7 1-.7.1 0 .4.3.7.7h37zm5.3-4.6c0-.8.1-1.5.2-2.2h-44.2c0 .2 0 .4.1.7.1.7.2 1.1 0 1.5h43.9zm1.5-4.7c.3-.6.5-1.3.6-2.2h-50.8c.8.1 2.4.2 5.3.4 1.6.1 2.3 1 1.8 1.8h43.1zm.7-4.7c.1-.9.2-1.8.4-2.2h-53.8c-.2.3.2 1 1.1 1.8.1.1.2.2.3.4h52zm-50.8 16.5c.5.9 1.5 1 2.2 0h-2.2zm32.4 37.3c.3.2.6.4.8.4.7 0 2-.1 3.1-.4h-3.9zm39.6-7.1c.4-.5.9-1.2 1.6-2.2h-6.2v.2c0 .3-.6 1-1.3 1.5-.2.1-.4.3-.5.5h6.4zm3.4-4.7c1-1.1 1.7-1.2 3.3-1.3 1.3 0 2.3-.4 2.9-.8h-18c0 .5-.1 1.2-.4 2.2l12.2-.1zm6.8-4.7c-.5-.9-1.6-1.8-3.3-2.2h-21.6c0 .2-.1.4-.2.5-.4.7-.4 1.2-.3 1.7h25.4zM405 137v-.5c0-.5 0-1.1.1-1.6h-14.2c-.6.4-1.3.8-1.9 1.1-.9.4-1.5.7-1.8 1.1H405v-.1zm1.1-4.7c.1-.1.3-.1.5 0h5.7c-.2-.9-1.7-1.5-4.2-1.6-.7 0-1.2-.3-1.3-.5h-9.4c-.3.3-.9.6-1.9 1-.7.3-1.5.7-2.2 1.2l12.8-.1zm3.3 2.5c.2.1.4.1.7 0h-.7zm.9-7.1c.3-.2.5-.5.6-.7.2-.5.7-.7 1.3-.5.6.2.9 0 .9-.6 0-.1 0-.2.1-.4h-15.9c-.3.6-.4 1.1-.4 1.6v.6h13.4zm12-4.7c.6-.3 1.3-.8 2.2-1.5.3-.2.5-.4.8-.7h-23.4c-.9.4-1.9 1.2-2.9 2.2h23.3zm5.6-4.7c.1-.4.2-1.2.2-2.2h-24.4c-.1.6 0 1.3.1 2.2h24.1zm.1-4.6c0-.9-.1-1.6-.2-2.2h-4.6c-.1.9-1 .9-2.2 0h-3.6c-.6 1.1-1.1 1.8-1.9 2.2H428zm-1.1-4.7c-.2-.3-.5-.6-.9-1-1.6-1.4-1.7-1.4-2.5-.3-.3.4-.4.8-.5 1.3h3.9zm-8.1 0l-.1-.1v.1h.1zm-26.7 39.8c0 .4.2.7.4 1 .6.6.9.5 1.5-.3.2-.3.5-.5.8-.7h-2.7zm31.1.1l.1-.1H420c.1.1.2.2.2.3l1 1.2 2-1.4zm1.9-2.6c-.1-.6-.4-1.3-1.1-2.2h-5.3c-1.4.7-1.8 1.4-1.9 2.2h8.3zm-94.6 0c.2-.4.2-1 .3-2v-.1h-13.7c.4.6 1.1 1.2 2.2 2.2l11.2-.1zm.2-4.7c-.3-.9-1.1-.9-2.7-.4-.7.2-1.2.4-1.5.4h4.2zm-4.5 0c-.3 0-.5-.1-.7-.4-.2-.4-1.6-.8-3.1-1.1-2.3-.3-2.9-.2-4.4 1.2-.1.1-.2.1-.2.2l8.4.1zm-3.6 7.2c.4.1.7.1 1 0h-1zm-101.3-18.4v-.2h-1.4c.3.5 1 .7 1.4.2zm241.8-2.8c1.8-.8 2.8-1.5 3-2.1h-19.7c0 .5.1 1.1.4 1.6.1.2.1.4.2.5h16.1zm-1.6-4.6c-.5-.3-.7-.6-.7-.9 0-.8.7-.9 3.8-.7l3.8.2v-.7h-18.7c-.3.2-.6.5-.9.7-.7.4-1.2.9-1.6 1.5l14.3-.1zm6.7-4.7c0-.9-.1-1.5-.2-2.2h-14.3c-.3.2-.5.4-.8.6-.7.4-1.3 1.1-1.7 1.6h17zm-1.1-4.6c-.7-1.1-1.9-1.6-4-2-.2 0-.4-.1-.6-.1h-2.9c-.2.1-.4.4-.6.6-.5.6-1.7 1.3-2.6 1.5h-.1 10.8zm-25.2 14c-.1-.5-.7-1-1.5-1-.7 0-1.6.4-2.2 1h3.7zm-230.2-5.2c.3-.3 1.4-.7 2.4-.7.8-.1 1.5-.4 1.9-.9h-5.3c-.3 1.5-.4 2-.2 2.2h.5c.2-.2.5-.4.7-.6zm4.9-4.2c-.1-.4-.3-.8-.7-1.2-.3-.3-.5-.6-.7-1h-3.7c0 .5-.1 1-.3 1.6l-.1.6h5.5zm-1.9-4.6c-.1-.4-.4-.8-.6-1.1-.7-.9-1-1-2.1-.4-.7.5-1 .8-.8 1.4h3.5zm-198.9 7.5l.4-.4h-3.5v.1c0 1.4 1.7 1.6 3.1.3zm461.6-3.4c.5-.4 1.1-.9 1.4-1.6h-7.4c.4.5.8.9 1.2 1.1 2.9.7 4.2.9 4.8.5zm2.3-4.1v-.6c-.2-.8-.5-1.5-.7-1.5-.1 0-.1 0-.2-.1h-11.3c.1.1.2.1.3.2.7.6 1.5 1.3 2.2 1.9h9.7v.1zm-1.9-4.7c-.1-.7-.1-1.4-.1-2.1v-.1h-11.3c-.7.8-1.3 1.6-1.3 2.1l12.7.1zm-1.4-4.7c-1-.4-2.6-.4-5.1 0h5.1zm-33.5 12.9c.2-.2.4-.6.4-1.1h-3.7c1 1.6 2.4 2.1 3.3 1.1zm2.6-3.5l1.8-1-1.4-.9-.3-.3H440c-.2.5-.5.9-.8 1.1-.5.4-.7.6-.7 1l7 .1zm-1-4.7c0-1-.4-1.1-1.9-.9-1.2.1-1.7.3-1.9.9h3.8zm-8.1 2.7v-.2h-4.3c.5.4.9.8 1.1 1.1.9 1.5 2.8 1 3.2-.9zm1-2.7c.1-.6-.2-1.5-.6-2.2h-6.6c-.3.1-.5.1-.6.2-.7.2-.6 1.1-.1 2h7.9zm-22.6 0c.4-.5.5-1 .5-1.5 0-.3 0-.5-.1-.7h-1.6c-.2.2-.5.4-.7.6-.9.7-1.6 1.1-1.6.8s-.4-.1-.9.3c-.2.1-.3.3-.4.4h4.8v.1zm-3.7 2.5h.1-.1zM77 109c.3-.7-.6-1.8-1.7-2.2h-1c-.8.3-1.4 1.4-1.1 2.2H77zm134.9-1.3c0-.3-.1-.6-.2-.9h-2.3c.3.2.6.5 1 .7 1.3.9 1.5.9 1.5.2zm-1.3-3.4c0-.2-.1-.4-.1-.6-.1-.5-.2-1.1-.3-1.5h-4.9c.8.7 1.6 1.5 2.2 2.2h3.1v-.1zm215.4-1.5c.4-.2 1-.4 1.6-.7h-7.2c.2.1.4.2.6.4 2.3 1.4 2.6 1.4 5 .3zm-9.6-.6c.3.2.6.2 1 0h-1zm44.7 0c.1 0 .2.1.3.2 1 .7 1.2.8 1.1-.2h-1.4zm-382.4 0c.6.8.8.8 2.3 0h-2.3zm356.3 0h.4-.4z" fill="#c5fff4" fill-opacity=".502"/><path class="st17" d="M184.8 430c0 2.2-1.3 3.5-3.9 3.5h-10.7v7.3h-4v-19.2h14.7c2.7 0 3.9 1.1 3.9 3.4v5zm-3.8-1.4v-2c0-1-.3-1.6-1.1-1.6h-9.7v5.1h9.7c.7-.1 1.1-.6 1.1-1.5zm30.6 12.2h-5.2l-6.5-7.3h-3.7v7.3h-4v-19.1h15c2.7 0 3.9 1.1 3.9 3.4v5.3c0 1.7-.7 2.7-2 3.4h-4.3l6.8 7zm-4.4-12v-2.4c0-1-.3-1.5-1.1-1.5h-9.9v5.3h9.9c.8 0 1.1-.5 1.1-1.4zm34.4 7.5c0 1.8-.3 2.9-.9 3.6-.7.7-1.8.9-3.5.9h-12.8c-1.7 0-2.8-.3-3.5-.9-.7-.7-.9-1.8-.9-3.6v-10.1c0-1.8.3-2.9.9-3.6.7-.7 1.8-.9 3.5-.9h12.8c1.7 0 2.8.3 3.5.9.7.7.9 1.8.9 3.6v10.1zm-4.2.8v-12H224v12h13.4zm50.8 3.7h-17.6v-19.2h4v15.6h13.5v3.6h.1zm26.6 0h-3.9l-2.2-4.3h-11.5l-2.1 4.3h-4l9.9-19.2h3.9l9.9 19.2zm-8-7.6l-3.9-7.9-3.9 7.9h7.8zm33.2 3.9c0 2.5-1.7 3.7-5.2 3.7h-13.2v-19.2H336c2.7 0 3.9 1.2 3.9 3.7v2.4c0 1.9-1 2.9-3 3.3 2.1.3 3.1 1.6 3.1 3.7v2.4zm-3.9-9.2v-2.1c0-.7-.7-1-1.9-1h-8.9v4.5h8.9c1.3-.1 1.9-.5 1.9-1.4zm.1 8.1v-1.7c0-.8-.1-1.2-.4-1.5-.3-.2-.9-.3-1.6-.3h-8.9v4.8h8.9c.7 0 1.1-.1 1.6-.3.2-.1.4-.5.4-1zm32.9.2c0 1.8-.3 2.9-1 3.6s-1.9.9-3.5.9h-10.9c-1.9 0-3-.3-3.7-1-.6-.7-.9-2.1-.9-4.5h4v1.8h12.1v-4.4H354c-1.7 0-2.9-.3-3.5-.9-.7-.7-.9-1.9-.9-3.6V426c0-1.8.3-2.9.9-3.6.7-.7 1.8-.9 3.5-.9h14.6v3.4h-15.4v4.2h11.3c1.7 0 2.9.3 3.5.9.7.7 1 1.8 1 3.6l.1 2.6z"/><path class="st5" d="M348.6 524.9h17.8v17.5h-17.8z"/><path class="st2" d="M324.5 534.1h12.2v12.1h-12.2zm21.8 19.9h8.7v8.7h-8.7zm35.2-23.5h10.6v10.3h-10.6z"/><path class="st5" d="M414.4 525.9h7.5v7.5h-7.5zm-89.9 41h8.9v8.6h-8.9zm-137.9-42H169v17.5h17.6z"/><path class="st2" d="M210.9 534.1h-12.4v12.1h12.4zM189.1 554h-8.9v8.7h8.9zm-35.2-23.5h-10.6v10.3h10.6z"/><path class="st5" d="M120.9 525.9h-7.5v7.5h7.5zm90 41H202v8.6h8.9z"/><path class="st17" d="M301.5 546.4c0-.8-.4-1.6-1-2.1l-.1-.1c-.1-.1-.2-.2-.3-.2l-29.9-17.3c-.1 0-.1-.1-.2-.1-.4-.2-.9-.3-1.4-.3-.2 0-.5.1-.7.2-.2.1-.4.1-.5.2l-30 17.3c-.9.5-1.4 1.4-1.4 2.4v34.7c0 1.1.6 2 1.5 2.4l29.9 17.3c.1 0 .1.1.2.1s.2.1.3.1c.1 0 .2.1.3.1h1.4c.1 0 .2 0 .3-.1.1 0 .2-.1.3-.1.1 0 .1-.1.2-.1l29.9-17.3c.9-.5 1.5-1.4 1.5-2.4l-.3-34.7c0 .1 0 .1 0 0zm-53.8-1.1l20.4-11.8c.4-.2.9-.2 1.3 0l20.4 11.8c.9.5.9 1.8 0 2.3l-20.4 11.8c-.4.2-.9.2-1.3 0l-20.4-11.8c-.9-.6-.9-1.8 0-2.3zm17.5 44.7c0 1-1.1 1.6-1.9 1.1L243 579.4c-.4-.2-.6-.7-.6-1.1v-23.5c0-1 1.1-1.6 1.9-1.1l20.3 11.7c.4.2.6.7.6 1.1V590zm30-11.8c0 .5-.2.9-.6 1.1L274.3 591c-.9.5-1.9-.1-1.9-1.1v-23.5c0-.5.2-.9.6-1.1l20.3-11.7c.9-.5 1.9.1 1.9 1.1v23.5z"/><path d="M100.4 511.6H85.9c1-2.6 1.9-5.2 2.9-7.9s2-5.2 3-7.9H63.5c-1.1 2.6-2.3 5.2-3.4 7.9-1.2 2.6-2.3 5.2-3.4 7.9H42.3c3.4-7.1 6.7-14.1 10-21.2s6.6-14.2 10-21.2c5.2-4.1 10.3-8.2 15.4-12.3h32.2c1.7 4.1 3.5 8.2 5.4 12.3-2.5 7.1-5 14.2-7.5 21.2-2.6 7.1-5 14.2-7.4 21.2zm-4-27.7c1-2.4 1.9-4.9 2.8-7.4.9-2.4 1.9-4.9 2.8-7.4H75.4c-1 2.4-2.2 4.9-3.3 7.4-1.1 2.5-2.1 4.9-3.3 7.4h27.6zm83-10.1c-2.7 3.3-5.4 6.5-8 9.8-2.7 3.3-5.5 6.5-8.2 9.8h-32.5c-.9 3.1-1.8 6.1-2.7 9.2-.9 3.1-1.8 6.1-2.7 9.1h-14.5l9-27.3c3-9.1 6.1-18.2 9-27.4h44.4c1 2.8 2 5.6 3 8.5 1 2.6 2.1 5.4 3.2 8.3zm-14 1l-2.1-5.7h-25.4c-1.2 3.9-2.4 7.9-3.5 11.8h26c1.7-2 3.4-4.1 5-6.1zm69.9-18c-3.5 4.1-7.1 8.2-10.7 12.3h-13c-1 7.1-1.9 14.2-2.9 21.2s-1.9 14.2-2.8 21.2h-14.4c1.1-7.1 2.3-14.1 3.5-21.2 1.2-7.1 2.3-14.2 3.5-21.2h-13c-2.4-4.1-4.8-8.2-7.1-12.3h56.9zm57.2 42.5l-10.2 12.3h-44.9c.6-9.1 1.2-18.2 1.9-27.3.7-9.1 1.3-18.2 1.9-27.3 0 0 .1 0 .1-.1H254c-.2 7.1-.6 14.2-.8 21.2-.3 7.1-.6 14.2-.9 21.2h40.2zm62.4 12.3h-14.5c-.4-2.6-.7-5.2-1.1-7.9-.4-2.6-.7-5.2-1.1-7.9h-28.3c.2 2.6.4 5.2.7 7.9.2 2.6.5 5.2.7 7.9h-14.5c-.4-7.1-.7-14.2-1.1-21.2s-.7-14.2-1.1-21.2c3.1-4.1 6.1-8.2 9-12.3h32.2c3.8 4.1 7.8 8.2 11.8 12.3 1.2 7.1 2.4 14.2 3.6 21.2s2.5 14.1 3.7 21.2zm-18.5-27.8c-.3-2.4-.7-4.9-1-7.4-.3-2.4-.7-4.9-1-7.4h-26.6c.2 2.4.4 4.9.6 7.4.2 2.4.4 4.9.6 7.4h27.4zm85.1 11c-.9 2.8-1.9 5.6-2.7 8.4-.9 2.8-1.9 5.6-2.8 8.4h-50.7c-1.7-9.1-3.5-18.2-5.3-27.3-1.7-9.1-3.5-18.2-5.3-27.4h45.1c2.4 2.8 4.9 5.6 7.3 8.4 2.5 2.8 5.1 5.6 7.7 8.4-1 3.5-2 7.1-3.1 10.6 3.1 3.4 6.5 6.9 9.8 10.5zm-21.4-21.1c-1.6-1.5-3-3.1-4.5-4.6h-25.4c.7 3.2 1.4 6.5 2.1 9.6h26c.6-1.7 1.1-3.3 1.8-5zm6.1 21.1c-1.6-1.7-3.2-3.3-4.8-5h-26.6c.7 3.1 1.4 6.3 2.1 9.5H404c.7-1.5 1.4-3 2.2-4.5zm86.8 0l-1.5 8.4c-.5 2.8-1 5.6-1.6 8.4h-55.7l6.3-12.3H476c.5-1.5.9-3 1.4-4.5-1.8-1.7-3.7-3.3-5.5-4.9h-34.8c-2.7-2.7-5.3-5.4-7.9-8.1-2.5-2.7-5.1-5.4-7.6-8.1.7-2.8 1.4-5.6 2-8.4.7-2.8 1.4-5.6 2-8.4H475c-1.3 4.1-2.7 8.2-4.1 12.3h-33.3c-.5 1.6-1 3.1-1.4 4.7 1.7 1.7 3.4 3.3 5.1 5h34.1c2.8 2.7 5.7 5.4 8.6 8 3 2.5 6 5.2 9 7.9z" fill="#fff"/></svg>