<svg width="1440" height="875" fill="none" xmlns="http://www.w3.org/2000/svg"><path fill-rule="evenodd" clip-rule="evenodd" d="M-136.991 431.561l-6.092-.148-37.046-39.449 13.925.337 29.407 31.311-.194 7.949zm-165.708-35.797l-14.831-.359.358-14.832 14.832.359-.359 14.832zm232.715 37.417l-48.195-1.165.212-8.751-17.758-.43-29.709-31.635-.189-.201-134.888-3.261.211-8.749-18.813-.454-.455 18.813 18.813.454.211-8.748 118.568 2.866 37.046 39.449-104.075-2.517-.031 1.314 112.012 2.709-.212 8.749 18.814.455.212-8.75 47.643 1.152 45.075 48.017 29.006.702-.1 4.045 9.408.228.098-4.06 39.157.947-.212 8.749 18.815.455.454-18.814-18.815-.455-.21 8.75-39.157-.946.097-4.033-9.406-.227-.099 4.046-28.454-.688-45.075-48.016zm196.66 73.143l14.83.358-.359 14.831-14.83-.359.359-14.83zm-59.99 6.627l57.806 1.397-.213 8.749 18.812.456.456-18.814-18.813-.455-.212 8.749-57.804-1.397-.032 1.315z" fill="#141D2B"/><path fill-rule="evenodd" clip-rule="evenodd" d="M130.737 516.947l6.208.152.15-6.21-6.208-.15-.15 6.208zm-298.399 35.908l-18.307-.443 46.016-44.499 18.307.443-46.016 44.499zm-26.704-103.213l-.455 18.814 18.814.454.212-8.75 90.783 2.194 40.654 43.309-.078 3.245-96.037-2.322-47.342 45.782-90.783-2.196.212-8.75-18.814-.455-.455 18.814 18.814.455.212-8.75 111.484 2.696 47.343-45.781 75.333 1.851-.097 4.016 9.406.228.097-4.006 90.36 2.185.031-1.314-90.359-2.191.099-4.082-8.351-.201-41.147-43.833-91.334-2.208.212-8.75-18.814-.454zm252.159 59.33l-.15 6.209 6.21.151.15-6.21-6.21-.15z" fill="#141D2B"/><path fill-rule="evenodd" clip-rule="evenodd" d="M52.548 547.591l14.83.359.359-14.832-14.83-.358-.36 14.831zm-126.71 35.773l-14.803-.357 46.017-44.5 14.802.357-46.015 44.5zm-183.79 43.505l.358-14.83 14.831.358-.357 14.831-14.832-.359zM50.75 539.47l-94.215-2.291-47.343 45.783-30.996-.747.193-7.957 35.516-34.347 5.228.128.15-6.209-6.209-.15-.13 5.33-35.597 34.427-17.752-.43-.212 8.754-45.289-1.093-.031 1.314 45.288 1.092-.192 7.946-30.883 29.854-69.209-1.67.212-8.75-18.813-.455-.455 18.814 18.814.455.211-8.75 69.758 1.683 31.401-30.355 17.758.43.212-8.748 48.193 1.164 47.343-45.783 77.017 1.875-.211 8.751 18.813.454.455-18.814-18.813-.454-.212 8.749zm964.66-8.683l14.83.359-.36 14.83-14.83-.359.36-14.83zm-59.989 6.626l57.809 1.398-.22 8.75 18.82.455.45-18.813-18.81-.455-.21 8.748-57.807-1.397-.032 1.314z" fill="#141D2B"/><path fill-rule="evenodd" clip-rule="evenodd" d="M1019.47 541.411l6.21.151.15-6.21-6.21-.15-.15 6.209zm-298.398 35.907l-18.308-.443 46.016-44.499 18.307.443-46.015 44.499zm-26.703-103.214l-.455 18.814 18.814.456.212-8.751 90.782 2.195 40.655 43.307-.078 3.246-96.037-2.322-47.342 45.782-90.783-2.196.212-8.75-18.814-.455-.456 18.815 18.815.455.212-8.75 111.484 2.695 47.343-45.781 75.333 1.852-.097 4.014 9.407.228.096-4.005 90.359 2.185.032-1.314-90.359-2.191.098-4.082-8.351-.201-41.147-43.832-91.332-2.208.211-8.751-18.814-.455z" fill="#141D2B"/><path fill-rule="evenodd" clip-rule="evenodd" d="M723.592 508.345l7.797.183-19.645 18.998-7.793-.188 19.641-18.993zm-87.722 45.894l-14.83-.359.358-14.831 14.831.359-.359 14.831zm1.459-16.797l-17.874-.432-.454 18.813 18.812.455.433-17.893 11.67-11.119 62.347 1.589 20.974-20.284 55.49 1.31-.059 2.445 6.209.151.15-6.208-6.209-.151-.059 2.448-65.41-1.542-.275-.007-20.966 20.277-52.705-1.356-12.074 11.504zm309.198-4.007l-.15 6.209 6.21.151.15-6.211-6.21-.149zM722.531 416.764l29.404 31.312-.192 7.948-6.092-.147-37.046-39.449 13.926.336zm-151.323 3.103l14.83.359.359-14.83-14.831-.359-.358 14.83zm17.226-16.414l-18.813-.455-.455 18.813 18.814.455.211-8.75 118.567 2.866 37.047 39.45-104.075-2.515-.032 1.313 112.013 2.708-.212 8.75 18.814.455.211-8.75 47.645 1.152 45.074 48.017 29.005.7-.098 4.047 9.406.228.098-4.061 39.158.948-.212 8.749 18.814.455.455-18.814-18.814-.455-.212 8.75-39.156-.947.097-4.033-9.407-.227-.098 4.047-28.455-.688-45.074-48.017-48.194-1.165.211-8.75-17.757-.43-29.71-31.635-.188-.201-134.889-3.26.211-8.75z" fill="#141D2B"/><path fill-rule="evenodd" clip-rule="evenodd" d="M581.979 409.602l-6.209-.15-.151 6.21 6.21.15.15-6.21zm54.649 41.812l-4.968-.121-.12 4.967 4.968.12.12-4.966zm34.472 34.692l6.21.149.15-6.209-6.21-.149-.15 6.209z" fill="#141D2B"/><path fill-rule="evenodd" clip-rule="evenodd" d="M583.104 453.261l46.027 48.56-13.924-.344-46.019-48.553 13.916.337zm83.713 37.01l14.829.358.359-14.831-14.83-.358-.358 14.831zm-318.812-4.962l-.15 6.211 5.276.127 20.814 22.173 96.036 2.321-.098 4.046 8.414.204 22.362 23.819 25.02.605 27.946 29.769 24.319.588-.043 1.826 4.966.121.121-4.968-4.968-.12-.043 1.826-23.77-.574-26.683-28.423 64.468 1.558-.212 8.75 18.814.455.455-18.813-8.758-.212.719-29.323-44.24-46.675.192-7.923 8.371.202 47.294 49.899 39.015.963 12.074-11.505 17.874.432.454-18.813-18.811-.455-.213 8.782-29.117-.692.043-1.825-4.968-.12-.119 4.967 4.967.12.045-1.828 29.118.692-.189 7.798-11.67 11.119-22.146-.547-46.027-48.561 43.485 1.049.032-1.315-69.481-1.676.212-8.753-18.814-.455-.455 18.814 17.78.43 43.966 46.387-.706 28.78-8.741-.211-.212 8.749-90.782-2.195-21.93-23.361.205-8.54-9.405-.227-.098 4.046-95.486-2.309-20.44-21.775.127-5.283-6.209-.151z" fill="#141D2B"/><path fill-rule="evenodd" clip-rule="evenodd" d="M431.114 434.392l47.662 1.152 40.516 43.165 24.908.602-.098 4.047 9.407.227.229-9.406-9.408-.228-.098 4.046-24.358-.589-40.516-43.165-48.213-1.166.045-1.826-4.967-.12-.12 4.966 4.967.12.044-1.825zm-82.424 22.71l6.208.15.151-6.21-6.209-.15-.15 6.21zm183.352-84.442l11.735.284-38.608 37.335-11.758-.261 38.631-37.358zm-80.074 39.58l4.03.098.044-1.838 85.184 1.898-.212 8.733 18.814.455.455-18.814-18.814-.455-.212 8.767-34.239-.763 38.606-37.333 77.202 1.867-.211 8.75 18.813.455.455-18.814-18.813-.455-.212 8.749-91.334-2.208-39.961 38.645-35.489-.791.045-1.816-4.968-.121-.098 4.047-18.193 17.431.908.948 18.2-17.435z" fill="#141D2B"/><path fill-rule="evenodd" clip-rule="evenodd" d="M344.27 461.31l14.832.358.359-14.833-14.832-.358-.359 14.833zm128.647-3.654l43.812 46.671-9.984-.241-43.811-46.672 9.983.242zm68.114 40.496l14.831.36-.359 14.83-14.83-.357.358-14.833zm-279.277-22.137l9.545.231-22.331 21.594-9.546-.231 22.332-21.594zm-47.11 22.31l91.57 2.214-.058 2.375 6.209.15.15-6.209-6.209-.15-.06 2.519-55.432-1.34 22.332-21.593 48.999 1.184-.099 4.046 9.408.227.227-9.406-9.407-.228-.097 4.047-60.941-1.474-23.657 22.877-22.903-.552.075-3.091 42.884-41.47 84.809 2.05-.211 8.751 17.879.432 21.913 23.344 57.758 1.396-.058 2.448 6.209.149.15-6.209-6.209-.15-.059 2.448-57.209-1.384-21.538-22.943.19-7.827 40.069.969-.098 4.046 9.406.228.098-4.047 50.356 1.218 45.075 48.017 32.678.791-.211 8.748 18.811.455.456-18.812-18.813-.456-.211 8.749-20.3-.49-45.075-48.017-62.734-1.517.077-3.198 13.228-12.674-.91-.949-13.309 12.751-8.394-.203-.098 4.046-40.07-.969.212-8.75-18.815-.455-.211 8.75-85.36-2.064-43.246 41.821-8.503-.206-.227 9.406 9.406.228.098-4.047zM105.667 659.804l7.793.188-19.64 18.994-7.798-.184 19.645-18.998zm90.703-26.354l-.359 14.832-14.83-.359.358-14.832 14.831.359zM22.533 674.853l-.15 6.209 6.21.15.06-2.448 65.409 1.542.274.007 20.967-20.276 52.703 1.355 12.075-11.504 17.875.432.455-18.813-18.813-.455-.433 17.894-11.67 11.118-62.348-1.587-20.973 20.281-55.49-1.309.059-2.445-6.21-.151z" fill="#141D2B"/><path fill-rule="evenodd" clip-rule="evenodd" d="M96.343 610.013l18.308.443-46.016 44.498-18.307-.443 46.015-44.498zm-132.505 38.36l-.096 4.004-18-.435-.032 1.314 18 .441-.099 4.082 8.351.202 41.147 43.832 91.333 2.208-.212 8.75 18.814.454.456-18.814-18.815-.455-.211 8.751-90.783-2.195-40.654-43.308.078-3.244 96.037 2.322 47.342-45.781 90.783 2.194-.212 8.75 18.814.454.456-18.813-18.815-.455-.211 8.749-111.486-2.695-47.342 45.782-75.333-1.852.097-4.016-9.407-.226zm208.717-144.199l.359-14.832 14.831.359-.359 14.831-14.831-.358zm92.315 15.938l18.704 19.925-10.426-.257-18.685-19.903 10.407.235zm31.664 83.601l-43.812-46.671 27.07.655 43.812 46.67-27.07-.654zm-96.637-85.091l52.707 1.194 19.962 21.266 62.949 1.548 14.517 15.45-25.545-.618.059-2.448-6.21-.15-.15 6.209 6.21.15.059-2.446 26.841.649 36.213 38.538-.192 7.944-4.176-.101-57.692-1.395-45.075-48.016-63.229-1.529.097-4.047-9.407-.226-.227 9.405 9.406.228.098-4.045 33.766.816 45.074 48.016 28.915.699 58.242 1.408 4.177.1-.212 8.75 18.812.455.455-18.812-17.761-.43-52.485-55.854-50.675-1.247-19.968-21.273-64.981-1.49-11.119-11.668.433-17.894-18.812-.455-.455 18.814 17.874.431 11.505 12.074zm274.743 90.712l43.812 46.671-10.421-.252-43.812-46.671 10.421.252zm-58.311 5.352l.359-14.83 14.829.359-.357 14.829-14.831-.358zm-1.587-16.87l-.454 18.813 18.813.455.212-8.749 29.06.702 45.075 48.017 50.907 1.231-.098 4.045 9.406.228.228-9.406-8.415-.204-38.498-41.01.127-5.245-6.21-.149-.15 6.208 5.316.128 38.402 40.911-.076 3.179-38.09-.921-45.075-48.016-41.878-1.013.212-8.749-18.814-.455zM146.316 701.225l-6.21-.15-.151 6.209 6.211.15.15-6.209z" fill="#141D2B"/><path fill-rule="evenodd" clip-rule="evenodd" d="M94.88 770.566l-29.404-31.312.192-7.948 6.092.148 37.046 39.448-13.926-.336zm136.492-3.462l14.831.358-.358 14.831-14.832-.358.359-14.831zm-2.396 16.773l18.814.455.454-18.813-18.813-.454-.212 8.748-118.567-2.866-37.046-39.449 104.074 2.517.033-1.315-112.014-2.708.212-8.75-18.813-.454-.212 8.749-47.644-1.152-45.075-48.016-29.005-.701.098-4.047-9.406-.228-.098 4.061-39.157-.948.212-8.749-18.815-.454-.455 18.813 18.815.455.212-8.75 39.156.947-.097 4.033 9.406.227.098-4.047 28.455.688 45.075 48.017 48.194 1.165-.212 8.75 17.758.43 29.71 31.636.187.2 134.89 3.262-.212 8.748z" fill="#141D2B"/><path fill-rule="evenodd" clip-rule="evenodd" d="M235.583 771.519l-.151 6.209 6.21.15.149-6.209-6.208-.15zm-54.801-35.602l4.968.119.12-4.967-4.968-.119-.12 4.967z" fill="#141D2B"/><path fill-rule="evenodd" clip-rule="evenodd" d="M234.307 734.071l-46.026-48.562 13.924.345 46.02 48.552-13.918-.335zm-84.07-22.18l-14.83-.359.359-14.832 14.83.359-.359 14.832zm75.396-79.729l-18.815-.455-.455 18.814 8.759.211-.719 29.323 44.239 46.675-.191 7.922-8.371-.201-47.295-49.899-39.014-.962-12.075 11.504-17.873-.432-.455 18.813 18.813.455.212-8.781 29.117.692-.044 1.824 4.968.121.12-4.967-4.968-.121-.044 1.828-29.117-.692.188-7.797 11.67-11.119 22.146.546 46.027 48.561-43.485-1.048-.032 1.314 69.48 1.677-.212 8.752 18.815.455.454-18.814-17.779-.429-43.966-46.388.705-28.78 8.741.212.213-8.749 90.781 2.195 21.931 23.36-.207 8.54 9.407.227.097-4.045 95.487 2.308 20.439 21.774-.127 5.284 6.21.15.15-6.21-5.276-.127-20.815-22.171-96.035-2.323.097-4.045-8.414-.204-22.361-23.819-25.021-.605-27.946-29.77-24.319-.588.044-1.826-4.967-.12-.121 4.968 4.968.12.044-1.827 23.77.575 26.682 28.423-64.467-1.558.212-8.751z" fill="#141D2B"/><path fill-rule="evenodd" clip-rule="evenodd" d="M653.102 729.686l-11.758-.262 38.522-37.254 11.737.284-38.501 37.232zm-180.32 11.167l-14.831-.358.359-14.833 14.831.358-.359 14.833zm-128.286-11.179l-43.812-46.671 9.983.241 43.812 46.671-9.983-.241zm-68.114-40.497l-14.83-.358.358-14.831 14.83.358-.358 14.831zm279.277 22.138l-9.545-.231 22.331-21.594 9.546.231-22.332 21.594zm233.7-7.85l.454-18.814-18.813-.454-.211 8.75-53.518-1.294.21-8.643-18.815-.455-.209 8.643-19.001-.459-.108.104-67.172-1.625.097-4.032-9.406-.228-.098 4.047-95.487-2.309-19.776-21.067.119-4.954-4.88-.118-20.538-21.877-43.989-1.064-.032 1.314 43.439 1.051 19.778 21.068-.138 5.686 5.603.135 19.832 21.128 59.899 1.447-22.331 21.594-49-1.184.098-4.046-9.406-.227-.228 9.406 9.407.227.097-4.046 60.941 1.474 23.657-22.877 22.903.553-.075 3.09-42.884 41.47-84.809-2.051.211-8.75-17.879-.432-21.913-23.344-57.759-1.396.06-2.447-6.211-.151-.149 6.21 6.209.15.059-2.448 57.208 1.383 21.539 22.944-.19 7.827-40.069-.969.097-4.047-9.406-.227-.097 4.046-50.355-1.218-45.076-48.015-32.679-.79.212-8.75-18.812-.455-.455 18.813 18.812.454.212-8.749 20.299.491 45.076 48.017 11.828.286 50.906 1.23-.078 3.199-13.227 12.675.909.948 13.309-12.751 8.396.203.098-4.046 40.069.969-.212 8.75 18.814.455.212-8.751 85.36 2.064 43.246-41.819 8.503.205.097-4.059 65.878 1.593-38.526 37.257-35.489-.792.043-1.815-4.967-.121-.147 4.965 4.995.123.044-1.837 85.183 1.898-.212 8.733 18.815.454.454-18.813-18.814-.455-.212 8.766-34.239-.762 38.498-37.229 4.975.121-.211 8.75 18.814.454.214-8.856 53.519 1.294-.212 8.749 18.813.455z" fill="#141D2B"/><path fill-rule="evenodd" clip-rule="evenodd" d="M263.902 703.746l-.227 9.405 9.406.227.098-4.045 24.358.589 40.516 43.166 48.213 1.166-.044 1.825 4.968.12.119-4.966-4.967-.12-.044 1.826-47.663-1.152-40.516-43.166-24.908-.602.098-4.046-9.407-.227zm142.483-62.652l6.21.15.149-6.208-6.209-.151-.15 6.209zm62.339 89.135l-6.208-.151-.151 6.21 6.209.15.15-6.209zM285.368 814.67l-11.735-.284 38.608-37.336 11.759.262-38.632 37.358zm75.925-34.71l4.967.12.098-4.045 18.194-17.432-.91-.948-18.199 17.435-4.029-.098-.045 1.837-85.183-1.897.211-8.733-18.815-.455-.455 18.814 18.815.455.212-8.767 34.239.763-38.606 37.333-77.202-1.867.212-8.749-18.813-.455-.455 18.813 18.813.455.212-8.749 91.333 2.207 39.961-38.643 35.489.791-.044 1.815zm39.52-141.449l.032-1.315-29.974-.724.211-8.75-18.812-.455-.455 18.813 18.812.456.212-8.75 29.974.725zm221.148-9.679l-.15 6.21 6.209.149.151-6.208-6.21-.151zm-45.559 24.525l-.227 9.406 9.406.228.098-4.042 32.984.787.031-1.315-32.983-.786.098-4.05-9.407-.228zm-182.066-76.955l-.149 6.209 6.209.15.149-6.209-6.209-.15z" fill="#141D2B"/><path fill-rule="evenodd" clip-rule="evenodd" d="M801.444 623.147l-14.83-.358.359-14.83 14.83.358-.359 14.83zm-66.335 10.869l-25.141-26.986 10.415.236 25.155 27.003-10.429-.253zm-42.191 26.192l-10.434-.247 25.909-25.275 10.429.252-25.904 25.27zm-54.69-20.496l.358-14.832 14.831.358-.357 14.832-14.832-.358zM498.76 581.375l-33.705-35.639 9.101.22 33.705 35.639-9.101-.22zm305.083 24.999l-18.812-.456-.432 17.894-11.671 11.119-25.55-.617-26.409-28.35-69.757-1.685.098-4.047-9.407-.227-.227 9.406 9.406.227.098-4.046 56.937 1.377 25.156 27.003h-.004l-78.023-1.886.212-8.791-17.793-.43-18.167-19.353-73.46-1.776.044-1.827-4.046-.098-16.704-17.793-15.619-.378-34.979-36.985-42.146-1.02-.032 1.315 30.647.741 33.706 35.639-62.91-1.521.212-8.749-18.814-.454-.455 18.813 18.814.455.211-8.751 90.784 2.195 16.341 17.41-.097 4.028 3.969.097 24.862 26.483 34.314.83-.098 4.045 9.406.228.227-9.407-9.406-.227-.098 4.046-33.764-.817-24.424-26.017.023-.967 72.909 1.763 17.709 18.864-.434 17.978 18.814.455.211-8.71 51.339 1.241-25.909 25.277-49.784-1.182-.03 1.313 62.331 1.481.276.007 27.22-26.554 52.782 1.275 12.075-11.503 17.873.432.455-18.813z" fill="#141D2B"/><path fill-rule="evenodd" clip-rule="evenodd" d="M621.151 662.258l6.209.151.151-6.21-6.21-.15-.15 6.209zm-192.52-121.167l-6.209-.151-.15 6.21 6.209.15.15-6.209zm214.166 88.205l-.15 6.209 6.209.15.149-6.21-6.208-.149zm-253.026-42.479l14.832.359.358-14.829-14.832-.359-.358 14.829zm16.775 2.399l.455-18.812-17.869-.432-25.173-26.681 54.686 1.322.031-1.314-55.988-1.353-19.877-21.07-.188-.199-47.122-1.139.044-1.827-4.967-.12-.12 4.968 4.967.12.045-1.827 46.573 1.126 46.122 48.885-.433 17.898 18.814.455zm-230.542-49.163l-.15 6.21 6.21.151.149-6.211-6.209-.15z" fill="#141D2B"/><path fill-rule="evenodd" clip-rule="evenodd" d="M-124.227 630.108l-14.83-.359.358-14.831 14.83.358-.358 14.832zM2.841 579.503l14.802.358-46.016 44.499-14.802-.357 46.016-44.5zm168.956-43.864l14.832.358-.359 14.831-14.832-.358.359-14.831zm-293.867 87.758l94.215 2.291 47.344-45.783 30.995.747-.192 7.957-35.517 34.346-5.229-.126-.15 6.209 6.21.149.129-5.331 35.597-34.426 17.753.43.212-8.753 45.289 1.093.032-1.315-45.289-1.093.192-7.944 30.883-29.854 69.209 1.669-.212 8.75 18.814.455.454-18.814-18.813-.454-.212 8.749-69.757-1.683-31.402 30.355-17.758-.43-.21 8.747-48.196-1.162-47.342 45.782-77.018-1.875.212-8.75-18.813-.454-.455 18.813 18.813.455.212-8.75z" fill="#141D2B"/><path fill-rule="evenodd" clip-rule="evenodd" d="M117.685 584.102l4.967.12.12-4.967-4.967-.12-.12 4.967zm8.158-1.634l42.735 1.035-.211 8.75 18.813.455.455-18.814-18.814-.455-.212 8.75-42.735-1.036-.031 1.315zm1435.317-433.48l30.89-29.854 13.92.337-38.91 37.613-6.09-.147.19-7.949zm167.41-34.631l14.83.359-.36 14.831-14.83-.358.36-14.832zm-281.95 86.742l-28.45-.688.09-4.046-9.4-.228-.1 4.033-39.16-.946.22-8.751-18.82-.455-.45 18.814 18.81.455.21-8.75 39.16.947-.1 4.061 9.41.226.09-4.046 29.01.701 47.34-45.782 47.65 1.152-.22 8.75 18.82.455.21-8.75 112.01 2.707.03-1.314-104.07-2.515 38.91-37.613 118.57 2.867-.22 8.749 18.82.454.45-18.813-18.81-.454-.21 8.749-134.89-3.261-.2.19-31.2 30.164-17.76-.429-.21 8.75-48.2-1.165-47.34 45.782zm-152.98 32.603l-14.83-.358.36-14.832 14.83.359-.36 14.831zm59.99-6.627l-57.81-1.398.22-8.749-18.82-.455-.45 18.814 18.81.453.21-8.749 57.81 1.398.03-1.314z" fill="#141D2B"/><path fill-rule="evenodd" clip-rule="evenodd" d="M1289.43 229.286l-6.2-.149.15-6.21 6.2.15-.15 6.209zm252.5 3.615l18.31.442 43.81 46.671-18.3-.443-43.82-46.67zm56.66-55.587l-.21 8.75-91.33-2.208-43.22 41.793-8.35-.202-.1 4.081-90.36-2.178-.03 1.314 90.36 2.184-.1 4.006 9.41.227.1-4.016 75.33 1.792 45.08 48.015 111.48 2.695-.21 8.75 18.81.455.46-18.814-18.82-.455-.21 8.75-90.78-2.194-45.08-48.016-96.03-2.322.08-3.245 42.7-41.293 90.78 2.195-.21 8.75 18.81.455.46-18.814-18.82-.455zm-235.92 47.53l-.15 6.21-6.21-.15.16-6.21 6.2.15z" fill="#141D2B"/><path fill-rule="evenodd" clip-rule="evenodd" d="M1351.22 263.314l14.83.359.35-14.832-14.83-.358-.35 14.831zm95.85-4.46l14.8.359 43.81 46.672-14.8-.359-43.81-46.672zm210.45 98.651l.36-14.832 14.83.359-.36 14.831-14.83-.358zm-289.07-110.607l-18.82-.455-.45 18.814 18.81.455.21-8.75 77.02 1.848 45.08 48.017 48.19 1.168-.21 8.747 17.76.43 29.89 31.836 69.76 1.691-.21 8.749 18.81.454.46-18.813-18.82-.455-.21 8.751-69.2-1.678-29.41-31.311.19-7.945 45.29 1.097.03-1.314-45.29-1.097.22-8.754-17.76-.428-33.89-36.107.13-5.331-6.21-.15-.15 6.209 5.23.126 33.81 36.022-.19 7.957-30.99-.751-45.08-48.018-94.22-2.264.22-8.75zm-963.689-31.71l-14.83-.357.358-14.831 14.831.359-.359 14.829zm59.992-6.626l-57.804-1.398.211-8.749-18.812-.455-.455 18.813 18.813.455.211-8.749 57.804 1.397.032-1.314z" fill="#141D2B"/><path fill-rule="evenodd" clip-rule="evenodd" d="M400.555 210.773l-6.208-.149.149-6.21 6.209.15-.15 6.209zm252.503 3.615l18.306.442 43.812 46.672-18.307-.443-43.811-46.671zm56.655-55.587l-.212 8.75-91.332-2.208-43.217 41.794-8.351-.203-.099 4.081-90.359-2.178-.032 1.315 90.359 2.183-.097 4.005 9.407.228.097-4.015 75.335 1.79 45.075 48.016 111.484 2.695-.211 8.75 18.814.454.455-18.814-18.815-.454-.211 8.75-90.783-2.194-45.074-48.016-96.037-2.322.079-3.245 42.7-41.293 90.782 2.195-.212 8.75 18.815.455.455-18.814-18.815-.455z" fill="#141D2B"/><path fill-rule="evenodd" clip-rule="evenodd" d="M716.384 211.964l-7.794-.189-18.703-19.925 7.797.194 18.7 19.92zm67.061 15.328l14.831.359-.359 14.831-14.831-.359.359-14.831zm-12.509-14.09l-52.707-1.193-19.963-21.266-.274-.006-65.408-1.621.058-2.448-6.208-.15-.151 6.209 6.21.149.059-2.445 55.489 1.374 19.968 21.272 62.352 1.426 11.119 11.67-.432 17.894 18.812.455.455-18.814-17.874-.432-11.505-12.074zm-297.137-6.87l-.15 6.208-6.209-.149.15-6.21 6.209.151zm243.298-105.373l-38.909 37.613-6.092-.148.192-7.948 30.884-29.854 13.925.337zm122.244 9.717l14.83.358.359-14.83-14.831-.36-.358 14.832zm-1.798-8.12l-134.89-3.262-.197.192-31.203 30.162-17.759-.429-.211 8.75-48.194-1.165-47.342 45.782-28.456-.688.098-4.046-9.406-.228-.098 4.033-39.156-.946.211-8.75-18.814-.456-.455 18.815 18.814.455.212-8.75 39.157.947-.098 4.06 9.406.227.098-4.046 29.005.701 47.342-45.782 47.644 1.151-.212 8.75 18.814.455.211-8.75 112.013 2.709.031-1.314-104.074-2.517 38.91-37.613 118.567 2.867-.212 8.749 18.813.454.456-18.813-18.814-.455-.211 8.751z" fill="#141D2B"/><path fill-rule="evenodd" clip-rule="evenodd" d="M843.902 100.26l6.21.15-.15 6.209-6.21-.15.15-6.209zm-56.605 39.122l4.967.12-.12 4.967-4.967-.121.12-4.966zm-36.105 32.986l-6.209-.151.15-6.209 6.209.151-.15 6.209z" fill="#141D2B"/><path fill-rule="evenodd" clip-rule="evenodd" d="M854.59 144.149l-48.312 46.273-13.924-.33 48.319-46.279 13.917.336zm-114.152 32.228l14.83.358.359-14.832-14.83-.358-.359 14.832zm327.302 10.66l-.13 5.283-21.47 20.761-95.485-2.308.098-4.047-9.406-.227-.207 8.541-23.034 22.273-90.782-2.195.211-8.749-8.741-.212.686-28.78 46.157-44.209 17.779.431.455-18.814-18.814-.456-.212 8.754-69.481-1.683-.031 1.314 43.485 1.054-48.32 46.28-22.146-.524-11.119-11.67.188-7.798 29.117.716-.043 1.828 4.966.12.121-4.967-4.967-.12-.045 1.825-29.117-.716.212-8.782-18.812-.454-.455 18.813 17.874.432 11.504 12.074 39.016.925 49.65-47.555 8.372.202-.192 7.922-46.444 44.484-.698 29.323-8.759-.212-.455 18.813 18.815.455.211-8.75 64.467 1.559-28.025 27.101-23.77-.575.045-1.827-4.967-.12-.12 4.968 4.966.12.045-1.826 24.319.588 29.352-28.384 25.021.605 23.485-22.711 8.415.202.098-4.045 96.037 2.322 21.86-21.141 5.28.128.15-6.21-6.21-.149z" fill="#141D2B"/><path fill-rule="evenodd" clip-rule="evenodd" d="M993.395 132.311l-47.663-1.153-42.554 41.157-24.908-.602-.098 4.047-9.407-.227.226-9.407 9.408.227-.097 4.046 24.357.589 42.555-41.157 48.213 1.166.044-1.826 4.967.12-.12 4.966-4.967-.12.044-1.826zm81.235 26.667l-6.21-.15.15-6.21 6.21.151-.15 6.209zm-142.281-54.022l-11.757-.307-36.76-39.158 11.737.283 36.78 39.182zm58.624 22.516l.953-.903-17.329-18.29.098-4.047-4.969-.119-.043 1.815-35.486-.925-38.046-40.53-91.334-2.208.211-8.75-18.813-.454-.454 18.814 18.812.454.212-8.75 77.202 1.866 36.757 39.155-34.236-.892.212-8.767-18.814-.455-.455 18.814 18.814.455.211-8.733 85.175 2.22-.044 1.839 4.03.097 17.336 18.294z" fill="#141D2B"/><path fill-rule="evenodd" clip-rule="evenodd" d="M1064 163.036l14.83.358.36-14.833-14.83-.358-.36 14.833zm-103.504-9.267l-46.017 44.5-9.983-.242 46.017-44.499 9.983.241zm-80.333 51.749l-14.83-.36.358-14.83 14.831.358-.359 14.832zm301.637-.8l-9.54-.231-21.26-22.648 9.54.232 21.26 22.647zm24.62 5.959l9.41.227.23-9.406-8.51-.206-41.17-43.86-85.36-2.064.21-8.75-18.81-.455-.22 8.75-40.07-.969.1-4.045-8.39-.203-12.68-13.38-.95.904 12.6 13.299-.08 3.198-62.737-1.517-47.342 45.783-20.3-.492.212-8.748-18.813-.454-.454 18.812 18.812.455.211-8.748 32.678.789 47.344-45.783 50.359 1.217-.1 4.047 9.4.227.1-4.046 40.07.968-.19 7.827-22.62 21.876-57.207-1.383.059-2.448-6.21-.149-.15 6.209 6.21.15.059-2.447 57.759 1.396 23.01-22.257 17.88.432.22-8.751 84.81 2.051 40.82 43.494-.07 3.09-22.9-.554-22.53-23.994-60.94-1.473.1-4.046-9.41-.227-.22 9.405 9.4.227.1-4.045 49 1.185 21.26 22.648-55.43-1.341.06-2.519-6.21-.15-.15 6.209 6.21.15.06-2.375 91.57 2.214-.1 4.046zm119.85 182.435l-7.79-.193-18.7-19.92 7.79.188 18.7 19.925zm-108.39-35.8l14.83.359.36-14.832-14.83-.358-.36 14.831zm165.79 34.774l-.06 2.445-55.49-1.373-19.97-21.271-62.35-1.427-11.12-11.67.43-17.894-18.81-.455-.45 18.814 17.87.432 11.5 12.074 52.71 1.193 19.96 21.265.28.007 65.41 1.62-.06 2.449 6.21.15.15-6.209-6.21-.15z" fill="#141D2B"/><path fill-rule="evenodd" clip-rule="evenodd" d="M1363.1 370.575l-18.31-.443-43.81-46.67 18.31.442 43.81 46.671zm77.28-2.18l-.1 4.015-75.34-1.79-45.07-48.016-111.49-2.695.22-8.75-18.82-.455-.45 18.814 18.81.455.21-8.75 90.79 2.196 45.07 48.015 96.04 2.322-.08 3.244-42.7 41.292-90.78-2.194.21-8.75-18.82-.455-.45 18.813 18.81.456.21-8.75 91.34 2.208 43.21-41.793 8.36.202.09-4.081 18 .429.04-1.315-18-.435.09-4.004-9.4-.228zm-206.93-154.247l.35-14.831 14.83.358-.35 14.831-14.83-.358zm-67.74 12.085l-19.63 18.977-10.43-.247 19.65-18.997 10.41.267zm-73.14 81.05l46.01-44.499 27.07.655-46.01 44.499-27.07-.655zm139.78-91.17l17.87.432.45-18.814-18.81-.454-.43 17.894-11.67 11.118-64.98-1.652-20.97 20.282-50.68-1.203-55.12 53.253-17.76-.429-.46 18.812 18.82.454.21-8.749 4.18.101 58.24 1.408 28.91.7 47.34-45.782 33.77.817-.1 4.045 9.41.227.23-9.406-9.41-.228-.1 4.047-63.23-1.529-47.34 45.782-57.69-1.395-4.18-.101.19-7.944 38.04-36.743 26.84.649-.06 2.447 6.21.149.15-6.208-6.21-.15-.06 2.448-25.55-.618 15.25-14.73 62.95 1.495 20.97-20.276 52.7 1.355 12.08-11.504zm-280.46 89.085l-46.016 44.499-10.422-.252 46.017-44.499 10.421.252zm32.732 7.552l.359-14.829 14.83.358-.359 14.83-14.83-.359zm-1.583-16.869l-.211 8.749-41.877-1.012-47.344 45.783-38.089-.922.077-3.179 40.335-39.007 5.315.129.15-6.209-6.21-.15-.126 5.244-40.435 39.102-8.415-.203-.227 9.406 9.407.227.097-4.045 50.906 1.231 47.343-45.783 29.061.703-.212 8.749 18.816.455.45-18.813-18.811-.455zm281.931 116.715l6.21.15-.15 6.208-6.21-.15.15-6.208z" fill="#141D2B"/><path fill-rule="evenodd" clip-rule="evenodd" d="M1299.06 484.004l38.91-37.612 6.1.147-.2 7.947-30.88 29.855-13.93-.337zm-122.59 5.114l-14.84-.359.36-14.831 14.83.359-.35 14.831zm2.15-6.71l134.89 3.26.2-.191 31.2-30.163 17.76.43.21-8.75 48.19 1.165 47.34-45.783 28.46.688-.1 4.046 9.41.228.1-4.032 39.15.946-.21 8.749 18.81.456.46-18.814-18.81-.456-.22 8.75-39.15-.946.1-4.06-9.41-.227-.1 4.046-29-.701-47.35 45.782-47.64-1.152.21-8.749-18.81-.456-.21 8.75-112.02-2.708-.03 1.315 104.08 2.516-38.91 37.612-118.57-2.867.21-8.748-18.81-.455-.46 18.813 18.82.455.21-8.749z" fill="#141D2B"/><path fill-rule="evenodd" clip-rule="evenodd" d="M1172.41 478.493l-.15 6.21-6.21-.15.15-6.21 6.21.15zm56.45-32.912l-4.96-.12.12-4.968 4.96.122-.12 4.966z" fill="#141D2B"/><path fill-rule="evenodd" clip-rule="evenodd" d="M1161.57 440.814l48.31-46.273 13.93.33-48.32 46.28-13.92-.337zm99.32-32.586l14.83.357-.36 14.832-14.83-.357.36-14.832zm-72.02-59.697l-64.47-1.559 28.02-27.101 23.77.575-.04 1.827 4.97.12.12-4.968-4.97-.12-.04 1.827-24.32-.588-29.36 28.384-25.02-.605-23.48 22.711-8.42-.203-.09 4.045-96.041-2.321-21.861 21.14-5.276-.128-.15 6.209 6.209.15.128-5.283 21.469-20.762 95.482 2.309-.09 4.046 9.4.228.21-8.541 23.03-22.273 90.78 2.195-.21 8.749 8.74.212-.68 28.78-46.16 44.209-17.78-.43-.45 18.813 18.81.455.21-8.753 69.48 1.683.04-1.314-43.49-1.054 48.32-46.281 22.15.525 11.12 11.67-.19 7.798-29.12-.716.04-1.829-4.96-.119-.12 4.967 4.96.12.05-1.825 29.12.716-.22 8.782 18.82.454.45-18.813-17.87-.432-11.51-12.074-39.01-.925-49.65 47.555-8.37-.203.19-7.922 46.44-44.483.7-29.323 8.76.212.45-18.813-18.81-.455-.21 8.75z" fill="#141D2B"/><path fill-rule="evenodd" clip-rule="evenodd" d="M720.741 377.485l11.737.283 36.678 39.072-11.758-.306-36.657-39.049zm216.584 44.084l14.833.359-.359 14.832-14.832-.359.358-14.832zm118.335 9.624l46.02-44.499 9.98.242-46.01 44.498-9.99-.241zm80.33-51.747l14.83.359-.36 14.83-14.83-.359.36-14.83zm-301.635.798l9.546.232 21.262 22.647-9.547-.23-21.261-22.649zm-192.975 3.97l.212-8.751 53.518 1.294-.213 8.857 18.813.456.212-8.75 4.975.12 36.653 39.045-34.236-.893.212-8.767-18.813-.455-.455 18.814 18.814.455.211-8.732 85.175 2.22-.045 1.838 4.967.131.121-4.98-4.967-.12-.045 1.816-35.485-.924-36.681-39.075 65.877 1.593-.098 4.059 8.503.205 41.175 43.861 85.36 2.063-.212 8.75 18.814.456.211-8.75 40.07.969-.098 4.044 8.395.203 12.68 13.381.95-.905-12.6-13.298.08-3.199 50.9 1.232 11.83.286 47.35-45.783 20.3.491-.22 8.748 18.82.455.45-18.812-18.81-.455-.21 8.749-32.68-.79-47.34 45.782-50.36-1.217.1-4.047-9.407-.227-.098 4.047-40.07-.969.189-7.826 22.623-21.877 57.203 1.383-.05 2.448 6.2.15.16-6.209-6.22-.151-.05 2.449-57.762-1.397-23.016 22.256-17.879-.431-.212 8.75-84.809-2.05-40.829-43.494.074-3.09 22.902.554 22.525 23.994 60.94 1.473-.098 4.046 9.406.228.228-9.406-9.406-.227-.098 4.045-49-1.185-21.262-22.648 59.9 1.448 20.829-20.143 5.603.135.138-5.687 20.772-20.086 43.44 1.049.031-1.314-43.989-1.063-21.571 20.859-4.88-.118-.121 4.954-20.771 20.087-95.486-2.309.097-4.046-9.407-.227-.098 4.031-67.171-1.623-.103-.11-19.001-.459.209-8.642-18.815-.455-.208 8.642-53.518-1.294.211-8.749-18.813-.455-.455 18.814 18.813.455z" fill="#141D2B"/><path fill-rule="evenodd" clip-rule="evenodd" d="M1147.39 409.431l-.22 9.406-9.41-.229.1-4.045-24.36-.589-42.55 41.158-48.22-1.166-.04 1.826-4.97-.12.12-4.967 4.97.12-.05 1.827 47.67 1.152 42.55-41.157 24.91.602.1-4.046 9.4.228zm-139.29-69.464l-6.21-.15.15-6.208 6.21.149-.15 6.209zm-66.569 86.018l6.209.149-.15 6.21-6.209-.15.15-6.209zm142.279 54.022l11.76.307 36.76 39.158-11.74-.284-36.78-39.181zm-37.33-.973l35.48.926 38.05 40.529 91.33 2.209-.21 8.749 18.82.455.45-18.813-18.81-.455-.21 8.749-77.21-1.866-36.75-39.155 34.23.893-.21 8.766 18.82.455.45-18.814-18.81-.455-.21 8.734-85.18-2.221.04-1.838-4.03-.097-17.33-18.294-.95.903 17.33 18.291-.1 4.045 4.97.12.04-1.816zm-32.68-141.378l.03-1.314 29.97.724.21-8.749 18.82.455-.46 18.812-18.81-.454.21-8.749-29.97-.725zm-220.426-20.354l-.149 6.21-6.21-.151.149-6.209 6.21.15zM837.695 344l-.228 9.406-9.407-.227.098-4.041-32.983-.809.033-1.315 32.982.809.098-4.05 9.407.227zm185.575-68.068l-.15 6.21-6.21-.15.15-6.21 6.21.15z" fill="#141D2B"/><path fill-rule="evenodd" clip-rule="evenodd" d="M614.73 288.119l14.831.359-.359 14.83-14.829-.358.357-14.831zm54.944 28.641l26.43-25.755 10.415.266-26.416 25.741-10.429-.252zm26.655 1.959l10.43.253 24.657 26.498-10.434-.257-24.653-26.494zm65.433 8.306l.36-14.834 14.832.359-.36 14.833-14.832-.358zm147.858-51.391l35.389-33.97 9.101.22-35.389 33.97-9.101-.22zm-297.288 29.259l17.873.432 11.505 12.074 52.782 1.276 25.905 27.839.276.007 62.33 1.533.033-1.314-49.783-1.224-24.657-26.5 51.339 1.241-.21 8.71 18.814.455.435-17.978 18.6-17.986 72.909 1.763-.024.967-25.653 24.806-33.763-.816.097-4.046-9.406-.227-.228 9.406 9.407.227.097-4.046 34.315.83 26.111-25.251 3.97.096.098-4.028 17.163-16.6 90.784 2.195-.212 8.75 18.811.454.46-18.813-18.816-.454-.212 8.748-62.909-1.52 35.388-33.97 30.648.742.031-1.316-42.146-1.018-36.726 35.252-15.618-.377-17.545 16.965-4.046-.098-.045 1.827-73.459-1.776-19.082 18.453-17.793-.43-.213 8.79-78.023-1.886h-.004l26.432-25.756 56.937 1.376-.098 4.046 9.406.228.228-9.406-9.407-.229-.097 4.047-69.757-1.687-27.749 27.04-25.549-.618-11.12-11.67.433-17.893-18.812-.454-.455 18.812z" fill="#141D2B"/><path fill-rule="evenodd" clip-rule="evenodd" d="M792.569 350.728l-6.21-.15.149-6.209 6.211.15-.15 6.209zm198.15-111.722l6.209.149-.15 6.21-6.209-.15.15-6.209zm-218.178 77.752l-.15 6.209-6.209-.15.151-6.209 6.208.15zm239.949-30.56l14.83.358.36-14.829-14.83-.359-.36 14.83zm16.77 2.398l.44-17.898 48.43-46.598 46.57 1.126-.05 1.827 4.97.12.12-4.968-4.97-.12-.04 1.826-47.12-1.139-.2.19-20.87 20.084-55.99-1.354-.03 1.314 54.69 1.322-26.44 25.433-17.87-.432-.45 18.812 18.81.455zm213.84-38.418l-.15 6.209-6.21-.149.15-6.21 6.21.15z" fill="#141D2B"/><path fill-rule="evenodd" clip-rule="evenodd" d="M1538.98 339.803l14.84.359-.36 14.831-14.83-.358.35-14.832zm-81.01 4.818l-14.81-.359-43.81-46.671 14.8.358 43.82 46.672zm-210.81-83.819l-14.83-.358.35-14.832 14.84.359-.36 14.831zm289.43 95.776l18.81.454.45-18.812-18.81-.456-.21 8.75-77.02-1.849-45.07-48.017-48.2-1.167.21-8.748-17.75-.429-29.9-31.836-69.76-1.691.21-8.749-18.81-.454-.46 18.813 18.82.454.21-8.749 69.21 1.677 29.4 31.312-.19 7.944-45.29-1.097-.03 1.315 45.29 1.097-.21 8.752 17.75.43 33.89 36.105-.13 5.331 6.21.151.15-6.209-5.23-.126-33.81-36.023.19-7.956 31 .751 45.07 48.017 94.22 2.265-.21 8.75z" fill="#141D2B"/><path fill-rule="evenodd" clip-rule="evenodd" d="M1294.25 296.873l4.97.12.12-4.967-4.96-.12-.13 4.967zm-3.1-1.907l-42.73-1.031-.21 8.75-18.82-.455.46-18.814 18.81.456-.21 8.749 42.74 1.031-.04 1.314zM-110.522 418.857l-6.085-.148-36.998-39.602 13.909.336 29.367 31.434-.193 7.98zm-165.505-35.92l-14.813-.358.36-14.891 14.814.358-.361 14.891zm232.436 37.538l-48.138-1.164.213-8.785-17.737-.429-29.671-31.759-.188-.201-134.731-3.257.212-8.785-18.791-.454-.457 18.888 18.791.455.213-8.784 118.429 2.862 36.997 39.603-103.952-2.514-.032 1.32 111.881 2.705-.212 8.785 18.79.454.213-8.785 47.588 1.151L.844 469.985l28.971.701-.099 4.062 9.396.228.099-4.077 39.11.945-.212 8.786 18.793.454.456-18.889-18.793-.455-.212 8.785-39.11-.946.097-4.048-9.395-.227-.099 4.062-28.42-.687-45.017-48.204zm196.302 72.972l14.901.36-.363 14.974-14.9-.361.362-14.973zm-60.273 6.698l58.077 1.404-.215 8.833 18.901.458.46-18.994-18.902-.457-.213 8.832-58.076-1.403-.032 1.327z" fill="#141D2B"/><path fill-rule="evenodd" clip-rule="evenodd" d="M157.351 504.552l5.998.145.145-5.998-5.998-.145-.145 5.998zm-299.057 35.681l-18.322-.443 46.057-44.659 18.322.444-46.057 44.658zm-26.718-103.575l-.456 18.881 18.83.454.213-8.78 90.857 2.196 40.685 43.458-.079 3.256-96.116-2.323-47.384 45.945-90.857-2.197.212-8.781-18.83-.456-.456 18.881 18.829.455.213-8.78 111.577 2.698 47.384-45.945 75.395 1.852-.097 4.03 9.414.228.097-4.019 90.434 2.186.032-1.318-90.434-2.193.1-4.096-8.359-.201-41.178-43.984-91.408-2.211.213-8.78-18.831-.456zm251.94 60.107l-.145 5.998 5.998.146.144-5.999-5.997-.145z" fill="#141D2B"/><path fill-rule="evenodd" clip-rule="evenodd" d="M78.792 534.557l14.816.358.36-14.891-14.816-.358-.36 14.891zm-126.593 35.929l-14.79-.356 45.98-44.683 14.788.357-45.978 44.682zm-183.622 43.701l.36-14.889 14.817.358-.359 14.89-14.818-.359zm308.421-87.783l-94.127-2.29-47.304 45.972-30.966-.747.193-7.989 35.488-34.487 5.223.127.15-6.233-6.202-.15-.13 5.351-35.569 34.568-17.736-.429-.212 8.788-45.247-1.092-.031 1.32 45.246 1.091-.194 7.977-30.857 29.976-69.143-1.667.212-8.785-18.796-.454-.456 18.887 18.796.455.212-8.784 69.692 1.681 31.376-30.479 17.74.429.213-8.783 48.148 1.163L.022 525.849l76.945 1.874-.212 8.785 18.795.454.457-18.889-18.796-.454-.212 8.785zm964.382-8.471l14.9.36-.36 14.975-14.9-.362.36-14.973zm-60.274 6.698l58.074 1.404-.21 8.834 18.9.457.46-18.995-18.9-.456-.22 8.833-58.072-1.404-.032 1.327z" fill="#141D2B"/><path fill-rule="evenodd" clip-rule="evenodd" d="M1046.02 529.037l6 .146.14-5.999-6-.145-.14 5.998zm-299.058 35.682l-18.322-.443 46.058-44.659 18.32.443-46.056 44.659zm-26.718-103.575l-.456 18.88 18.83.455.213-8.781 90.857 2.197 40.685 43.457-.079 3.257-96.116-2.324-47.384 45.946-90.857-2.198.212-8.781-18.83-.455-.456 18.881 18.829.455.213-8.781 111.576 2.698 47.385-45.945 75.395 1.853-.097 4.029 9.415.228.096-4.019 90.434 2.187.032-1.319-90.434-2.193.099-4.096-8.358-.201-41.178-43.984-91.408-2.21.213-8.781-18.831-.455z" fill="#141D2B"/><path fill-rule="evenodd" clip-rule="evenodd" d="M749.284 495.673l7.808.183-19.671 19.072-7.803-.189 19.666-19.066zm-87.837 46.074l-14.849-.359.359-14.888 14.85.359-.36 14.888zm1.46-16.861l-17.896-.432-.457 18.885 18.837.455.434-17.962 11.686-11.162 62.427 1.591 21.001-20.361 55.561 1.311-.06 2.454 6.218.151.15-6.232-6.216-.15-.06 2.457-65.493-1.544-.275-.007-20.995 20.355-52.771-1.358-12.091 11.549zm310.277-3.61l-.145 5.996 5.998.146.145-5.998-5.998-.144zM748.975 403.929l29.367 31.433-.193 7.98-6.086-.146-36.997-39.603 13.909.336zm-151.147 3.134l14.812.358.36-14.889-14.812-.358-.36 14.889zm17.209-16.482l-18.791-.455-.456 18.889 18.791.454.212-8.784 118.429 2.863 36.998 39.602-103.953-2.512-.032 1.32 111.882 2.704-.213 8.785 18.792.454.212-8.785 47.588 1.151 45.016 48.203 28.971.701-.098 4.062 9.395.227.098-4.076 39.112.946-.213 8.785 18.793.454.456-18.89-18.792-.453-.212 8.784-39.111-.946.097-4.048-9.395-.227-.098 4.062-28.422-.687-45.015-48.204-48.138-1.164.212-8.785-17.737-.429-29.671-31.757-.188-.203-134.731-3.256.212-8.785z" fill="#141D2B"/><path fill-rule="evenodd" clip-rule="evenodd" d="M608.072 397.414l-5.998-.144-.145 5.997 5.998.146.145-5.999zm55.016 41.343l-4.998-.122-.121 4.999 4.999.12.12-4.997zm34.169 34.835l5.999.145.145-5.998-5.999-.144-.145 5.997z" fill="#141D2B"/><path fill-rule="evenodd" clip-rule="evenodd" d="M609.521 440.54l46.073 48.597-13.938-.344-46.066-48.59 13.931.337zm83.796 37.039l14.845.359.359-14.843-14.845-.359-.359 14.843zm-319.129-4.967l-.15 6.215 5.281.128 20.835 22.189 96.132 2.324-.098 4.048 8.423.205 22.383 23.838 25.046.605 27.974 29.792 24.344.589-.044 1.827 4.971.12.121-4.971-4.972-.12-.044 1.828-23.793-.575-26.71-28.446 64.532 1.56-.212 8.757 18.833.455.455-18.827-8.767-.212.72-29.345-44.285-46.712.192-7.928 8.38.203 47.342 49.936 39.054.964 12.086-11.514 17.891.433.455-18.827-18.831-.456-.212 8.788-29.146-.692.043-1.827-4.973-.12-.119 4.971 4.972.12.045-1.829 29.146.693-.189 7.803-11.681 11.128-22.168-.547-46.073-48.598 43.528 1.049.032-1.315-69.55-1.678.212-8.76-18.833-.455-.455 18.829 17.797.429 44.011 46.423-.707 28.802-8.75-.211-.211 8.755-90.873-2.196-21.953-23.379.206-8.547-9.415-.228-.098 4.05-95.582-2.311-20.46-21.792.128-5.287-6.216-.151z" fill="#141D2B"/><path fill-rule="evenodd" clip-rule="evenodd" d="M457.421 421.898l47.842 1.156 40.679 42.86 25.002.604-.097 4.018 9.442.228.226-9.337-9.442-.229-.097 4.016-24.45-.591-40.679-42.859-48.394-1.17.044-1.813-4.985-.12-.119 4.929 4.985.121.043-1.813zm-82.562 22.894l5.998.144.145-5.998-5.998-.145-.145 5.999zm183.695-84.583l11.711.284-38.524 37.095-11.734-.261 38.547-37.118zm-79.906 39.322l4.022.097.044-1.827 85.008 1.896-.21 8.677 18.775.454.451-18.695-18.774-.454-.211 8.712-34.168-.761 38.522-37.093 77.042 1.863-.21 8.694 18.774.454.453-18.694-18.775-.454-.21 8.694-91.145-2.204-39.874 38.395-35.416-.789.044-1.804-4.958-.121-.097 4.021-18.154 17.319.907.942 18.16-17.322z" fill="#141D2B"/><path fill-rule="evenodd" clip-rule="evenodd" d="M370.048 448.837l14.852.359.358-14.813-14.852-.36-.358 14.814zm128.824-3.641l43.875 46.613-9.997-.241-43.875-46.613 9.997.241zm68.206 40.448l14.851.36-.358 14.811-14.851-.358.358-14.813zM287.42 463.518l9.559.231-22.36 21.564-9.559-.23 22.36-21.565zm-47.171 22.278l91.693 2.217-.057 2.372 6.218.15.15-6.201-6.218-.15-.061 2.516-55.507-1.342 22.361-21.564 49.065 1.186-.098 4.04 9.42.228.228-9.394-9.42-.228-.098 4.041-61.022-1.475-23.689 22.846-22.933-.554.075-3.086 42.939-41.413 84.923 2.053-.21 8.739 17.904.433 21.944 23.314 57.836 1.398-.058 2.445 6.218.15.15-6.201-6.218-.151-.059 2.444-57.286-1.385-21.569-22.915.189-7.816 40.124.97-.098 4.041 9.419.227.097-4.04 50.424 1.219 45.14 47.957 32.722.792-.211 8.737 18.838.456.455-18.788-18.839-.456-.211 8.737-20.327-.491-45.139-47.957-62.82-1.519.077-3.194 13.246-12.656-.911-.949-13.326 12.734-8.406-.203-.098 4.04-40.124-.97.211-8.738-18.841-.456-.21 8.739-85.476-2.067-43.301 41.763-8.515-.206-.227 9.394 9.419.229.098-4.042zM131.735 647.621l7.802.189-19.666 19.067-7.808-.184 19.672-19.072zm90.821-26.459l-.36 14.888-14.848-.36.359-14.887 14.849.359zM48.494 662.733l-.15 6.232 6.216.151.06-2.458 65.493 1.544.274.007 20.995-20.354 52.771 1.357 12.09-11.548 17.898.432.456-18.885-18.836-.455-.435 17.961-11.685 11.162-62.428-1.59-21 20.36-55.562-1.311.06-2.454-6.217-.151z" fill="#141D2B"/><path fill-rule="evenodd" clip-rule="evenodd" d="M122.454 597.838l18.286.442-45.966 44.66-18.286-.442 45.966-44.66zm-132.352 38.51l-.097 4.018-17.98-.435-.031 1.319 17.979.441-.1 4.096 8.342.202 41.093 43.98 91.225 2.206-.212 8.781 18.792.454.457-18.88-18.793-.454-.212 8.781-90.676-2.193-40.6-43.454.078-3.256 95.923 2.319 47.292-45.947 90.675 2.191-.213 8.781 18.792.454.457-18.88-18.792-.454-.212 8.78-111.354-2.692-47.291 45.947-75.244-1.85.098-4.029-9.396-.226zM198.65 492.319l.358-14.782 14.832.359-.357 14.781-14.833-.358zm92.324 15.894l18.709 19.86-10.428-.257-18.689-19.839 10.408.236zm31.676 83.327l-43.822-46.521 27.074.655 43.821 46.52-27.073-.654zm-96.657-84.818l52.715 1.194 19.967 21.197 62.957 1.549 14.52 15.4-25.548-.618.059-2.44-6.211-.15-.149 6.188 6.21.151.059-2.439 26.846.649 36.221 38.414-.191 7.918-4.178-.101-57.7-1.395-45.084-47.861-63.239-1.529.097-4.034-9.408-.227-.226 9.375 9.407.228.098-4.032 33.77.817 45.084 47.861 28.919.698 58.251 1.408 4.177.101-.211 8.721 18.815.455.453-18.75-17.763-.43-52.497-55.674-50.683-1.248-19.973-21.203-64.99-1.49-11.12-11.631.431-17.835-18.815-.456-.454 18.752 17.877.432 11.507 12.035zm275.215 90.23l43.684 46.648-10.392-.251-43.684-46.648 10.392.251zm-58.148 5.353l.358-14.824 14.787.358-.357 14.823-14.788-.357zm-1.58-16.862l-.454 18.804 18.76.454.211-8.746 28.978.701 44.943 47.994 50.761 1.227-.097 4.043 9.379.227.227-9.402-8.39-.203-38.386-40.99.127-5.242-6.192-.15-.15 6.206 5.301.128 38.29 40.89-.076 3.178-37.981-.917-44.944-47.994-41.758-1.009.212-8.746-18.761-.453zM171.897 688.958l-5.998-.145-.146 5.998 5.999.145.145-5.998z" fill="#141D2B"/><path fill-rule="evenodd" clip-rule="evenodd" d="M121.182 758.645l-29.367-31.434.193-7.979 6.085.147 36.998 39.602-13.909-.336zm136.335-3.493l14.813.358-.36 14.891-14.814-.358.361-14.891zm-2.399 16.841l18.791.454.456-18.888-18.791-.454-.212 8.784-118.429-2.863-36.997-39.603 103.952 2.514.033-1.32-111.882-2.705.212-8.785-18.791-.454-.213 8.784-47.588-1.15-45.016-48.203-28.97-.7.098-4.063-9.396-.228-.098 4.077-39.111-.946.212-8.786-18.792-.453-.457 18.89 18.792.453.213-8.785 39.11.947-.097 4.048 9.395.227.099-4.062 28.421.687 45.016 48.204 48.137 1.163-.212 8.785 17.737.429 29.67 31.759.188.201 134.732 3.259-.212 8.783z" fill="#141D2B"/><path fill-rule="evenodd" clip-rule="evenodd" d="M262.227 759.161l-.145 5.999 5.998.145.144-5.999-5.997-.145zm-55.16-35.343l4.998.12.121-4.998-4.999-.12-.12 4.998z" fill="#141D2B"/><path fill-rule="evenodd" clip-rule="evenodd" d="M260.634 722.036l-46.072-48.599 13.938.344 46.066 48.591-13.932-.336zm-84.156-22.197l-14.844-.36.359-14.843 14.844.359-.359 14.844zm75.471-79.79l-18.833-.455-.456 18.828 8.768.212-.72 29.345 44.284 46.711-.192 7.928-8.379-.202-47.342-49.937-39.053-.963-12.087 11.513-17.892-.433-.455 18.828 18.831.455.213-8.788 29.147.693-.044 1.826 4.972.121.121-4.971-4.973-.122-.045 1.83-29.146-.692.188-7.804 11.682-11.127 22.168.546 46.073 48.599-43.528-1.049-.032 1.315 69.55 1.678-.212 8.759 18.833.456.455-18.828-17.798-.43-44.01-46.424.706-28.801 8.75.211.213-8.756 90.872 2.197 21.952 23.378-.207 8.547 9.417.228.097-4.049 95.582 2.31 20.46 21.792-.127 5.287 6.215.151.151-6.214-5.281-.128-20.836-22.189-96.131-2.325.098-4.048-8.424-.204-22.383-23.838-25.046-.605-27.974-29.793-24.343-.588.044-1.828-4.972-.12-.121 4.972 4.973.12.044-1.829 23.793.575 26.71 28.445-64.532-1.559.212-8.757z" fill="#141D2B"/><path fill-rule="evenodd" clip-rule="evenodd" d="M678.776 717.395l-11.758-.262 38.52-37.171 11.737.284-38.499 37.149zm-180.318 11.133l-14.831-.358.357-14.8 14.832.358-.358 14.8zm-128.291-11.161l-43.815-46.572 9.983.241 43.815 46.572-9.983-.241zm-68.113-40.413l-14.83-.358.358-14.799 14.83.359-.358 14.798zm279.279 22.105l-9.546-.231 22.33-21.546 9.546.231-22.33 21.546zm233.699-7.82l.454-18.774-18.813-.454-.211 8.731-53.519-1.294.209-8.625-18.814-.454-.209 8.624-19.001-.46-.108.105-67.172-1.625.097-4.023-9.407-.228-.097 4.038-95.487-2.309-19.777-21.022.118-4.943-4.88-.118-20.539-21.832-43.99-1.063-.032 1.311 43.44 1.051 19.779 21.022-.137 5.675 5.602.135 19.834 21.083 59.899 1.447-22.33 21.546-49-1.184.097-4.037-9.406-.227-.227 9.385 9.407.228.097-4.038 60.941 1.474 23.656-22.826 22.903.553-.075 3.082-42.881 41.379-84.81-2.051.211-8.731-17.88-.433-21.914-23.294-57.759-1.396.06-2.442-6.211-.15-.149 6.196 6.209.15.059-2.443 57.208 1.383 21.54 22.896-.189 7.81-40.069-.97.097-4.037-9.406-.228-.098 4.038-50.355-1.217-45.078-47.915-32.679-.79.212-8.73-18.813-.455-.454 18.771 18.813.455.211-8.729 20.299.49 45.078 47.915 11.829.286 50.905 1.23-.077 3.192-13.227 12.647.91.946 13.308-12.723 8.396.203.097-4.037 40.069.969-.211 8.731 18.815.455.211-8.732 85.36 2.064 43.244-41.726 8.503.205.098-4.05 65.877 1.593-38.524 37.174-35.489-.792.044-1.812-4.968-.12-.147 4.954 4.995.123.044-1.833 85.183 1.899-.211 8.713 18.814.455.454-18.773-18.814-.455-.212 8.748-34.238-.763 38.495-37.145 4.976.12-.211 8.731 18.814.454.214-8.837 53.518 1.293-.211 8.732 18.813.455z" fill="#141D2B"/><path fill-rule="evenodd" clip-rule="evenodd" d="M289.863 691.81l-.225 9.337 9.441.227.097-4.015 24.45.591 40.679 42.86 48.394 1.17-.044 1.812 4.986.12.119-4.929-4.986-.121-.043 1.813-47.842-1.157-40.679-42.859-25.002-.604.097-4.017-9.442-.228zm142.578-63.573l5.998.145.145-5.998-5.998-.145-.145 5.998zm61.854 89.522l-5.998-.146-.145 5.998 5.998.145.145-5.997zM311.6 802.364l-11.711-.283 38.525-37.096 11.734.262-38.548 37.117zm75.765-34.482l4.957.12.097-4.019 18.155-17.32-.908-.942-18.16 17.322-4.021-.097-.045 1.826-85.007-1.895.21-8.678-18.776-.454-.452 18.695 18.776.454.21-8.711 34.169.761-38.523 37.093-77.043-1.863.211-8.694-18.774-.454-.452 18.694 18.774.454.21-8.693 91.145 2.203 39.875-38.395 35.416.789-.044 1.804zm40.121-141.602l.032-1.326-30.095-.728.212-8.834-18.888-.457-.46 18.994 18.889.457.214-8.833 30.096.727zm220.304-9.842l-.146 5.999 5.997.144.146-5.997-5.997-.146zm-44.614 24.929l-.218 8.997 9.318.226.093-3.866 32.671.78.03-1.258-32.67-.779.093-3.874-9.317-.226zm-182.184-77.426l-.144 5.999 5.997.145.145-5.999-5.998-.145z" fill="#141D2B"/><path fill-rule="evenodd" clip-rule="evenodd" d="M826.994 610.601l-14.823-.358.36-14.885 14.824.358-.361 14.885zm-66.303 10.916l-25.126-27.083 10.41.236 25.14 27.1-10.424-.253zm-42.176 26.293l-10.429-.247 25.899-25.371 10.425.252-25.895 25.366zm-54.66-20.566l.36-14.887 14.824.358-.359 14.887-14.825-.358zm-139.389-58.538l-33.685-35.767 9.097.22 33.685 35.767-9.097-.22zm304.925 25.06l-18.802-.455-.434 17.959-11.666 11.161-25.537-.617-26.393-28.45-69.722-1.685.099-4.062-9.402-.226-.228 9.44 9.401.227.099-4.061 56.908 1.376 25.141 27.1h-.004l-77.984-1.886.213-8.822-17.785-.43-18.156-19.422-73.422-1.775.044-1.835-4.045-.097-16.693-17.857-15.611-.378-34.958-37.118-42.125-1.019-.032 1.321 30.632.739 33.685 35.767-62.878-1.52.213-8.78-18.804-.456-.457 18.883 18.804.455.213-8.783 90.737 2.194 16.331 17.472-.097 4.044 3.967.096 24.846 26.578 34.297.829-.098 4.06 9.402.228.228-9.441-9.402-.228-.099 4.061-33.747-.816-24.409-26.11.024-.97 72.872 1.761 17.698 18.932-.436 18.044 18.805.454.211-8.742 51.314 1.241-25.899 25.373-49.759-1.182-.03 1.319 62.3 1.479.275.007 27.21-26.655 52.755 1.275 12.07-11.547 17.864.432.456-18.882z" fill="#141D2B"/><path fill-rule="evenodd" clip-rule="evenodd" d="M646.992 649.429l5.997.145.146-5.999-5.998-.145-.145 5.999zM454.854 528.75l-5.999-.146-.145 5.999 5.999.145.145-5.998zm213.931 88.196l-.145 5.998 5.998.145.145-5.998-5.998-.145zm-252.973-42.125l14.868.36.36-14.873-14.869-.359-.359 14.872zm16.816 2.405l.456-18.866-17.913-.433-25.235-26.758 54.822 1.326.031-1.318-56.126-1.357-19.926-21.13-.189-.2-47.238-1.142.045-1.831-4.979-.121-.121 4.983 4.979.12.045-1.833 46.688 1.129 46.235 49.026-.434 17.95 18.86.455zm-230.823-49.593l-.145 5.997 5.998.146.144-5.998-5.997-.145z" fill="#141D2B"/><path fill-rule="evenodd" clip-rule="evenodd" d="M-97.665 618.423l-14.816-.359.359-14.891 14.817.359-.36 14.891zm126.95-50.822l14.79.357-45.979 44.682-14.788-.357 45.978-44.682zm168.809-44.059l14.817.358-.36 14.89-14.817-.358.36-14.89zm-293.606 88.143l94.127 2.289 47.305-45.972 30.966.747-.193 7.988-35.488 34.488-5.224-.126-.15 6.233 6.203.15.13-5.353 35.569-34.567 17.736.429.212-8.787 45.247 1.091.031-1.319-45.245-1.092.192-7.977 30.858-29.976 69.143 1.667-.213 8.785 18.797.455.456-18.889-18.796-.454-.213 8.783-69.691-1.68-31.376 30.479-17.74-.429-.213 8.782-48.149-1.161-47.303 45.97-76.946-1.874.213-8.785-18.795-.454-.457 18.888 18.795.455.213-8.784z" fill="#141D2B"/><path fill-rule="evenodd" clip-rule="evenodd" d="M143.735 571.242l4.998.121.121-4.998-4.999-.121-.12 4.998zm8.043-1.645l43.036 1.043-.214 8.834 18.946.458.459-18.994-18.946-.458-.213 8.833-43.036-1.042-.032 1.326zM1587.52 136.832l30.85-29.977 13.91.336-38.87 37.769-6.08-.147.19-7.981zm167.22-34.791l14.81.359-.36 14.89-14.81-.358.36-14.891zm-281.63 87.126l-28.43-.687.1-4.062-9.39-.228-.1 4.049-39.11-.945.21-8.786-18.79-.454-.46 18.89 18.79.454.22-8.785 39.11.945-.1 4.077 9.39.227.1-4.062 28.97.7 47.3-45.973 47.58 1.151-.21 8.785 18.79.455.22-8.786 111.88 2.705.03-1.32-103.95-2.512 38.86-37.769 118.43 2.863-.21 8.784 18.79.455.46-18.889-18.79-.454-.22 8.784-134.73-3.257-.19.191-31.17 30.289-17.74-.429-.21 8.786-48.14-1.164-47.29 45.972zm-153.67 32.378l-14.9-.359.36-14.974 14.9.36-.36 14.973zm60.27-6.698l-58.08-1.405.22-8.833-18.9-.457-.46 18.995 18.9.456.21-8.833 58.08 1.404.03-1.327z" fill="#141D2B"/><path fill-rule="evenodd" clip-rule="evenodd" d="M1315.65 216.463l-6-.145.15-5.998 6 .145-.15 5.998zm252.11 4.235l18.33.443 43.84 46.832-18.32-.443-43.85-46.832zm56.71-55.786l-.21 8.78-91.41-2.209-43.25 41.943-8.36-.203-.1 4.096-90.44-2.18-.03 1.319 90.44 2.186-.1 4.02 9.41.226.1-4.029 75.4 1.793 45.11 48.181 111.57 2.697-.21 8.78 18.83.456.46-18.88-18.83-.456-.21 8.781-90.86-2.195-45.11-48.182-96.12-2.324.08-3.257 42.74-41.441 90.86 2.198-.22 8.78 18.83.456.46-18.881-18.83-.455zm-235.69 47.317l-.15 5.998-6-.144.15-5.999 6 .145z" fill="#141D2B"/><path fill-rule="evenodd" clip-rule="evenodd" d="M1377.83 250.871l14.81.358.36-14.89-14.81-.358-.36 14.89zm95.76-4.488l14.78.358 43.77 46.852-14.79-.358-43.76-46.852zm210.24 99.017l.36-14.89 14.82.358-.36 14.89-14.82-.358zm-288.79-111.013l-18.79-.454-.46 18.889 18.8.455.21-8.785 76.94 1.846 45.03 48.203 48.15 1.166-.21 8.783 17.74.429 29.86 31.96 69.7 1.688-.22 8.784 18.8.454.46-18.888-18.8-.455-.21 8.786-69.15-1.675-29.37-31.434.19-7.976 45.25 1.096.03-1.319-45.24-1.096.21-8.789-17.74-.428-33.85-36.246.12-5.352-6.2-.15-.15 6.234 5.22.125 33.78 36.162-.19 7.988-30.97-.75-45.02-48.203-94.13-2.263.21-8.785zm-964.415-31.33l-14.901-.359.362-14.974 14.901.361-.362 14.972zm60.272-6.697l-58.076-1.405.214-8.833-18.902-.457-.459 18.995 18.901.457.213-8.834 58.077 1.404.032-1.327z" fill="#141D2B"/><path fill-rule="evenodd" clip-rule="evenodd" d="M426.838 197.975l-5.998-.144.144-5.998 5.999.145-.145 5.997zm252.114 4.236l18.321.442 43.846 46.832-18.323-.443-43.844-46.831zm56.706-55.786l-.212 8.78-91.408-2.21-43.255 41.943-8.358-.203-.099 4.096-90.434-2.179-.032 1.319 90.434 2.185-.098 4.019 9.414.228.098-4.029 75.397 1.792 45.109 48.181 111.576 2.697-.213 8.781 18.831.455.456-18.88-18.83-.455-.212 8.781-90.858-2.196-45.108-48.182-96.115-2.324.078-3.256 42.739-41.44 90.856 2.196-.212 8.781 18.83.455.456-18.88-18.83-.455z" fill="#141D2B"/><path fill-rule="evenodd" clip-rule="evenodd" d="M742.537 199.96l-7.803-.189-18.726-20 7.807.194 18.722 19.995zm67.143 15.383l14.85.359-.361 14.887-14.849-.359.36-14.887zm-12.522-14.144l-52.775-1.194-19.986-21.346-.275-.006-65.492-1.623.059-2.457-6.216-.151-.151 6.233 6.217.149.06-2.454 55.559 1.375 19.993 21.353 62.43 1.428 11.133 11.713-.434 17.962 18.836.455.457-18.885-17.896-.433-11.519-12.119zm-297.195-7.456l-.145 5.996-5.998-.144.145-5.998 5.998.146zM743.468 88.704L704.6 126.473l-6.085-.148.193-7.98 30.85-29.977 13.91.336zm122.097 9.74l14.813.359.36-14.89-14.813-.358-.36 14.89zm-1.793-8.152l-134.731-3.257-.197.193-31.171 30.287-17.737-.429-.213 8.785-48.137-1.164-47.293 45.972-28.422-.687.099-4.063-9.396-.227-.098 4.05-39.111-.945.212-8.785-18.792-.456-.456 18.89 18.792.455.212-8.785 39.111.945-.098 4.076 9.395.227.098-4.062 28.972.701 47.292-45.973 47.589 1.15-.213 8.785 18.791.455.213-8.785 111.881 2.705.032-1.319-103.953-2.514 38.869-37.769 118.428 2.864-.212 8.784 18.791.454.457-18.888-18.791-.455-.213 8.785z" fill="#141D2B"/><path fill-rule="evenodd" clip-rule="evenodd" d="M869.637 87.646l5.998.145-.145 5.998-5.998-.145.145-5.998zm-55.977 39.659l4.999.12-.121 4.999-4.999-.122.121-4.997zm-36.787 32.12l-5.998-.146.145-5.998 5.998.146-.145 5.998z" fill="#141D2B"/><path fill-rule="evenodd" clip-rule="evenodd" d="M881.015 132.011l-48.36 46.308-13.939-.33 48.368-46.314 13.931.336zm-114.268 32.251l14.845.359.359-14.843-14.845-.359-.359 14.843zm327.623 10.67l-.12 5.288-21.49 20.776-95.585-2.309.098-4.05-9.415-.228-.208 8.547-23.056 22.291-90.873-2.198.212-8.755-8.75-.212.686-28.802 46.203-44.243 17.797.432.455-18.829-18.833-.456-.212 8.76-69.55-1.685-.031 1.316 43.528 1.055-48.368 46.315-22.168-.525-11.131-11.679.189-7.804 29.146.717-.043 1.829 4.972.12.121-4.97-4.973-.121-.045 1.827-29.146-.717.212-8.788-18.831-.455-.455 18.827 17.892.433 11.515 12.083 39.056.925 49.699-47.59 8.38.202-.192 7.929-46.49 44.517-.699 29.345-8.768-.212-.455 18.828 18.833.455.212-8.757 64.532 1.561-28.053 27.121-23.794-.575.045-1.828-4.973-.12-.119 4.971 4.971.12.045-1.828 24.344.589 29.381-28.405 25.046.605 23.509-22.729 8.423.204.098-4.048 96.136 2.324 21.88-21.157 5.28.128.15-6.215-6.22-.15z" fill="#141D2B"/><path fill-rule="evenodd" clip-rule="evenodd" d="M1019.9 120.405l-47.84-1.157-42.702 40.844-25.002-.604-.097 4.016-9.442-.228.224-9.337 9.444.228-.097 4.016 24.449.591 42.702-40.844 48.391 1.17.05-1.812 4.98.12-.12 4.93-4.98-.12.04-1.813zm80.39 25.833l-6-.146.14-5.998 6 .145-.14 5.999zm-141.713-53.4l-11.733-.306-36.688-38.914 11.712.283 36.709 38.937zm58.503 22.38l.95-.898-17.29-18.176.09-4.021-4.954-.119-.043 1.804-35.413-.923-37.972-40.277-91.145-2.204.21-8.693-18.775-.454-.451 18.694 18.774.454.21-8.695 77.044 1.863 36.684 38.91-34.165-.89.21-8.711-18.775-.454-.452 18.694 18.775.454.21-8.677 84.999 2.215-.044 1.826 4.022.097 17.301 18.181z" fill="#141D2B"/><path fill-rule="evenodd" clip-rule="evenodd" d="M1090.04 150.151l14.85.359.36-14.814-14.85-.359-.36 14.814zm-103.646-9.261l-46.075 44.439-9.998-.242 46.076-44.439 9.997.242zm-80.433 51.676l-14.85-.359.358-14.811 14.85.358-.358 14.812zm302.049-.778l-9.56-.232-21.29-22.62 9.55.231 21.3 22.621zm24.65 5.953l9.42.226.22-9.393-8.51-.206-41.23-43.807-85.48-2.066.21-8.739-18.84-.455-.21 8.739-40.12-.971.1-4.04-8.41-.203-12.7-13.364-.95.903 12.62 13.283-.08 3.194-62.821-1.519-47.404 45.72-20.327-.492.211-8.737-18.838-.455-.454 18.787 18.838.456.211-8.737 32.723.79 47.404-45.72 50.427 1.219-.1 4.041 9.42.228.1-4.041 40.12.97-.19 7.816-22.65 21.847-57.29-1.385.06-2.445-6.22-.15-.14 6.201 6.21.151.06-2.445 57.84 1.399 23.04-22.227 17.91.433.21-8.74 84.92 2.053 40.89 43.44-.07 3.087-22.94-.555-22.55-23.964-61.03-1.476.1-4.041-9.42-.227-.22 9.394 9.42.227.09-4.04 49.07 1.187 21.29 22.62-55.51-1.342.07-2.517-6.22-.15-.15 6.201 6.22.15.05-2.372 91.7 2.218-.1 4.041zm119.39 182.838l-7.8-.193-18.73-19.996 7.81.189 18.72 20zm-93.31-50.459l-.36 14.888-14.85-.359.36-14.888 14.85.359zm150.78 49.426l-.06 2.454-55.56-1.375-19.99-21.351-62.43-1.429-11.14-11.713.44-17.962-18.84-.456-.46 18.886 17.9.433 11.52 12.119 52.77 1.194 19.99 21.346.28.006 65.49 1.622-.06 2.458 6.22.15.15-6.232-6.22-.15z" fill="#141D2B"/><path fill-rule="evenodd" clip-rule="evenodd" d="M1388.76 358.132l-18.29-.442-43.76-46.829 18.29.441 43.76 46.83zm77.18-2.197l-.1 4.029-75.24-1.788-45.02-48.179-111.35-2.692.21-8.781-18.79-.454-.46 18.88 18.8.454.21-8.78 90.67 2.193 45.02 48.179 95.92 2.319-.08 3.255-42.65 41.442-90.68-2.192.22-8.781-18.8-.454-.45 18.88 18.79.455.21-8.781 91.23 2.206 43.17-41.945 8.34.202.1-4.096 17.98.429.03-1.319-17.98-.435.1-4.018-9.4-.228zm-206.78-154.069l.36-14.782 14.83.358-.36 14.783-14.83-.359zm-67.75 12.04l-19.63 18.913-10.42-.248 19.64-18.933 10.41.268zm-73.15 80.777l46.02-44.348 27.08.654-46.02 44.348-27.08-.654zm139.8-90.858l17.87.432.46-18.752-18.82-.454-.43 17.835-11.67 11.08-64.98-1.652-20.98 20.214-50.68-1.204-55.13 53.073-17.76-.43-.46 18.75 18.82.455.21-8.721 4.18.102 58.25 1.408 28.92.699 47.34-45.626 33.77.817-.1 4.032 9.41.226.23-9.374-9.41-.229-.1 4.034-63.24-1.529-47.34 45.627-57.7-1.395-4.18-.101.19-7.918 38.04-36.618 26.84.649-.06 2.438 6.22.15.15-6.188-6.22-.15-.06 2.44-25.54-.618 15.24-14.68 62.96 1.496 20.97-20.208 52.71 1.354 12.08-11.464zM978.127 292.39l-45.888 44.482-10.391-.251 45.888-44.482 10.391.251zm32.643 7.548l.35-14.824 14.79.357-.36 14.824-14.78-.357zm-1.58-16.862l-.21 8.745-41.762-1.009-47.211 45.765-37.981-.919.078-3.178 40.222-38.992 5.3.129.15-6.206-6.191-.151-.127 5.243-40.323 39.087-8.39-.202-.227 9.401 9.379.227.098-4.043 50.761 1.227 47.21-45.766 28.974.701-.21 8.745 18.76.453.46-18.804-18.76-.453zm282.02 116.85l6 .145-.15 5.998-5.99-.145.14-5.998z" fill="#141D2B"/><path fill-rule="evenodd" clip-rule="evenodd" d="M1325.59 471.671l38.87-37.768 6.08.146-.19 7.98-30.85 29.978-13.91-.336zm-122.46 5.149l-14.81-.358.36-14.89 14.81.358-.36 14.89zm2.16-6.737l134.73 3.257.2-.192 31.17-30.288 17.73.429.21-8.785 48.14 1.163 47.3-45.972 28.42.687-.1 4.063 9.39.227.1-4.048 39.11.945-.21 8.785 18.79.454.46-18.889-18.79-.455-.22 8.785-39.11-.945.1-4.077-9.39-.227-.1 4.064-28.97-.701-47.29 45.971-47.59-1.15.21-8.785-18.79-.454-.21 8.785-111.89-2.705-.03 1.32 103.95 2.513-38.86 37.768-118.43-2.864.21-8.784-18.79-.454-.46 18.889 18.79.454.22-8.784z" fill="#141D2B"/><path fill-rule="evenodd" clip-rule="evenodd" d="M1198.59 465.707l-.14 5.998-6-.145.14-5.998 6 .145zm56.81-32.637l-5-.121.12-4.998 5 .122-.12 4.997z" fill="#141D2B"/><path fill-rule="evenodd" clip-rule="evenodd" d="M1188.04 428.364l48.36-46.308 13.94.33-48.36 46.316-13.94-.338zm99.43-32.61l14.84.358-.36 14.843-14.84-.358.36-14.843zm-72.1-59.743l-64.53-1.561 28.05-27.121 23.79.575-.04 1.828 4.97.12.12-4.971-4.97-.12-.05 1.827-24.34-.588-29.38 28.406-25.05-.606-23.5 22.729-8.43-.204-.1 4.048-96.127-2.323-21.884 21.156-5.281-.128-.149 6.215 6.215.15.128-5.288 21.49-20.777 95.578 2.311-.1 4.049 9.42.228.21-8.547 23.05-22.29 90.88 2.197-.21 8.755 8.75.212-.69 28.802-46.2 44.243-17.8-.431-.46 18.828 18.84.456.21-8.759 69.55 1.685.03-1.316-43.53-1.056 48.37-46.315 22.17.525 11.13 11.679-.19 7.804-29.15-.717.05-1.83-4.98-.119-.12 4.97 4.98.121.04-1.827 29.15.718-.22 8.788 18.84.454.45-18.827-17.89-.433-11.52-12.084-39.05-.925-49.7 47.591-8.38-.203.19-7.928 46.49-44.517.7-29.345 8.77.212.45-18.828-18.83-.456-.21 8.758z" fill="#141D2B"/><path fill-rule="evenodd" clip-rule="evenodd" d="M746.891 364.87l11.736.284 36.68 38.988-11.757-.306-36.659-38.966zm216.589 44l14.832.358-.358 14.801-14.831-.359.357-14.8zm118.34 9.61l46.01-44.401 9.98.242-46.01 44.4-9.98-.241zm80.33-51.631l14.83.358-.36 14.798-14.83-.358.36-14.798zm-301.642.78l9.546.232 21.263 22.6-9.547-.231-21.262-22.601zm-192.976 3.951l.211-8.731 53.518 1.294-.213 8.837 18.814.456.211-8.731 4.976.12 36.655 38.963-34.236-.893.212-8.748-18.815-.455-.453 18.773 18.814.455.21-8.713 85.176 2.22-.045 1.833 4.968.131.12-4.968-4.967-.12-.045 1.812-35.486-.925-36.682-38.992 65.877 1.593-.098 4.05 8.503.206 41.177 43.767 85.36 2.064-.211 8.731 18.814.455.211-8.73 40.072.968-.1 4.036 8.4.203 12.67 13.352.96-.902-12.6-13.271.07-3.191 50.91 1.231 11.83.286 47.34-45.681 20.3.491-.21 8.73 18.81.455.46-18.772-18.82-.455-.21 8.731-32.68-.79-47.34 45.68-50.35-1.217.09-4.039-9.4-.227-.1 4.038-40.07-.968.189-7.81 22.621-21.828 57.21 1.383-.06 2.443 6.21.15.15-6.196-6.21-.15-.06 2.442-57.76-1.396-23.013 22.207-17.88-.432-.211 8.732-84.81-2.05-40.832-43.402.075-3.084 22.902.554 22.526 23.943 60.941 1.473-.098 4.038 9.406.227.227-9.385-9.406-.228-.098 4.037-49-1.185-21.263-22.6 59.9 1.448 20.829-20.099 5.603.136.137-5.674 20.771-20.043 43.444 1.05.03-1.311-43.992-1.064-21.57 20.813-4.881-.118-.12 4.943-20.77 20.043-95.487-2.309.098-4.037-9.407-.228-.097 4.023-67.172-1.623-.103-.109-19.001-.459.208-8.624-18.815-.455-.208 8.624-53.518-1.294.211-8.73-18.813-.456-.454 18.773 18.813.455z" fill="#141D2B"/><path fill-rule="evenodd" clip-rule="evenodd" d="M1173.24 397.075l-.22 9.336-9.44-.229.09-4.015-24.45-.592-42.7 40.845-48.39-1.17-.05 1.813-4.98-.122.12-4.929 4.98.12-.04 1.813 47.84 1.156 42.7-40.843 25 .604.1-4.016 9.44.229zm-139.36-69.39l-6-.145.15-5.997 6 .144-.15 5.998zm-66.107 86.428l5.998.145-.144 5.998-5.999-.145.145-5.998zm142.707 53.424l11.73.306 36.69 38.913-11.71-.283-36.71-38.936zm-37.26-.971l35.42.923 37.97 40.277 91.14 2.204-.21 8.694 18.78.454.45-18.694-18.77-.454-.21 8.694-77.05-1.863-36.68-38.91 34.16.891-.21 8.711 18.78.454.45-18.695-18.77-.454-.21 8.678-85-2.216.04-1.825-4.02-.098-17.3-18.18-.96.899 17.3 18.175-.1 4.02 4.96.119.04-1.804zm-33.27-141.571l.03-1.327 30.1.727.21-8.833 18.89.457-.46 18.993-18.89-.456.22-8.833-30.1-.728zm-220.597-19.501l-.144 5.998-5.998-.145.144-5.998 5.998.145zm44.385 26.08l-.218 8.997-9.317-.224.093-3.866-32.67-.801.031-1.257 32.67.8.094-3.873 9.317.224zm185.682-67.531l-.14 5.998-6-.145.15-5.998 5.99.145z" fill="#141D2B"/><path fill-rule="evenodd" clip-rule="evenodd" d="M641.005 276.119l14.822.359-.36 14.885-14.822-.358.36-14.886zm54.913 28.741l26.42-25.853 10.409.267-26.405 25.838-10.424-.252zm26.641 1.964l10.424.252 24.642 26.593-10.428-.257-24.638-26.588zm65.401 8.329l.361-14.888 14.824.359-.36 14.887-14.825-.358zm147.789-51.595l35.374-34.098 9.097.22-35.374 34.098-9.097-.22zm-297.142 29.397l17.863.432 11.499 12.117 52.755 1.276 25.889 27.938.276.007 62.299 1.532.033-1.318-49.758-1.224-24.642-26.595 51.313 1.24-.211 8.743 18.805.455.436-18.044 18.592-18.055 72.873 1.762-.024.97-25.642 24.901-33.747-.816.098-4.061-9.402-.227-.228 9.441 9.401.227.098-4.061 34.297.829 26.102-25.346 3.967.095.098-4.043 17.157-16.662 90.736 2.193-.21 8.783 18.8.454.46-18.883-18.8-.454-.22 8.782-62.875-1.52 35.374-34.098 30.631.741.03-1.32-42.122-1.019-36.711 35.386-15.611-.377-17.537 17.029-4.044-.097-.045 1.833-73.422-1.774-19.074 18.522-17.784-.43-.214 8.823-77.983-1.886-.004.001 26.421-25.854 56.908 1.375-.098 4.061 9.402.228.228-9.441-9.402-.228-.098 4.062-69.721-1.687-27.738 27.143-25.537-.618-11.113-11.712.435-17.959-18.803-.454-.456 18.882z" fill="#141D2B"/><path fill-rule="evenodd" clip-rule="evenodd" d="M818.556 338.484l-5.997-.145.144-5.998 5.998.145-.145 5.998zm198.774-112.227l6 .144-.15 5.998-6-.145.15-5.997zm-218.945 77.73l-.145 5.998-5.998-.145.145-5.998 5.998.145zm239.845-30.21l14.86.359.36-14.872-14.86-.359-.36 14.872zm16.81 2.405l.44-17.95 48.55-46.734 46.68 1.129-.04 1.832 4.98.12.12-4.982-4.98-.12-.04 1.831-47.24-1.142-.2.191-20.92 20.142-56.13-1.357-.03 1.319 54.82 1.325-26.5 25.506-17.91-.433-.46 18.866 18.86.457zm214.07-37.837l-.15 5.997-6-.144.15-5.998 6 .145z" fill="#141D2B"/><path fill-rule="evenodd" clip-rule="evenodd" d="M1565.23 327.633l14.81.358-.36 14.89-14.81-.358.36-14.89zm-80.95 4.846l-14.78-.358-43.77-46.851 14.79.357 43.76 46.852zm-210.6-84.127l-14.82-.358.36-14.891 14.82.36-.36 14.889zm289.15 96.123l18.79.454.46-18.888-18.79-.455-.22 8.784-76.94-1.846-45.03-48.203-48.15-1.167.21-8.782-17.74-.429-29.86-31.959-69.69-1.689.21-8.783-18.8-.455-.46 18.888 18.8.454.21-8.784 69.15 1.676 29.37 31.432-.19 7.976-45.25-1.096-.03 1.32 45.24 1.096-.21 8.787 17.74.429 33.85 36.245-.12 5.353 6.2.15.15-6.233-5.22-.126-33.78-36.162.19-7.988 30.97.75 45.02 48.203 94.13 2.263-.21 8.785z" fill="#141D2B"/><path fill-rule="evenodd" clip-rule="evenodd" d="M1320.01 284.588l5 .121.12-4.998-5-.121-.12 4.998zm-2.96-1.91l-43.03-1.038-.22 8.833-18.94-.458.46-18.994 18.94.458-.21 8.834 43.03 1.038-.03 1.327z" fill="#141D2B"/></svg>